<svg width="24" height="24" viewBox="0 0 24 24" fill="none" xmlns="http://www.w3.org/2000/svg">
<path d="M20.8002 15.7399C20.8072 15.7239 20.815 15.7083 20.8204 15.6919C21.662 13.6824 21.7917 11.4458 21.1879 9.35254C20.5842 7.25932 19.2833 5.43524 17.5009 4.18264C17.4666 4.15202 17.4287 4.12573 17.3879 4.10436C15.5419 2.84266 13.3119 2.26817 11.086 2.48085C8.8601 2.69352 6.77923 3.67991 5.20549 5.26835C3.63175 6.8568 2.66477 8.94675 2.4728 11.1745C2.28083 13.4023 2.87604 15.6269 4.15485 17.4611C4.15888 17.4686 4.16245 17.4764 4.16695 17.4837C4.18496 17.5129 4.20561 17.5404 4.22863 17.5658C4.97486 18.61 5.92392 19.493 7.0191 20.1621C8.11427 20.8312 9.33309 21.2726 10.6027 21.46C11.8724 21.6475 13.1667 21.577 14.4085 21.2529C15.6503 20.9288 16.8141 20.3577 17.8302 19.5738C17.8681 19.5512 17.9031 19.5242 17.9347 19.4933C17.9356 19.4924 17.9361 19.4913 17.937 19.4903C19.1881 18.4974 20.1721 17.2085 20.8002 15.7399ZM17.5699 18.3317L16.9293 17.6897C16.7645 17.5248 16.5589 17.4066 16.3334 17.3473L14.3218 16.8195C14.2771 16.8078 14.2383 16.7801 14.2128 16.7416C14.1873 16.703 14.177 16.6565 14.1838 16.6108L14.4074 15.0923C14.4122 15.0603 14.4251 15.0301 14.445 15.0046C14.4649 14.979 14.491 14.9591 14.5208 14.9465L17.3758 13.7599C17.4087 13.7463 17.4449 13.7423 17.48 13.7485C17.5151 13.7546 17.5478 13.7707 17.5741 13.7947L19.605 15.6521C19.1123 16.6722 18.4203 17.5833 17.5699 18.3317ZM11.9997 3.56239C13.6245 3.56049 15.215 4.0306 16.5777 4.91557L16.6734 6.90767C16.6758 6.95577 16.6595 7.00295 16.6279 7.03929L14.5506 9.43929C14.5208 9.47386 14.4793 9.49633 14.4341 9.50248L11.4828 9.90214C11.4351 9.90864 11.3866 9.89652 11.3475 9.86829L9.50479 8.53301C9.35993 8.42808 9.19515 8.35386 9.02057 8.31492C8.84599 8.27597 8.66529 8.27313 8.48957 8.30655C8.31385 8.33997 8.14681 8.40896 7.99872 8.50928C7.85063 8.6096 7.7246 8.73913 7.62838 8.88992L5.7681 11.8054C5.63483 12.0141 5.56342 12.2563 5.56213 12.504L5.5431 15.8911C5.5428 15.9232 5.53433 15.9546 5.51848 15.9825C5.50264 16.0104 5.47994 16.0338 5.45254 16.0505L4.82245 16.4309C4.03244 15.1531 3.5981 13.6875 3.56432 12.1856C3.53054 10.6837 3.89856 9.2 4.63032 7.88798C5.36208 6.57597 6.43101 5.48323 7.7266 4.72276C9.02218 3.96229 10.4974 3.56169 11.9997 3.56239ZM5.47907 17.3487L6.03398 17.0137C6.22588 16.8969 6.38481 16.7331 6.49576 16.5378C6.6067 16.3424 6.66599 16.122 6.66801 15.8974L6.68704 12.5104C6.68726 12.475 6.6975 12.4404 6.71657 12.4106L8.57676 9.49517C8.59051 9.47363 8.60852 9.45513 8.62968 9.44079C8.65084 9.42646 8.6747 9.4166 8.69981 9.41182C8.72491 9.40704 8.75073 9.40743 8.77567 9.41298C8.80062 9.41852 8.82417 9.4291 8.84488 9.44407L10.6875 10.7793C10.9604 10.9778 11.2995 11.063 11.6338 11.017L14.585 10.6173C14.9018 10.5744 15.1921 10.4174 15.4013 10.1756L17.4785 7.77561C17.6997 7.5209 17.8139 7.19051 17.7971 6.85357L17.7479 5.82954C18.9147 6.91459 19.7501 8.30809 20.1573 9.84852C20.5645 11.389 20.5267 13.0132 20.0485 14.5331L18.3334 12.9646C18.1487 12.7964 17.92 12.6842 17.674 12.6411C17.4279 12.598 17.1747 12.6258 16.9439 12.7212L14.0891 13.9078C13.8801 13.9953 13.6972 14.1352 13.558 14.314C13.4188 14.4928 13.328 14.7044 13.2944 14.9284L13.0708 16.4469C13.0234 16.7665 13.0958 17.0924 13.2739 17.362C13.4521 17.6315 13.7235 17.8258 14.0361 17.9075L16.0476 18.4354C16.0799 18.4439 16.1093 18.4608 16.1329 18.4844L16.6705 19.023C14.9301 20.183 12.8203 20.6541 10.7518 20.3446C8.68323 20.0351 6.80377 18.9672 5.47907 17.3486V17.3487Z" fill="#708090"/>
</svg>
