<svg width="20" height="20" viewBox="0 0 20 20" fill="none" xmlns="http://www.w3.org/2000/svg">
<path d="M17.778 3.33325H2.22244C1.92775 3.33325 1.64514 3.45032 1.43676 3.65869C1.22839 3.86706 1.11133 4.14968 1.11133 4.44436V15.5555C1.11133 15.8502 1.22839 16.1328 1.43676 16.3411C1.64514 16.5495 1.92775 16.6666 2.22244 16.6666H17.778C18.0727 16.6666 18.3553 16.5495 18.5637 16.3411C18.772 16.1328 18.8891 15.8502 18.8891 15.5555V4.44436C18.8891 4.14968 18.772 3.86706 18.5637 3.65869C18.3553 3.45032 18.0727 3.33325 17.778 3.33325ZM16.9224 15.5555H3.14466L7.03355 11.5333L6.23355 10.761L2.22244 14.911V5.28881L9.12799 12.161C9.33617 12.368 9.61779 12.4841 9.91133 12.4841C10.2049 12.4841 10.4865 12.368 10.6947 12.161L17.778 5.11659V14.8388L13.6891 10.7499L12.9058 11.5333L16.9224 15.5555ZM2.95022 4.44436H16.878L9.91133 11.3721L2.95022 4.44436Z" fill="#1B9DEF"/>
</svg>
