<svg width="40" height="40" viewBox="0 0 40 40" fill="none" xmlns="http://www.w3.org/2000/svg">
<rect width="40" height="40" rx="4" fill="#1B9DEF" fill-opacity="0.15"/>
<rect x="0.5" y="0.5" width="39" height="39" rx="3.5" stroke="#1B9DEF" stroke-opacity="0.15"/>
<g clip-path="url(#clip0)">
<path d="M17.25 23.4375C17.25 23.2552 17.3224 23.0803 17.4514 22.9514C17.5803 22.8224 17.7552 22.75 17.9375 22.75H22.0625C22.2448 22.75 22.4197 22.8224 22.5486 22.9514C22.6776 23.0803 22.75 23.2552 22.75 23.4375C22.75 23.6198 22.6776 23.7947 22.5486 23.9236C22.4197 24.0526 22.2448 24.125 22.0625 24.125H17.9375C17.7552 24.125 17.5803 24.0526 17.4514 23.9236C17.3224 23.7947 17.25 23.6198 17.25 23.4375ZM14.5 19.3125C14.5 19.1302 14.5724 18.9553 14.7014 18.8264C14.8303 18.6974 15.0052 18.625 15.1875 18.625H24.8125C24.9948 18.625 25.1697 18.6974 25.2986 18.8264C25.4276 18.9553 25.5 19.1302 25.5 19.3125C25.5 19.4948 25.4276 19.6697 25.2986 19.7986C25.1697 19.9276 24.9948 20 24.8125 20H15.1875C15.0052 20 14.8303 19.9276 14.7014 19.7986C14.5724 19.6697 14.5 19.4948 14.5 19.3125ZM11.75 15.1875C11.75 15.0052 11.8224 14.8303 11.9514 14.7014C12.0803 14.5724 12.2552 14.5 12.4375 14.5H27.5625C27.7448 14.5 27.9197 14.5724 28.0486 14.7014C28.1776 14.8303 28.25 15.0052 28.25 15.1875C28.25 15.3698 28.1776 15.5447 28.0486 15.6736C27.9197 15.8026 27.7448 15.875 27.5625 15.875H12.4375C12.2552 15.875 12.0803 15.8026 11.9514 15.6736C11.8224 15.5447 11.75 15.3698 11.75 15.1875Z" fill="#1189D6"/>
</g>
<defs>
<clipPath id="clip0">
<rect width="22" height="22" fill="white" transform="translate(9 9)"/>
</clipPath>
</defs>
</svg>