<svg width="22" height="22" viewBox="0 0 22 22" fill="none" xmlns="http://www.w3.org/2000/svg">
<g clip-path="url(#clip0)">
<path d="M8.25 14.4375C8.25 14.2552 8.32243 14.0803 8.45136 13.9514C8.5803 13.8224 8.75516 13.75 8.9375 13.75H13.0625C13.2448 13.75 13.4197 13.8224 13.5486 13.9514C13.6776 14.0803 13.75 14.2552 13.75 14.4375C13.75 14.6198 13.6776 14.7947 13.5486 14.9236C13.4197 15.0526 13.2448 15.125 13.0625 15.125H8.9375C8.75516 15.125 8.5803 15.0526 8.45136 14.9236C8.32243 14.7947 8.25 14.6198 8.25 14.4375ZM5.5 10.3125C5.5 10.1302 5.57243 9.9553 5.70136 9.82636C5.8303 9.69743 6.00516 9.625 6.1875 9.625H15.8125C15.9948 9.625 16.1697 9.69743 16.2986 9.82636C16.4276 9.9553 16.5 10.1302 16.5 10.3125C16.5 10.4948 16.4276 10.6697 16.2986 10.7986C16.1697 10.9276 15.9948 11 15.8125 11H6.1875C6.00516 11 5.8303 10.9276 5.70136 10.7986C5.57243 10.6697 5.5 10.4948 5.5 10.3125ZM2.75 6.1875C2.75 6.00516 2.82243 5.8303 2.95136 5.70136C3.0803 5.57243 3.25516 5.5 3.4375 5.5H18.5625C18.7448 5.5 18.9197 5.57243 19.0486 5.70136C19.1776 5.8303 19.25 6.00516 19.25 6.1875C19.25 6.36984 19.1776 6.5447 19.0486 6.67364C18.9197 6.80257 18.7448 6.875 18.5625 6.875H3.4375C3.25516 6.875 3.0803 6.80257 2.95136 6.67364C2.82243 6.5447 2.75 6.36984 2.75 6.1875Z" fill="#1189D6"/>
</g>
<defs>
<clipPath id="clip0">
<rect width="22" height="22" fill="white"/>
</clipPath>
</defs>
</svg>
