<svg width="24" height="24" viewBox="0 0 24 24" fill="none" xmlns="http://www.w3.org/2000/svg">
<path d="M12.146 3.76528C12.3161 3.42514 12.5645 3.13028 12.8709 2.90499C13.1772 2.6797 13.5327 2.53043 13.9081 2.46949C14.2835 2.40855 14.6679 2.43768 15.0298 2.55448C15.3917 2.67128 15.7207 2.87241 15.9896 3.14128L20.858 8.00968C21.1269 8.2786 21.328 8.60756 21.4448 8.96946C21.5616 9.33136 21.5907 9.71583 21.5298 10.0912C21.4689 10.4666 21.3196 10.8221 21.0943 11.1284C20.869 11.4348 20.5741 11.6832 20.234 11.8533L16.0844 13.9293C15.6902 14.1262 15.3819 14.461 15.218 14.8701L13.4948 19.1781C13.421 19.3625 13.3026 19.5257 13.1501 19.653C12.9977 19.7804 12.8161 19.8679 12.6215 19.9078C12.4269 19.9476 12.2254 19.9385 12.0352 19.8813C11.845 19.8241 11.672 19.7206 11.5316 19.5801L8.39961 16.4481L4.44801 20.3997H3.59961V19.5513L7.55121 15.5997L4.41921 12.4677C4.27866 12.3273 4.17514 12.1543 4.11795 11.9641C4.06076 11.7739 4.05168 11.5724 4.09153 11.3778C4.13137 11.1832 4.2189 11.0016 4.34625 10.8492C4.47361 10.6967 4.63681 10.5783 4.82121 10.5045L9.12921 8.78128C9.53874 8.61763 9.87395 8.30933 10.0712 7.91488L12.1472 3.76528H12.146ZM15.1412 3.98968C15.0067 3.85537 14.8423 3.75491 14.6614 3.69659C14.4805 3.63826 14.2884 3.62373 14.1008 3.6542C13.9132 3.68466 13.7355 3.75925 13.5824 3.87182C13.4293 3.98439 13.3051 4.13172 13.22 4.30168L11.144 8.45128C10.8158 9.10871 10.2577 9.62281 9.57561 9.89608L5.26761 11.6193L12.38 18.7317L14.1032 14.4237C14.3765 13.7416 14.8906 13.1835 15.548 12.8553L19.6976 10.7793C19.8676 10.6942 20.0149 10.57 20.1275 10.4169C20.24 10.2638 20.3146 10.0861 20.3451 9.8985C20.3756 9.7109 20.361 9.51875 20.3027 9.33787C20.2444 9.15699 20.1439 8.99254 20.0096 8.85808L15.1412 3.98968Z" fill="#708090"/>
</svg>
