<svg width="24" height="24" viewBox="0 0 24 24" fill="none" xmlns="http://www.w3.org/2000/svg">
<path d="M20.251 6.1875H16.3127V5.25C16.3121 4.70318 16.0946 4.17894 15.7079 3.79228C15.3213 3.40562 14.797 3.18812 14.2502 3.1875H9.75023C9.20341 3.18812 8.67916 3.40562 8.2925 3.79228C7.90584 4.17894 7.68835 4.70318 7.68773 5.25V6.1875H3.75098C3.403 6.1879 3.06939 6.3263 2.82334 6.57236C2.57728 6.81842 2.43887 7.15203 2.43848 7.5V19.5C2.43887 19.848 2.57728 20.1816 2.82334 20.4276C3.06939 20.6737 3.403 20.8121 3.75098 20.8125H20.251C20.599 20.8121 20.9326 20.6737 21.1786 20.4276C21.4247 20.1816 21.5631 19.848 21.5635 19.5V7.5C21.5631 7.15203 21.4247 6.81842 21.1786 6.57236C20.9326 6.3263 20.599 6.1879 20.251 6.1875ZM8.81273 5.25C8.81302 5.00145 8.91189 4.76317 9.08764 4.58742C9.26339 4.41167 9.50168 4.3128 9.75023 4.3125H14.2502C14.4988 4.3128 14.7371 4.41167 14.9128 4.58742C15.0886 4.76317 15.1874 5.00145 15.1877 5.25V6.1875H8.81273V5.25ZM3.75098 7.3125H20.251C20.3007 7.31257 20.3483 7.33235 20.3835 7.3675C20.4186 7.40265 20.4384 7.45029 20.4385 7.5V11.5109C17.8553 12.939 14.9519 13.6879 12.0002 13.6875C9.04915 13.6879 6.14627 12.9393 3.56348 11.5117V7.5C3.56355 7.45029 3.58333 7.40265 3.61848 7.3675C3.65362 7.33235 3.70127 7.31257 3.75098 7.3125ZM20.251 19.6875H3.75098C3.70127 19.6874 3.65362 19.6676 3.61848 19.6325C3.58333 19.5974 3.56355 19.5497 3.56348 19.5V12.7856C6.17625 14.1179 9.06739 14.8125 12.0002 14.8125C14.9336 14.8125 17.8253 14.1176 20.4385 12.7849V19.5C20.4384 19.5497 20.4186 19.5974 20.3835 19.6325C20.3483 19.6676 20.3007 19.6874 20.251 19.6875ZM10.3127 11.25C10.3127 11.1008 10.372 10.9577 10.4775 10.8523C10.583 10.7468 10.726 10.6875 10.8752 10.6875H13.1252C13.2744 10.6875 13.4175 10.7468 13.523 10.8523C13.6285 10.9577 13.6877 11.1008 13.6877 11.25C13.6877 11.3992 13.6285 11.5423 13.523 11.6477C13.4175 11.7532 13.2744 11.8125 13.1252 11.8125H10.8752C10.726 11.8125 10.583 11.7532 10.4775 11.6477C10.372 11.5423 10.3127 11.3992 10.3127 11.25Z" fill="#708090"/>
</svg>
