<svg width="24" height="24" viewBox="0 0 24 24" fill="none" xmlns="http://www.w3.org/2000/svg">
<path d="M4.1569 16.952C2.62315 18.4858 2.54065 21.2814 2.54065 21.2814C2.54065 21.2814 5.3344 21.1989 6.87002 19.6652C8.40565 18.1314 9.04128 16.2808 8.29128 15.5327C7.54128 14.7827 5.69065 15.4183 4.1569 16.952Z" fill="url(#paint0_linear)"/>
<path opacity="0.2" d="M7.41565 15.5918C7.68377 15.5918 7.88815 15.6612 8.02502 15.7962C8.54065 16.3118 8.08315 17.9187 6.60378 19.3999C5.53503 20.4687 3.75565 20.7837 2.9494 20.8737C3.0394 20.0674 3.3544 18.288 4.42127 17.2193C5.4094 16.2293 6.58502 15.5918 7.41565 15.5918ZM7.41565 15.2168C6.51377 15.2168 5.25377 15.8543 4.1569 16.953C2.62315 18.4868 2.54065 21.2824 2.54065 21.2824C2.54065 21.2824 5.3344 21.1999 6.87002 19.6662C8.40565 18.1324 9.04128 16.2818 8.29128 15.5337C8.07753 15.3162 7.77565 15.2168 7.41565 15.2168Z" fill="#424242"/>
<path d="M4.62188 17.4921C3.65626 18.4577 3.60376 20.2164 3.60376 20.2164C3.60376 20.2164 5.36251 20.1639 6.32814 19.1983C7.29376 18.2327 7.69501 17.0664 7.22251 16.5958C6.75001 16.1252 5.58939 16.5246 4.62188 17.4921Z" fill="url(#paint1_linear)"/>
<path d="M6.60195 17.5089C7.5207 18.4895 8.72633 18.3864 8.8257 18.2251L9.6657 16.8601C9.71633 16.7776 9.66945 16.6464 9.63383 16.6126L7.36695 14.3458C7.33133 14.3101 7.2057 14.2689 7.1232 14.3195L5.7582 15.1595C5.59883 15.2589 5.41883 16.2433 6.60195 17.5089Z" fill="#546E7A"/>
<path d="M12.7744 20.0022C12.5869 20.1541 12.3357 20.1203 12.3038 19.8953C12.2157 19.2728 12.2738 18.0222 11.4901 17.2384C10.7251 16.4734 9.48193 16.3609 9.48193 16.3609L14.1619 14.0547C14.1619 14.0547 15.0432 15.4141 14.5576 17.3491C14.1526 18.9484 13.4607 19.4416 12.7744 20.0022Z" fill="#0288D1"/>
<path opacity="0.2" d="M13.8975 14.8103C13.9312 14.9022 13.9669 15.0072 13.9987 15.1234C14.1262 15.5884 14.2331 16.3291 14.01 17.2103C13.7269 18.3391 13.3031 18.8228 12.8062 19.2466C12.7425 18.5303 12.6037 17.5553 11.8856 16.8391C11.6231 16.5766 11.3156 16.3778 11.0137 16.2297L13.8975 14.8103ZM14.16 14.0547L9.47998 16.3609C9.47998 16.3609 10.725 16.4753 11.4881 17.2384C12.2719 18.0222 12.2137 19.2728 12.3019 19.8953C12.3206 20.0284 12.4181 20.0959 12.5325 20.0959C12.6112 20.0959 12.6975 20.0641 12.7725 20.0022C13.4587 19.4416 14.1506 18.9484 14.5537 17.3491C15.0431 15.4122 14.16 14.0547 14.16 14.0547Z" fill="#424242"/>
<path d="M3.87561 11.3722C3.69186 11.5297 3.75748 11.8109 3.98248 11.8428C4.60498 11.9309 5.85561 11.8728 6.63936 12.6565C7.40436 13.4215 7.56373 14.5053 7.56373 14.5053L9.82498 9.7184C9.82498 9.7184 8.62873 9.15778 6.88873 9.60965C5.68873 9.92278 4.49811 10.8359 3.87561 11.3722Z" fill="#0288D1"/>
<path opacity="0.2" d="M8.23869 9.99609C8.55182 9.99609 8.82182 10.0298 9.03556 10.0711L7.62931 13.0523C7.47932 12.7842 7.28619 12.5086 7.03682 12.2611C6.37119 11.5955 5.48619 11.4286 4.78869 11.3573C5.39432 10.8961 6.21744 10.3673 7.02744 10.1555C7.43244 10.0486 7.83931 9.99609 8.23869 9.99609ZM8.23869 9.43359C7.84307 9.43359 7.38744 9.48047 6.88869 9.60984C5.68869 9.92297 4.49994 10.8361 3.87744 11.3723C3.69369 11.5298 3.75932 11.8111 3.98432 11.843C4.60682 11.9311 5.85744 11.873 6.64119 12.6567C7.40619 13.4217 7.56557 14.5055 7.56557 14.5055L9.82494 9.71859C9.82494 9.71859 9.21744 9.43359 8.23869 9.43359Z" fill="#424242"/>
<path opacity="0.2" d="M7.17561 14.9493L9.03561 16.8093L8.44874 17.7637C8.42999 17.7655 8.40936 17.7655 8.38686 17.7655C8.20499 17.7655 7.57124 17.7187 7.01249 17.1224C6.30561 16.3668 6.19499 15.7762 6.20436 15.5455L7.17561 14.9493ZM7.21499 14.2949C7.18311 14.2949 7.15124 14.3024 7.12311 14.3174L5.75811 15.1574C5.59686 15.2568 5.41686 16.2412 6.59999 17.5068C7.20186 18.1499 7.92749 18.328 8.38499 18.328C8.62499 18.328 8.78999 18.2793 8.82374 18.223L9.66374 16.858C9.71436 16.7755 9.66748 16.6443 9.63186 16.6105L7.36686 14.3455C7.34436 14.323 7.28061 14.2949 7.21499 14.2949Z" fill="#424242"/>
<path d="M15.7632 3.4668C16.5225 3.81555 17.5463 4.41555 18.5232 5.39242C18.8682 5.73742 19.1625 6.08992 19.4176 6.43492C19.9107 7.10055 20.2482 7.73617 20.4694 8.23305C19.9763 9.52867 19.0463 11.0362 18.1369 11.9455C14.4226 15.6599 10.3201 17.7805 8.19755 16.2787C8.0738 16.1905 7.95193 16.1099 7.8413 16.0105C6.02068 14.3737 8.10568 9.68805 11.8932 5.90055C12.8438 4.94992 14.4282 3.97867 15.7632 3.4668Z" fill="url(#paint2_radial)"/>
<path d="M14.7751 10.5152C15.6967 10.5152 16.4438 9.76811 16.4438 8.84648C16.4438 7.92486 15.6967 7.17773 14.7751 7.17773C13.8534 7.17773 13.1063 7.92486 13.1063 8.84648C13.1063 9.76811 13.8534 10.5152 14.7751 10.5152Z" fill="#455A64"/>
<path opacity="0.2" d="M14.775 7.55274C15.12 7.55274 15.4463 7.68774 15.69 7.93149C15.9338 8.17524 16.0688 8.50149 16.0688 8.84649C16.0688 9.19149 15.9338 9.51774 15.69 9.76149C15.4463 10.0052 15.12 10.1402 14.775 10.1402C14.43 10.1402 14.1038 10.0052 13.86 9.76149C13.3557 9.25711 13.3557 8.43586 13.86 7.93149C14.1038 7.68774 14.4282 7.55274 14.775 7.55274ZM14.775 7.17774C14.3475 7.17774 13.92 7.34086 13.5938 7.66711C13.4386 7.82203 13.3155 8.00602 13.2316 8.20855C13.1476 8.41108 13.1044 8.62817 13.1044 8.84742C13.1044 9.06667 13.1476 9.28377 13.2316 9.4863C13.3155 9.68883 13.4386 9.87282 13.5938 10.0277C13.92 10.354 14.3475 10.5171 14.775 10.5171C15.2025 10.5171 15.63 10.354 15.9563 10.0277C16.1114 9.87282 16.2345 9.68883 16.3185 9.4863C16.4025 9.28377 16.4457 9.06667 16.4457 8.84742C16.4457 8.62817 16.4025 8.41108 16.3185 8.20855C16.2345 8.00602 16.1114 7.82203 15.9563 7.66711C15.8013 7.51174 15.6172 7.38853 15.4145 7.30454C15.2118 7.22056 14.9945 7.17746 14.775 7.17774Z" fill="#424242"/>
<path d="M11.3325 13.708C11.9994 13.708 12.54 13.1674 12.54 12.5005C12.54 11.8336 11.9994 11.293 11.3325 11.293C10.6656 11.293 10.125 11.8336 10.125 12.5005C10.125 13.1674 10.6656 13.708 11.3325 13.708Z" fill="#455A64"/>
<path d="M15.7631 3.46683C15.4163 5.17871 18.4388 8.53121 20.4694 8.23308C21.1013 6.59996 21.36 5.49183 21.5325 3.58496C21.6206 2.61933 21.3375 2.34371 20.4431 2.44871C18.0713 2.72621 17.1338 2.90621 15.7631 3.46683Z" fill="#E53935"/>
<path opacity="0.2" d="M20.7638 2.99121C20.8763 2.99121 20.9326 3.00434 20.9532 3.01184C20.9682 3.04559 21.0057 3.17684 20.9738 3.53496C20.8069 5.38184 20.5669 6.43184 19.9463 8.03309C19.47 9.27996 18.5625 10.7256 17.7394 11.5487C14.8688 14.4193 11.8538 16.2043 9.87005 16.2043C9.33568 16.2043 8.88193 16.075 8.52193 15.82L8.46005 15.7768C8.36443 15.7112 8.2838 15.6531 8.2163 15.5931C7.91255 15.3193 7.7513 14.9012 7.7363 14.35C7.6838 12.3437 9.55505 9.03246 12.2888 6.29871C13.1457 5.44184 14.6569 4.49309 15.9619 3.99434L15.9732 3.98871C17.2988 3.44684 18.2213 3.27621 20.5051 3.00809C20.6044 2.99684 20.6907 2.99121 20.7638 2.99121ZM20.7638 2.42871C20.6663 2.42871 20.5613 2.43621 20.4432 2.44934C18.0713 2.72684 17.1338 2.90684 15.7632 3.46746C14.4282 3.97746 12.8438 4.94871 11.8932 5.89934C8.10568 9.68684 6.02068 14.3725 7.8413 16.0093C7.95005 16.1068 8.07193 16.1893 8.19755 16.2775C8.6663 16.6093 9.23255 16.765 9.87005 16.765C12.1163 16.765 15.2438 14.8393 18.1388 11.9462C19.0482 11.0368 19.9782 9.52934 20.4713 8.23371C21.1032 6.60059 21.3619 5.49246 21.5344 3.58559C21.6075 2.74746 21.4051 2.42871 20.7638 2.42871Z" fill="#424242"/>
<path opacity="0.2" d="M11.3326 11.668C11.5557 11.668 11.7638 11.7542 11.9213 11.9117C12.0788 12.0692 12.1651 12.2773 12.1651 12.5005C12.1651 12.7236 12.0788 12.9317 11.9213 13.0892C11.7638 13.2467 11.5557 13.333 11.3326 13.333C11.1094 13.333 10.9013 13.2467 10.7438 13.0892C10.5863 12.9317 10.5001 12.7236 10.5001 12.5005C10.5001 12.2773 10.5863 12.0692 10.7438 11.9117C10.9032 11.7542 11.1113 11.668 11.3326 11.668ZM11.3326 11.293C11.0232 11.293 10.7157 11.4111 10.4794 11.6473C10.2534 11.8737 10.1265 12.1806 10.1265 12.5005C10.1265 12.8204 10.2534 13.1272 10.4794 13.3536C10.7157 13.5898 11.0232 13.708 11.3326 13.708C11.6419 13.708 11.9494 13.5898 12.1857 13.3536C12.4117 13.1272 12.5386 12.8204 12.5386 12.5005C12.5386 12.1806 12.4117 11.8737 12.1857 11.6473C12.074 11.5348 11.9411 11.4454 11.7946 11.3846C11.6482 11.3238 11.4911 11.2926 11.3326 11.293Z" fill="#424242"/>
<defs>
<linearGradient id="paint0_linear" x1="8.60327" y1="18.2492" x2="2.53877" y2="18.2492" gradientUnits="userSpaceOnUse">
<stop stop-color="#FF6D00"/>
<stop offset="0.249" stop-color="#FF9B00"/>
<stop offset="0.513" stop-color="#FFC600"/>
<stop offset="0.721" stop-color="#FFE000"/>
<stop offset="0.844" stop-color="#FFEA00"/>
</linearGradient>
<linearGradient id="paint1_linear" x1="6.54657" y1="17.2419" x2="3.40689" y2="20.4771" gradientUnits="userSpaceOnUse">
<stop offset="0.004" stop-color="#C62828"/>
<stop offset="0.271" stop-color="#D75327"/>
<stop offset="0.598" stop-color="#E98126"/>
<stop offset="0.85" stop-color="#F59D25"/>
<stop offset="0.995" stop-color="#F9A825"/>
</linearGradient>
<radialGradient id="paint2_radial" cx="0" cy="0" r="1" gradientUnits="userSpaceOnUse" gradientTransform="translate(15.3676 6.09367) rotate(180) scale(6.83869)">
<stop offset="0.011" stop-color="#F5F5F5"/>
<stop offset="1" stop-color="#BDBDBD"/>
</radialGradient>
</defs>
</svg>
