<svg width="18" height="16" viewBox="0 0 18 16" fill="none" xmlns="http://www.w3.org/2000/svg">
<path d="M8.0722 0.791808C8.4522 0.0225223 9.55006 0.0225223 9.92935 0.791808L11.8522 4.68681L16.1501 5.31109C17.0001 5.43467 17.3386 6.47895 16.7243 7.07824L13.6136 10.1097L14.3479 14.3904C14.4936 15.2361 13.6051 15.8811 12.8458 15.4818L9.00006 13.4604L5.15649 15.4818C4.39649 15.8818 3.50863 15.2361 3.65363 14.3904L4.38792 10.1097L1.2772 7.07824C0.662919 6.47824 1.0022 5.43538 1.85149 5.31109L6.14935 4.68681L8.07149 0.791808H8.0722ZM9.00078 1.33109L7.10292 5.17752C7.02857 5.3281 6.91872 5.45834 6.78283 5.55701C6.64695 5.65569 6.48911 5.71985 6.32292 5.74395L2.07792 6.36109L5.14935 9.35538C5.39363 9.59324 5.50506 9.93609 5.4472 10.2718L4.7222 14.5004L8.51935 12.504C8.66803 12.4257 8.8335 12.3849 9.00149 12.3849C9.16948 12.3849 9.33495 12.4257 9.48363 12.504L13.2801 14.4997L12.5551 10.2718C12.4972 9.93609 12.6086 9.59324 12.8529 9.35538L15.9243 6.36109L11.6793 5.74395C11.5132 5.71985 11.3553 5.65569 11.2194 5.55701C11.0835 5.45834 10.9737 5.3281 10.8993 5.17752L9.00149 1.33109H9.00078Z" fill="#FDAB33"/>
</svg>
