<svg width="24" height="24" viewBox="0 0 24 24" fill="none" xmlns="http://www.w3.org/2000/svg">
<path d="M21.333 4H2.66634C2.31272 4 1.97358 4.14048 1.72353 4.39052C1.47348 4.64057 1.33301 4.97971 1.33301 5.33333V18.6667C1.33301 19.0203 1.47348 19.3594 1.72353 19.6095C1.97358 19.8595 2.31272 20 2.66634 20H12.6663L13.0463 19.5333L13.4997 19H7.99968H2.49968V5H21.4997V11.04C22.0062 11.3679 22.2897 11.7753 22.6663 12.2467V5.33333C22.6663 4.97971 22.5259 4.64057 22.2758 4.39052C22.0258 4.14048 21.6866 4 21.333 4Z" fill="#708090"/>
<path d="M5 8H16V9H5V8Z" fill="#708090"/>
<path d="M4.66699 10.667H12.0003V11.667H4.66699V10.667Z" fill="#708090"/>
<path d="M4.66699 15.333H11.3337V16.333H4.66699V15.333Z" fill="#708090"/>
<path d="M18.3069 11.4865C17.4538 11.4797 16.6184 11.7304 15.9101 12.2059C15.2017 12.6814 14.6533 13.3595 14.3365 14.1516C14.0196 14.9438 13.9491 15.813 14.1341 16.6459C14.3191 17.4787 14.7511 18.2363 15.3735 18.8198L14.0802 20.3998L14.6802 22.8065L17.1202 19.8331C17.8926 20.0615 18.7145 20.0615 19.4869 19.8331L21.9269 22.8065L22.5269 20.3998L21.2335 18.8198C21.856 18.2363 22.2879 17.4787 22.473 16.6459C22.658 15.813 22.5875 14.9438 22.2706 14.1516C21.9538 13.3595 21.4053 12.6814 20.697 12.2059C19.9886 11.7304 19.1533 11.4797 18.3002 11.4865H18.3069ZM18.3069 18.6065C17.7403 18.5986 17.1888 18.4234 16.7216 18.1029C16.2544 17.7824 15.8923 17.331 15.6809 16.8053C15.4696 16.2796 15.4184 15.7032 15.5337 15.1485C15.6491 14.5937 15.9258 14.0855 16.3292 13.6877C16.7326 13.2898 17.2446 13.0201 17.8009 12.9124C18.3571 12.8048 18.9328 12.864 19.4555 13.0826C19.9782 13.3012 20.4246 13.6694 20.7386 14.141C21.0526 14.6126 21.2201 15.1666 21.2202 15.7331C21.2132 16.4999 20.9027 17.2327 20.3567 17.7712C19.8107 18.3097 19.0737 18.61 18.3069 18.6065Z" fill="#708090"/>
</svg>
