<svg width="24" height="24" viewBox="0 0 24 24" fill="none" xmlns="http://www.w3.org/2000/svg">
<path d="M15.9896 6.84375C16.0265 6.90774 16.0756 6.96382 16.1342 7.0088C16.1928 7.05378 16.2597 7.08677 16.3311 7.10589C16.4024 7.12501 16.4769 7.12988 16.5501 7.12023C16.6234 7.11057 16.694 7.08658 16.7579 7.04962L17.3142 6.72853C17.559 6.96668 17.8591 7.14032 18.1875 7.23384V7.875C18.1875 8.02418 18.2468 8.16726 18.3523 8.27275C18.4578 8.37824 18.6008 8.4375 18.75 8.4375C18.8992 8.4375 19.0423 8.37824 19.1478 8.27275C19.2533 8.16726 19.3125 8.02418 19.3125 7.875V7.23394C19.641 7.14041 19.9411 6.96678 20.1859 6.72863L20.7421 7.04962C20.8713 7.12304 21.0242 7.1424 21.1675 7.10348C21.3109 7.06457 21.433 6.97053 21.5073 6.84189C21.5815 6.71325 21.6019 6.56046 21.564 6.41686C21.526 6.27325 21.4328 6.1505 21.3046 6.07538L20.7497 5.75503C20.8334 5.42355 20.8334 5.07645 20.7497 4.74497L21.3046 4.42462C21.4328 4.3495 21.526 4.22675 21.564 4.08314C21.6019 3.93954 21.5815 3.78675 21.5073 3.65811C21.433 3.52947 21.3109 3.43543 21.1675 3.39652C21.0242 3.3576 20.8713 3.37696 20.7421 3.45038L20.1859 3.77147C19.9411 3.53332 19.641 3.35969 19.3125 3.26616V2.625C19.3125 2.47582 19.2533 2.33274 19.1478 2.22725C19.0423 2.12176 18.8992 2.0625 18.75 2.0625C18.6008 2.0625 18.4578 2.12176 18.3523 2.22725C18.2468 2.33274 18.1875 2.47582 18.1875 2.625V3.26606C17.8591 3.35959 17.559 3.53322 17.3142 3.77138L16.7579 3.45038C16.6288 3.37696 16.4759 3.3576 16.3325 3.39652C16.1892 3.43543 16.0671 3.52947 15.9928 3.65811C15.9185 3.78675 15.8981 3.93954 15.9361 4.08314C15.9741 4.22675 16.0673 4.3495 16.1954 4.42462L16.7503 4.74497C16.6666 5.07645 16.6666 5.42355 16.7503 5.75503L16.1954 6.07538C16.0662 6.14997 15.972 6.27283 15.9334 6.41693C15.8948 6.56102 15.915 6.71456 15.9896 6.84375ZM18.75 4.3125C18.9354 4.3125 19.1167 4.36748 19.2709 4.4705C19.425 4.57351 19.5452 4.71993 19.6162 4.89123C19.6871 5.06254 19.7057 5.25104 19.6695 5.4329C19.6333 5.61475 19.5441 5.7818 19.4129 5.91291C19.2818 6.04402 19.1148 6.13331 18.9329 6.16949C18.7511 6.20566 18.5626 6.18709 18.3913 6.11614C18.22 6.04518 18.0735 5.92502 17.9705 5.77085C17.8675 5.61668 17.8125 5.43542 17.8125 5.25C17.8128 5.00144 17.9117 4.76314 18.0874 4.58739C18.2632 4.41163 18.5015 4.31277 18.75 4.3125ZM21.3766 20.7362C21.3127 20.7732 21.2421 20.7973 21.1689 20.807C21.0956 20.8167 21.0212 20.8119 20.9498 20.7929C20.8784 20.7738 20.8115 20.7409 20.7529 20.6959C20.6942 20.651 20.645 20.5949 20.6081 20.531C19.7354 19.0203 18.4806 17.7659 16.9696 16.8938C15.4586 16.0217 13.7448 15.5626 12.0002 15.5626C10.2556 15.5625 8.54171 16.0216 7.03074 16.8937C5.51976 17.7658 4.26488 19.0202 3.39218 20.5308C3.31747 20.6599 3.19451 20.7541 3.05037 20.7926C2.90623 20.831 2.75271 20.8107 2.62358 20.736C2.49444 20.6612 2.40028 20.5383 2.36181 20.3941C2.32333 20.25 2.34369 20.0965 2.4184 19.9673C3.8712 17.4654 6.24263 15.6289 9.02844 14.8482C7.71347 14.1807 6.66174 13.0897 6.04292 11.7511C5.42411 10.4126 5.27431 8.90458 5.6177 7.47044C5.96109 6.03631 6.77763 4.75968 7.93558 3.84655C9.09353 2.93342 10.5254 2.43704 12 2.4375C12.3037 2.43748 12.607 2.45831 12.9078 2.49984C13.0556 2.52032 13.1892 2.59866 13.2792 2.71764C13.3692 2.83661 13.4083 2.98647 13.3878 3.13425C13.3673 3.28203 13.289 3.41562 13.17 3.50564C13.051 3.59566 12.9012 3.63473 12.7534 3.61425C12.5038 3.57977 12.252 3.56248 12 3.5625C11.0202 3.5628 10.0586 3.82785 9.21705 4.32964C8.37545 4.83143 7.68508 5.5513 7.21893 6.41315C6.75278 7.275 6.52818 8.24679 6.56887 9.22578C6.60955 10.2048 6.91402 11.1546 7.45007 11.9748C7.98612 12.795 8.73384 13.4551 9.61418 13.8853C10.4945 14.3155 11.4747 14.4999 12.4512 14.4189C13.4277 14.3379 14.3641 13.9945 15.1615 13.4251C15.959 12.8557 16.5877 12.0814 16.9812 11.1841C17.0412 11.0475 17.153 10.9403 17.292 10.8861C17.431 10.832 17.5859 10.8352 17.7225 10.8952C17.8591 10.9552 17.9663 11.067 18.0204 11.206C18.0746 11.345 18.0714 11.4998 18.0114 11.6364C17.4011 13.0262 16.3282 14.1615 14.9751 14.8492C17.7595 15.6305 20.1296 17.4666 21.5818 19.9675C21.6188 20.0315 21.6429 20.1021 21.6526 20.1753C21.6623 20.2486 21.6575 20.323 21.6385 20.3944C21.6194 20.4657 21.5865 20.5327 21.5415 20.5913C21.4966 20.65 21.4406 20.6992 21.3766 20.7362Z" fill="#708090"/>
</svg>
