<svg width="30" height="18" viewBox="0 0 30 18" fill="none" xmlns="http://www.w3.org/2000/svg">
<path d="M0 0H30V18H0V0Z" fill="#E41E20"/>
<path d="M12.7501 3.49805C12.5345 3.49805 12.1735 3.5543 12.1782 3.68555C11.5688 3.6068 11.5079 3.80555 11.5454 3.98555C11.6017 3.9143 11.672 3.87305 11.7282 3.8693C11.8079 3.85805 11.8923 3.88055 11.9813 3.9218C12.0654 3.96396 12.1412 4.01576 12.2063 4.07555C11.9907 4.1168 11.822 4.09055 11.6532 4.06805C11.5579 4.05179 11.4672 4.02125 11.386 3.97805C11.3157 3.94055 11.2923 3.90305 11.1845 3.8168C11.0579 3.7118 10.922 3.7418 10.9642 3.90305C11.0626 4.05305 11.2267 4.12055 11.4329 4.15055C11.5313 4.1618 11.6813 4.18805 11.8501 4.18805C12.0188 4.18805 12.2063 4.1693 12.3095 4.18805C12.2485 4.21805 12.1782 4.2743 12.0376 4.29305C11.897 4.31555 11.686 4.22555 11.5548 4.20305C11.5688 4.2893 11.7095 4.3718 11.9813 4.4168C12.4313 4.4918 12.8017 4.5518 13.0501 4.66055C13.2466 4.74818 13.42 4.86532 13.561 5.00555C13.7813 5.2118 13.7954 5.37305 13.8048 5.41055C13.8517 5.74055 13.7063 5.92805 13.4345 5.98805C13.3032 6.0143 13.0595 5.9618 12.9751 5.8793C12.8813 5.7968 12.8017 5.6543 12.8251 5.4293C12.8485 5.3468 12.9704 5.11805 12.8673 5.07305C12.3785 4.85817 11.8728 4.66902 11.3532 4.5068C11.236 4.4693 11.1423 4.5968 11.1048 4.6493C10.7587 4.6107 10.4276 4.51091 10.1357 4.35718C9.84385 4.20345 9.59842 3.99964 9.41728 3.76055C9.22041 3.47555 8.8876 3.76055 8.94385 4.0343C9.03291 4.3343 9.31885 4.5518 9.66572 4.7093C10.0173 4.86305 10.4626 5.0168 10.9079 5.0093C11.1517 5.0468 11.147 5.2943 10.861 5.34305C10.2938 5.34305 9.83916 5.33555 9.4126 5.00555C9.08916 4.7693 8.91103 5.05055 9.0001 5.20805C9.15947 5.6993 10.036 5.83805 10.922 5.68055C11.2688 5.63555 11.0626 5.92805 10.9688 5.9318C10.5938 6.14555 9.93291 6.3518 9.34697 5.9318C9.07978 5.7668 8.89697 5.9018 9.0001 6.13805C9.25791 6.7568 10.2517 6.62555 10.9313 6.32555C11.1048 6.2468 11.2642 6.4268 11.0532 6.56555C10.2048 7.03805 9.78291 7.04555 9.39853 6.86555C8.92041 6.7118 8.88291 7.13555 9.16416 7.27805C9.47822 7.42805 10.2798 7.31555 10.8704 7.01555C11.1235 6.86555 11.1329 7.10179 10.9735 7.19554C10.2751 7.67929 9.99853 7.8068 9.27197 7.72804C8.91103 7.70554 8.91572 8.06179 9.19697 8.20054C9.58603 8.39179 10.3454 8.07679 10.9313 7.68304C11.1798 7.57804 11.222 7.75054 11.1001 7.95679C10.8406 8.25052 10.4879 8.48354 10.0782 8.63179C9.7501 8.73304 9.44072 8.71804 9.22041 8.65804C8.94853 8.58304 8.91572 8.80804 9.06572 9.01054C9.15478 9.13429 9.5251 9.17179 9.92822 9.05929C10.3313 8.94679 10.7626 8.67679 11.0579 8.36554C11.3157 8.18179 11.2876 8.42554 11.1657 8.59804C10.5751 9.34804 10.0313 9.62554 9.31416 9.58054C9.0001 9.53554 8.9251 9.73054 9.12666 9.91804C9.48291 10.1505 9.92353 10.143 10.3173 9.91054C10.6595 9.64804 11.3204 9.07054 11.6673 8.76304C11.911 8.60929 11.9907 8.76304 11.9157 9.07804C11.8501 9.25804 11.6907 9.45304 11.2454 9.58804C10.9407 9.72679 11.1704 9.91804 11.3954 9.92554C11.522 9.92554 11.7751 9.80554 11.972 9.63304C12.2251 9.40054 12.2438 9.24679 12.3845 8.88679C12.5157 8.71429 12.7548 8.79679 12.7548 8.97679C12.6376 9.33679 12.5438 9.40054 12.3095 9.54679C12.0892 9.71554 12.4642 9.77179 12.5907 9.70054C12.9563 9.50554 13.0876 9.25054 13.2095 9.01804C13.3032 8.85304 13.5563 8.93179 13.4345 9.20554C13.1532 9.85804 12.6845 10.113 11.8735 10.248C11.7938 10.2593 11.7423 10.2968 11.7704 10.3718L12.0985 10.6343C11.597 10.7543 11.1892 10.8218 10.6829 10.9343L9.98916 10.5668C9.92822 10.4468 9.89541 10.2593 9.52978 10.3905C9.28603 10.3005 9.16885 10.3343 9.03291 10.428C9.22978 10.428 9.31416 10.473 9.39385 10.5443C9.49697 10.758 9.73135 10.7805 9.97041 10.7205C10.1251 10.8218 10.2048 10.9043 10.3642 11.0093L9.58135 10.9905C9.3001 10.7543 9.08447 10.7655 8.8876 10.953C8.73291 10.9718 8.67197 10.9718 8.56885 11.118C8.72822 11.0655 8.83135 11.0505 8.90166 11.1068C9.19697 11.2455 9.38916 11.2155 9.53447 11.1068L10.3548 11.148C10.2517 11.223 10.111 11.2605 10.0032 11.328C9.58135 11.2305 9.35635 11.3655 9.28135 11.6393C9.2221 11.749 9.20261 11.8699 9.2251 11.988C9.2626 11.8755 9.33291 11.7818 9.45478 11.7255C9.82978 11.8005 9.97041 11.6768 9.99385 11.4968C10.1813 11.3768 10.4532 11.3505 10.636 11.2305C10.8517 11.283 10.9548 11.3168 11.1704 11.373C11.2454 11.5605 11.4188 11.6318 11.7001 11.583C12.0282 11.5905 11.972 11.703 12.0001 11.7893C12.0938 11.6655 12.0892 11.5418 11.8829 11.4293C11.8079 11.268 11.6392 11.193 11.4235 11.2868C11.2173 11.2418 11.1657 11.1743 10.9595 11.1255C11.4751 10.9943 11.8407 10.9643 12.3563 10.833L12.7173 11.088C12.7876 11.1218 12.8532 11.1293 12.8954 11.088C13.2188 10.713 13.3642 10.3868 13.6595 10.1393C13.7767 10.0343 13.922 9.89929 14.0813 9.86554C14.161 9.84679 14.2595 9.85804 14.3251 9.91429C14.386 9.96679 14.4376 10.068 14.4188 10.2218C14.386 10.4355 14.3204 10.5068 14.2454 10.6343C14.1657 10.7655 14.0767 10.8443 13.9782 10.9455C13.7907 11.1443 13.5376 11.2605 13.3876 11.3393C13.0876 11.493 12.9657 11.4255 12.7313 11.4143C12.4313 11.4405 12.3563 11.5568 12.6001 11.718C12.8251 11.8155 13.0313 11.8268 13.2001 11.8005C13.3407 11.778 13.5095 11.6318 13.6313 11.553C13.7626 11.4293 13.9876 11.5755 13.8329 11.7218C13.5563 11.9843 13.2845 12.1568 12.9423 12.153C12.5813 12.1905 12.6517 12.3518 12.886 12.4305C13.3173 12.5693 13.7017 12.3068 13.8985 12.1305C14.0485 11.9993 14.1563 11.9955 14.1329 12.2018C13.9782 12.573 13.7767 12.7155 13.4392 12.7343C13.1673 12.7118 13.1626 12.8843 13.3642 12.9968C13.8142 13.2443 14.1423 12.8168 14.297 12.5618C14.4048 12.3293 14.5735 12.438 14.5923 12.6293C14.5923 12.888 14.4517 13.0943 14.0626 13.3568C14.3579 13.7355 14.7048 14.1218 15.0001 14.5005L15.9001 6.47555L15.0001 5.2118C14.9063 5.1443 14.5876 4.8443 14.5079 4.7993C14.4751 4.7768 14.461 4.7618 14.5032 4.7468C14.5454 4.7318 14.6438 4.7168 14.7142 4.7093C14.5267 4.55555 14.3579 4.5068 13.997 4.4243C14.086 4.3943 14.1704 4.4093 14.4329 4.4018C14.2718 4.22866 14.0523 4.09595 13.8001 4.0193C13.997 3.9068 14.0345 3.8993 14.2313 3.76805C13.9208 3.74885 13.6141 3.70104 13.3173 3.62555C13.14 3.55816 12.9499 3.51506 12.7548 3.49805H12.7501ZM12.7876 3.81305C12.9657 3.81305 13.0735 3.8618 13.0735 3.9218C13.0735 3.9818 12.9657 4.03055 12.7876 4.03055C12.6095 4.03055 12.497 3.9743 12.497 3.91805C12.497 3.85805 12.6095 3.81305 12.7876 3.81305Z" fill="#0F1B2B"/>
<path d="M0.5 2C0.5 1.17157 1.17157 0.5 2 0.5H28C28.8284 0.5 29.5 1.17157 29.5 2V16C29.5 16.8284 28.8284 17.5 28 17.5H2C1.17157 17.5 0.5 16.8284 0.5 16V2Z" stroke="#9A9A9A" stroke-opacity="0.6"/>
</svg>
