<svg width="24" height="24" viewBox="0 0 24 24" fill="none" xmlns="http://www.w3.org/2000/svg">
<path d="M20.1598 9.59977H19.1998V7.19977C19.1998 6.91177 19.0078 6.71977 18.7198 6.71977H5.27984C4.99184 6.71977 4.79984 6.91177 4.79984 7.19977V9.59977H3.83984V7.19977C3.83984 6.38377 4.46384 5.75977 5.27984 5.75977H18.7198C19.5358 5.75977 20.1598 6.38377 20.1598 7.19977V9.59977Z" fill="#40659E"/>
<path d="M17.7598 19.2001H6.2398C5.4238 19.2001 4.7998 18.5761 4.7998 17.7601V9.6001H5.7598V17.7601C5.7598 18.0481 5.9518 18.2401 6.2398 18.2401H17.7598C18.0478 18.2401 18.2398 18.0481 18.2398 17.7601V9.6001H19.1998V17.7601C19.1998 18.5761 18.5758 19.2001 17.7598 19.2001Z" fill="#40659E"/>
<path d="M13.9201 12.48H10.0801C9.7921 12.48 9.6001 12.288 9.6001 12C9.6001 11.712 9.7921 11.52 10.0801 11.52H13.9201C14.2081 11.52 14.4001 11.712 14.4001 12C14.4001 12.288 14.2081 12.48 13.9201 12.48Z" fill="#40659E"/>
<path d="M3.83984 8.64014H20.1598V9.60014H3.83984V8.64014Z" fill="#40659E"/>
</svg>
