<svg width="39" height="22" viewBox="0 0 39 22" fill="none" xmlns="http://www.w3.org/2000/svg">
<path d="M26.7291 0.302091L26.1215 0.90967C25.7188 1.31237 25.7188 1.96532 26.1215 2.36811L33.334 9.53907H1.03125C0.461742 9.53907 0 10.0008 0 10.5703V11.4297C0 11.9992 0.461742 12.4609 1.03125 12.4609H33.334L26.1215 19.6319C25.7188 20.0346 25.7188 20.6876 26.1215 21.0903L26.7291 21.6979C27.1318 22.1006 27.7848 22.1006 28.1875 21.6979L38.1979 11.7292C38.6006 11.3265 38.6006 10.6735 38.1979 10.2707L28.1875 0.302091C27.7848 -0.100697 27.1318 -0.100697 26.7291 0.302091Z" fill="#44546A" fill-opacity="0.5"/>
</svg>
