<svg width="29" height="17" viewBox="0 0 29 17" fill="none" xmlns="http://www.w3.org/2000/svg">
<path d="M8.50833 16.4175L8.50826 16.4176C8.40118 16.5275 8.23299 16.5275 8.12591 16.4176L8.12514 16.4168L0.585575 8.71452C0.585485 8.71443 0.585396 8.71434 0.585306 8.71425C0.47154 8.59721 0.471596 8.40271 0.585281 8.2858C0.585367 8.28571 0.585453 8.28562 0.585539 8.28553L8.12514 0.583143L8.12587 0.582397C8.23296 0.472534 8.40121 0.472534 8.5083 0.582397L8.50833 0.582422L8.96598 1.05185C8.96601 1.05187 8.96602 1.05189 8.96605 1.05191C9.07999 1.1689 9.08003 1.36348 8.96638 1.48048C8.96626 1.4806 8.96614 1.48073 8.96602 1.48085L3.53419 7.02102L2.70077 7.87107H3.89121L28.2232 7.87107C28.3641 7.87107 28.5 7.9919 28.5 8.16794V8.83201C28.5 9.00805 28.3641 9.12888 28.2232 9.12888L3.89121 9.12888H2.70077L3.53419 9.97893L8.96598 15.5191C8.96613 15.5192 8.96628 15.5194 8.96642 15.5195C9.0801 15.6367 9.07991 15.8312 8.96602 15.9481L8.50833 16.4175Z" fill="#0F1B2B" stroke="#0F1B2B"/>
</svg>
