<svg width="24" height="26" viewBox="0 0 24 26" fill="none" xmlns="http://www.w3.org/2000/svg">
<path d="M15.8091 22.9057C14.7932 24.4295 13.5234 25.1914 11.9996 25.1914C10.4758 25.1914 9.20593 24.4295 8.19006 22.9057M19.7474 20.62H4.25173C2.86253 20.62 1.73636 19.4938 1.73636 18.1046C1.73636 17.6487 1.86026 17.2014 2.09482 16.8105C3.59047 14.3177 4.38053 11.4653 4.38053 8.5583V6.90569C4.38053 3.53939 7.10946 0.810455 10.4758 0.810455H13.5234C16.8897 0.810455 19.6186 3.53939 19.6186 6.90569V8.5583C19.6186 11.4653 20.4087 14.3177 21.9043 16.8105C22.6191 18.0017 22.2328 19.5468 21.0416 20.2615C20.6507 20.4961 20.2033 20.62 19.7474 20.62V20.62Z" stroke="#44546A" stroke-width="1.5" stroke-linecap="round" stroke-linejoin="round"/>
</svg>
