<svg width="20" height="20" viewBox="0 0 20 20" fill="none" xmlns="http://www.w3.org/2000/svg">
<path d="M12.3808 16.1906C11.7458 17.143 10.9522 17.6191 9.9998 17.6191C9.04742 17.6191 8.25377 17.143 7.61885 16.1906M14.8422 14.762H5.1574C4.28914 14.762 3.58529 14.0581 3.58529 13.1899C3.58529 12.905 3.66273 12.6254 3.80932 12.381C4.74411 10.8231 5.23789 9.04034 5.23789 7.22345V6.19057C5.23789 4.08663 6.94348 2.38105 9.04742 2.38105H10.9522C13.0561 2.38105 14.7617 4.08663 14.7617 6.19057V7.22345C14.7617 9.04034 15.2555 10.8231 16.1903 12.381C16.637 13.1256 16.3956 14.0912 15.651 14.538C15.4067 14.6846 15.1271 14.762 14.8422 14.762V14.762Z" stroke="#40659E" stroke-linecap="round" stroke-linejoin="round"/>
</svg>
