<svg width="22" height="26" viewBox="0 0 22 26" fill="none" xmlns="http://www.w3.org/2000/svg">
<path d="M14.8089 22.9057C13.793 24.4295 12.5231 25.1914 10.9993 25.1914C9.47553 25.1914 8.20569 24.4295 7.18981 22.9057M18.7472 20.62H3.25149C1.86229 20.62 0.736117 19.4938 0.736117 18.1046C0.736117 17.6487 0.860018 17.2014 1.09457 16.8105C2.59023 14.3177 3.38029 11.4653 3.38029 8.5583V6.90569C3.38029 3.53939 6.10922 0.810455 9.47553 0.810455H12.5231C15.8895 0.810455 18.6184 3.53939 18.6184 6.90569V8.5583C18.6184 11.4653 19.4084 14.3177 20.9041 16.8105C21.6188 18.0017 21.2326 19.5468 20.0413 20.2615C19.6504 20.4961 19.2031 20.62 18.7472 20.62V20.62Z" stroke="#40659E" stroke-linecap="round" stroke-linejoin="round"/>
</svg>
