<svg width="46" height="46" viewBox="0 0 46 46" fill="none" xmlns="http://www.w3.org/2000/svg">
<g clip-path="url(#clip0)">
<path d="M23 46C24.525 46 25.9875 45.3942 27.0659 44.3159C28.1442 43.2375 28.75 41.775 28.75 40.25H17.25C17.25 41.775 17.8558 43.2375 18.9341 44.3159C20.0125 45.3942 21.475 46 23 46Z" fill="#40659E"/>
<path fill-rule="evenodd" clip-rule="evenodd" d="M23 5.5167L20.7086 5.97958C18.1095 6.50916 15.7732 7.9205 14.0951 9.97474C12.417 12.029 11.5003 14.5999 11.5 17.2525C11.5 19.058 11.1147 23.5688 10.1804 28.0107C9.72037 30.2158 9.09938 32.513 8.27425 34.5025H37.7257C36.9006 32.513 36.2825 30.2187 35.8196 28.0107C34.8853 23.5688 34.5 19.058 34.5 17.2525C34.4991 14.6004 33.582 12.0302 31.904 9.97651C30.2259 7.92286 27.89 6.51193 25.2914 5.98245L23 5.51383V5.5167ZM40.8825 34.5025C41.5236 35.7876 42.2654 36.8053 43.125 37.3775H2.875C3.73462 36.8053 4.47637 35.7876 5.1175 34.5025C7.705 29.3275 8.625 19.7825 8.625 17.2525C8.625 10.295 13.57 4.48745 20.1394 3.16208C20.0992 2.76232 20.1434 2.35859 20.2688 1.97693C20.3943 1.59526 20.5984 1.24414 20.868 0.946196C21.1375 0.648255 21.4665 0.410114 21.8337 0.24713C22.2009 0.0841462 22.5982 -6.10352e-05 23 -6.10352e-05C23.4018 -6.10352e-05 23.7991 0.0841462 24.1663 0.24713C24.5335 0.410114 24.8625 0.648255 25.132 0.946196C25.4016 1.24414 25.6057 1.59526 25.7312 1.97693C25.8566 2.35859 25.9008 2.76232 25.8606 3.16208C29.1102 3.82304 32.0315 5.58674 34.1298 8.15452C36.2281 10.7223 37.3746 13.9364 37.375 17.2525C37.375 19.7825 38.295 29.3275 40.8825 34.5025Z" fill="#40659E"/>
</g>
<defs>
<clipPath id="clip0">
<rect width="46" height="46" fill="white"/>
</clipPath>
</defs>
</svg>
