<svg width="16" height="16" viewBox="0 0 16 16" fill="none" xmlns="http://www.w3.org/2000/svg">
<path fill-rule="evenodd" clip-rule="evenodd" d="M7.99986 15C7.86725 15 7.74007 14.9473 7.6463 14.8536C7.55254 14.7598 7.49986 14.6326 7.49986 14.5L7.49986 2.707L4.35386 5.854C4.25997 5.94789 4.13263 6.00063 3.99986 6.00063C3.86708 6.00063 3.73974 5.94789 3.64586 5.854C3.55197 5.76011 3.49923 5.63278 3.49923 5.5C3.49923 5.36722 3.55197 5.23989 3.64586 5.146L7.64586 1.146C7.6923 1.09944 7.74748 1.06249 7.80822 1.03729C7.86897 1.01208 7.93409 0.999106 7.99986 0.999106C8.06562 0.999106 8.13074 1.01208 8.19149 1.03729C8.25224 1.06249 8.30741 1.09944 8.35386 1.146L12.3539 5.146C12.4477 5.23989 12.5005 5.36722 12.5005 5.5C12.5005 5.63278 12.4477 5.76011 12.3539 5.854C12.26 5.94789 12.1326 6.00063 11.9999 6.00063C11.8671 6.00063 11.7397 5.94789 11.6459 5.854L8.49986 2.707L8.49986 14.5C8.49986 14.6326 8.44718 14.7598 8.35341 14.8536C8.25964 14.9473 8.13247 15 7.99986 15Z" fill="#75B685"/>
</svg>
