<svg width="46" height="46" viewBox="0 0 46 46" fill="none" xmlns="http://www.w3.org/2000/svg">
<path fill-rule="evenodd" clip-rule="evenodd" d="M5.75 10.0625C5.75 9.68125 5.90145 9.31562 6.17103 9.04603C6.44062 8.77645 6.80625 8.625 7.1875 8.625H38.8125C39.1937 8.625 39.5594 8.77645 39.829 9.04603C40.0985 9.31562 40.25 9.68125 40.25 10.0625C40.25 10.4437 40.0985 10.8094 39.829 11.079C39.5594 11.3485 39.1937 11.5 38.8125 11.5H7.1875C6.80625 11.5 6.44062 11.3485 6.17103 11.079C5.90145 10.8094 5.75 10.4437 5.75 10.0625ZM20.125 18.6875C20.125 18.3063 20.2765 17.9406 20.546 17.671C20.8156 17.4015 21.1813 17.25 21.5625 17.25H38.8125C39.1937 17.25 39.5594 17.4015 39.829 17.671C40.0985 17.9406 40.25 18.3063 40.25 18.6875C40.25 19.0687 40.0985 19.4344 39.829 19.704C39.5594 19.9735 39.1937 20.125 38.8125 20.125H21.5625C21.1813 20.125 20.8156 19.9735 20.546 19.704C20.2765 19.4344 20.125 19.0687 20.125 18.6875ZM20.125 27.3125C20.125 26.9313 20.2765 26.5656 20.546 26.296C20.8156 26.0264 21.1813 25.875 21.5625 25.875H38.8125C39.1937 25.875 39.5594 26.0264 39.829 26.296C40.0985 26.5656 40.25 26.9313 40.25 27.3125C40.25 27.6937 40.0985 28.0594 39.829 28.329C39.5594 28.5986 39.1937 28.75 38.8125 28.75H21.5625C21.1813 28.75 20.8156 28.5986 20.546 28.329C20.2765 28.0594 20.125 27.6937 20.125 27.3125ZM5.75 35.9375C5.75 35.5563 5.90145 35.1906 6.17103 34.921C6.44062 34.6514 6.80625 34.5 7.1875 34.5H38.8125C39.1937 34.5 39.5594 34.6514 39.829 34.921C40.0985 35.1906 40.25 35.5563 40.25 35.9375C40.25 36.3187 40.0985 36.6844 39.829 36.954C39.5594 37.2236 39.1937 37.375 38.8125 37.375H7.1875C6.80625 37.375 6.44062 37.2236 6.17103 36.954C5.90145 36.6844 5.75 36.3187 5.75 35.9375Z" fill="#40659E"/>
<path d="M10.7352 18.262C10.2985 18.5085 9.87169 18.7722 9.45588 19.0526C9.09156 19.2989 8.75766 19.5875 8.46113 19.9123C8.1636 20.2242 7.91889 20.5825 7.73662 20.9731C7.56988 21.344 7.44913 21.8213 7.383 22.4049H8.19375C8.8895 22.4049 9.43287 22.5774 9.82675 22.9281C10.2292 23.2645 10.4305 23.7619 10.4305 24.426C10.4218 24.9209 10.2303 25.395 9.89287 25.7571C9.54787 26.1596 9.062 26.3609 8.44675 26.3609C7.48075 26.3609 6.78788 26.0504 6.37388 25.4207C5.957 24.7796 5.75 23.943 5.75 22.9109C5.75 22.1806 5.90813 21.5165 6.2215 20.9214C6.53775 20.3176 6.91725 19.7771 7.36575 19.3056C7.82575 18.8226 8.3145 18.4144 8.832 18.0751C9.3495 17.7388 9.78075 17.4628 10.1286 17.25L10.7352 18.262ZM16.9683 18.262C16.5315 18.5085 16.1047 18.7722 15.6889 19.0526C15.3246 19.2989 14.9907 19.5875 14.6941 19.9123C14.3693 20.2573 14.122 20.6195 13.9552 20.9904C13.7742 21.443 13.66 21.9194 13.616 22.4049H14.4268C15.1225 22.4049 15.6659 22.5774 16.0597 22.9281C16.4622 23.2645 16.6635 23.7619 16.6635 24.426C16.6548 24.9209 16.4633 25.395 16.1259 25.7571C15.7809 26.1596 15.295 26.3609 14.6769 26.3609C13.7137 26.3609 13.0209 26.0504 12.6069 25.4207C12.19 24.7796 11.983 23.943 11.983 22.9109C11.983 22.1806 12.1411 21.5165 12.4545 20.9214C12.7707 20.3176 13.1502 19.7771 13.5988 19.3056C14.0588 18.8226 14.5475 18.4144 15.065 18.0751C15.5825 17.7388 16.0138 17.4628 16.3616 17.25L16.9683 18.262Z" fill="#40659E"/>
</svg>
