<svg width="18" height="18" viewBox="0 0 18 18" fill="none" xmlns="http://www.w3.org/2000/svg">
<path d="M7.125 0.875C4.71563 0.875 2.75 2.84063 2.75 5.25C2.75 6.75625 3.51875 8.09375 4.68375 8.88313C2.45438 9.83937 0.875 12.0519 0.875 14.625H2.125C2.125 11.8562 4.35625 9.625 7.125 9.625C8.46562 9.625 9.66438 10.1744 10.5625 11.0312L7.61312 13.9806L7.57438 14.1756L7.14437 16.3831L6.94938 17.3006L7.8675 17.1056L10.0738 16.6756L10.2694 16.6369L16.5781 10.3281C17.3031 9.60312 17.3031 8.39687 16.5781 7.67188C16.2282 7.32482 15.7564 7.12849 15.2636 7.12487C14.7708 7.12124 14.2962 7.31063 13.9412 7.6525L11.4613 10.1331C10.9103 9.6054 10.2682 9.18189 9.56625 8.88313C10.1609 8.48168 10.6482 7.94059 10.9853 7.30722C11.3224 6.67385 11.4991 5.9675 11.5 5.25C11.5 2.84063 9.53438 0.875 7.125 0.875ZM7.125 2.125C8.85813 2.125 10.25 3.51688 10.25 5.25C10.25 6.98313 8.85813 8.375 7.125 8.375C5.39187 8.375 4 6.98313 4 5.25C4 3.51688 5.39187 2.125 7.125 2.125ZM15.25 8.375C15.4087 8.375 15.575 8.42625 15.6994 8.55062C15.7584 8.60758 15.8053 8.67584 15.8374 8.75132C15.8694 8.82681 15.886 8.90799 15.886 8.99C15.886 9.07201 15.8694 9.15319 15.8374 9.22868C15.8053 9.30416 15.7584 9.37242 15.6994 9.42937L9.64437 15.4844L8.53125 15.7188L8.76562 14.6056L14.8206 8.55062C14.945 8.42625 15.0913 8.375 15.25 8.375Z" fill="#104378"/>
</svg>
