<svg width="16" height="18" viewBox="0 0 16 18" fill="none" xmlns="http://www.w3.org/2000/svg">
<path fill-rule="evenodd" clip-rule="evenodd" d="M14.8574 14.7143V3.28571C14.8574 2.67951 14.6165 2.09812 14.1879 1.66947C13.7592 1.24082 13.1778 1 12.5716 1H3.42878C2.82257 1 2.24119 1.24082 1.81254 1.66947C1.38388 2.09812 1.14307 2.67951 1.14307 3.28571V14.7143C1.14307 15.3205 1.38388 15.9019 1.81254 16.3305C2.24119 16.7592 2.82257 17 3.42878 17H12.5716C13.1778 17 13.7592 16.7592 14.1879 16.3305C14.6165 15.9019 14.8574 15.3205 14.8574 14.7143V14.7143Z" stroke="#40659E" stroke-linecap="round" stroke-linejoin="round"/>
<path d="M4.57178 6.71436H10.2861" stroke="#40659E" stroke-linecap="round" stroke-linejoin="round"/>
<path d="M4.57178 9H11.4289" stroke="#40659E" stroke-linecap="round" stroke-linejoin="round"/>
<path d="M4.57178 11.2856H8.00035" stroke="#40659E" stroke-linecap="round" stroke-linejoin="round"/>
</svg>
