<svg width="372" height="668" viewBox="0 0 372 668" fill="none" xmlns="http://www.w3.org/2000/svg">
<g clip-path="url(#clip0_11705:7507)">
<path d="M65.1 65L65.1 663" stroke="#DCE1E3"/>
<path d="M53.94 80.7363H65.1" stroke="#DCE1E3"/>
<path d="M46.5787 83.4258C45.3091 83.4258 44.3658 83.209 43.7486 82.7754C43.1314 82.3418 42.8228 81.6641 42.8228 80.7422C42.8228 79.832 43.1236 79.1582 43.7252 78.7207C44.3306 78.2832 45.233 78.0566 46.4322 78.041H47.8795C49.1334 78.041 50.065 78.2578 50.6744 78.6914C51.2838 79.125 51.5884 79.8047 51.5884 80.7305C51.5884 81.6484 51.2935 82.3242 50.7037 82.7578C50.1177 83.1914 49.2115 83.4141 47.9849 83.4258H46.5787ZM48.0611 82.3418C48.9791 82.3418 49.647 82.2129 50.065 81.9551C50.4869 81.6973 50.6978 81.2891 50.6978 80.7305C50.6978 80.1758 50.4888 79.7715 50.0709 79.5176C49.6529 79.2637 49.0103 79.1328 48.1431 79.125H46.4088C45.4869 79.125 44.8052 79.2578 44.3638 79.5234C43.9263 79.793 43.7076 80.1992 43.7076 80.7422C43.7076 81.2773 43.9146 81.6738 44.3287 81.9316C44.7427 82.1934 45.3951 82.3301 46.2857 82.3418H48.0611Z" fill="#DCE1E3"/>
<path d="M53.94 112.211H65.1" stroke="#DCE1E3"/>
<path d="M42.94 113.113V112.023H50.1646L49.3619 109.838H50.3463L51.5123 112.943V113.113H42.94Z" fill="#DCE1E3"/>
<path d="M53.94 143.684H65.1" stroke="#DCE1E3"/>
<path d="M42.94 146.613V141.023H43.7193L47.0005 143.977C47.4966 144.414 47.899 144.715 48.2076 144.879C48.5201 145.047 48.8423 145.131 49.1744 145.131C49.6197 145.131 49.9849 144.996 50.2701 144.727C50.5552 144.457 50.6978 144.098 50.6978 143.648C50.6978 143.109 50.5435 142.689 50.2349 142.389C49.9302 142.092 49.5045 141.943 48.9576 141.943V140.859C49.7427 140.859 50.3775 141.111 50.8619 141.615C51.3463 142.123 51.5884 142.801 51.5884 143.648C51.5884 144.441 51.3795 145.068 50.9615 145.529C50.5474 145.99 49.9947 146.221 49.3033 146.221C48.4634 146.221 47.4634 145.686 46.3033 144.615L43.8248 142.33V146.613H42.94Z" fill="#DCE1E3"/>
<path d="M53.94 175.158H65.1" stroke="#DCE1E3"/>
<path d="M47.733 174.074V174.889C47.7408 175.4 47.8755 175.803 48.1373 176.096C48.399 176.389 48.7525 176.535 49.1978 176.535C50.1978 176.535 50.6978 176.037 50.6978 175.041C50.6978 174.572 50.563 174.197 50.2935 173.916C50.0279 173.639 49.6744 173.5 49.233 173.5V172.416C49.9088 172.416 50.4693 172.662 50.9146 173.154C51.3638 173.65 51.5884 174.279 51.5884 175.041C51.5884 175.846 51.3755 176.477 50.9498 176.934C50.524 177.391 49.9322 177.619 49.1744 177.619C48.8033 177.619 48.4439 177.498 48.0963 177.256C47.7486 177.018 47.4888 176.691 47.317 176.277C47.1685 176.746 46.9224 177.107 46.5787 177.361C46.2349 177.619 45.815 177.748 45.3189 177.748C44.5533 177.748 43.9459 177.498 43.4966 176.998C43.0474 176.498 42.8228 175.848 42.8228 175.047C42.8228 174.246 43.0396 173.594 43.4732 173.09C43.9068 172.59 44.4791 172.34 45.19 172.34V173.43C44.7408 173.43 44.3814 173.576 44.1119 173.869C43.8423 174.162 43.7076 174.555 43.7076 175.047C43.7076 175.57 43.8443 175.971 44.1177 176.248C44.3912 176.525 44.7838 176.664 45.2955 176.664C45.7916 176.664 46.1724 176.512 46.438 176.207C46.7037 175.902 46.8404 175.463 46.8482 174.889V174.074H47.733Z" fill="#DCE1E3"/>
<path d="M53.94 206.631H65.1" stroke="#DCE1E3"/>
<path d="M45.8052 208.547V209.73H44.9205V208.547H42.94V207.457H44.9205V203.572H45.5591L51.4713 207.393V208.547H45.8052ZM45.8052 204.803V207.457H49.9888L49.7545 207.328L45.8052 204.803Z" fill="#DCE1E3"/>
<path d="M53.94 238.105H65.1" stroke="#DCE1E3"/>
<path d="M47.2173 235.943L51.4713 236.377V240.748H50.4693V237.297L48.1431 237.039C48.3892 237.457 48.5123 237.932 48.5123 238.463C48.5123 239.24 48.2545 239.857 47.7388 240.314C47.2271 240.771 46.5338 241 45.6588 241C44.7798 241 44.0865 240.762 43.5787 240.285C43.0748 239.812 42.8228 239.15 42.8228 238.299C42.8228 237.545 43.0318 236.93 43.4498 236.453C43.8677 235.977 44.4459 235.705 45.1841 235.639V236.664C44.6959 236.73 44.3267 236.904 44.0767 237.186C43.8306 237.467 43.7076 237.838 43.7076 238.299C43.7076 238.803 43.8795 239.197 44.2232 239.482C44.567 239.771 45.0416 239.916 45.647 239.916C46.2173 239.916 46.6744 239.76 47.0181 239.447C47.3658 239.139 47.5396 238.727 47.5396 238.211C47.5396 237.738 47.4361 237.367 47.2291 237.098L46.9947 236.811L47.2173 235.943Z" fill="#DCE1E3"/>
<path d="M53.94 269.578H65.1" stroke="#DCE1E3"/>
<path d="M51.4771 271.172H50.5572V270.973C50.5416 270.129 50.2916 269.457 49.8072 268.957C49.3228 268.457 48.6412 268.168 47.7623 268.09C48.2779 268.539 48.5357 269.152 48.5357 269.93C48.5357 270.672 48.274 271.264 47.7505 271.705C47.2271 272.15 46.5513 272.373 45.7232 272.373C44.8443 272.373 44.1412 272.133 43.6138 271.652C43.0865 271.176 42.8228 270.535 42.8228 269.73C42.8228 268.914 43.1353 268.252 43.7603 267.744C44.3892 267.236 45.1978 266.982 46.1861 266.982H46.6021C48.1724 266.982 49.3716 267.316 50.1998 267.984C51.0318 268.656 51.4576 269.654 51.4771 270.979V271.172ZM47.6334 269.748C47.6334 269.377 47.522 269.035 47.2994 268.723C47.0767 268.41 46.7974 268.193 46.4615 268.072H46.063C45.3599 268.072 44.7935 268.23 44.3638 268.547C43.9341 268.863 43.7193 269.258 43.7193 269.73C43.7193 270.219 43.899 270.602 44.2584 270.879C44.6177 271.16 45.0884 271.301 45.6705 271.301C46.2564 271.301 46.7291 271.158 47.0884 270.873C47.4517 270.592 47.6334 270.217 47.6334 269.748Z" fill="#DCE1E3"/>
<path d="M53.94 301.053H65.1" stroke="#DCE1E3"/>
<path d="M50.8619 303.9L42.94 300.367V299.23L50.5806 302.752V298.135H51.4713V303.9H50.8619Z" fill="#DCE1E3"/>
<path d="M53.94 332.525H65.1" stroke="#DCE1E3"/>
<path d="M49.2447 335.039C48.8189 335.039 48.44 334.926 48.108 334.699C47.7759 334.477 47.5162 334.174 47.3287 333.791C47.1373 334.236 46.858 334.588 46.4908 334.846C46.1236 335.107 45.7076 335.238 45.2427 335.238C44.5045 335.238 43.9166 334.988 43.4791 334.488C43.0416 333.992 42.8228 333.338 42.8228 332.525C42.8228 331.705 43.0416 331.047 43.4791 330.551C43.9205 330.059 44.5084 329.812 45.2427 329.812C45.7037 329.812 46.1197 329.938 46.4908 330.188C46.8619 330.441 47.1431 330.791 47.3345 331.236C47.522 330.857 47.7818 330.559 48.1138 330.34C48.4459 330.121 48.8228 330.012 49.2447 330.012C49.9634 330.012 50.5338 330.242 50.9556 330.703C51.3775 331.164 51.5884 331.771 51.5884 332.525C51.5884 333.275 51.3775 333.881 50.9556 334.342C50.5338 334.807 49.9634 335.039 49.2447 335.039ZM45.2662 334.154C45.7427 334.154 46.1314 334.002 46.4322 333.697C46.733 333.396 46.8834 333.002 46.8834 332.514C46.8834 332.025 46.7349 331.633 46.438 331.336C46.1412 331.043 45.7505 330.896 45.2662 330.896C44.7818 330.896 44.4009 331.039 44.1236 331.324C43.8463 331.613 43.7076 332.014 43.7076 332.525C43.7076 333.033 43.8463 333.432 44.1236 333.721C44.4048 334.01 44.7857 334.154 45.2662 334.154ZM50.6978 332.525C50.6978 332.1 50.565 331.754 50.2994 331.488C50.0377 331.227 49.6802 331.096 49.2271 331.096C48.7935 331.096 48.442 331.225 48.1724 331.482C47.9068 331.744 47.774 332.092 47.774 332.525C47.774 332.959 47.9068 333.305 48.1724 333.562C48.442 333.824 48.7935 333.955 49.2271 333.955C49.6607 333.955 50.0142 333.82 50.2877 333.551C50.5611 333.281 50.6978 332.939 50.6978 332.525Z" fill="#DCE1E3"/>
<path d="M53.94 364H65.1" stroke="#DCE1E3"/>
<path d="M46.69 365.494C46.4205 365.268 46.2037 364.996 46.0396 364.68C45.8755 364.367 45.7935 364.023 45.7935 363.648C45.7935 363.156 45.9146 362.727 46.1568 362.359C46.399 361.996 46.7388 361.715 47.1763 361.516C47.6177 361.316 48.1041 361.217 48.6353 361.217C49.2056 361.217 49.7193 361.324 50.1763 361.539C50.6334 361.758 50.983 362.066 51.2252 362.465C51.4673 362.863 51.5884 363.328 51.5884 363.859C51.5884 364.703 51.272 365.367 50.6392 365.852C50.0103 366.34 49.1509 366.584 48.0611 366.584H47.7447C46.0845 366.584 44.8716 366.256 44.106 365.6C43.3443 364.943 42.9537 363.953 42.9341 362.629V362.418H43.8482V362.646C43.8638 363.541 44.0963 364.229 44.5455 364.709C44.9986 365.189 45.7134 365.451 46.69 365.494ZM46.69 363.824C46.69 364.188 46.8013 364.521 47.024 364.826C47.2466 365.135 47.522 365.359 47.8502 365.5H48.2838C48.9947 365.5 49.5728 365.346 50.0181 365.037C50.4634 364.729 50.6861 364.338 50.6861 363.865C50.6861 363.389 50.5025 363.006 50.1353 362.717C49.772 362.428 49.2916 362.283 48.6939 362.283C48.1119 362.283 47.6314 362.422 47.2525 362.699C46.8775 362.98 46.69 363.355 46.69 363.824Z" fill="#DCE1E3"/>
<path d="M53.94 395.473H65.1" stroke="#DCE1E3"/>
<path d="M42.94 393.006V391.916H50.1646L49.3619 389.73H50.3463L51.5123 392.836V393.006H42.94ZM46.5787 401.531C45.3091 401.531 44.3658 401.314 43.7486 400.881C43.1314 400.447 42.8228 399.77 42.8228 398.848C42.8228 397.938 43.1236 397.264 43.7252 396.826C44.3306 396.389 45.233 396.162 46.4322 396.146H47.8795C49.1334 396.146 50.065 396.363 50.6744 396.797C51.2838 397.23 51.5884 397.91 51.5884 398.836C51.5884 399.754 51.2935 400.43 50.7037 400.863C50.1177 401.297 49.2115 401.52 47.9849 401.531H46.5787ZM48.0611 400.447C48.9791 400.447 49.647 400.318 50.065 400.061C50.4869 399.803 50.6978 399.395 50.6978 398.836C50.6978 398.281 50.4888 397.877 50.0709 397.623C49.6529 397.369 49.0103 397.238 48.1431 397.23H46.4088C45.4869 397.23 44.8052 397.363 44.3638 397.629C43.9263 397.898 43.7076 398.305 43.7076 398.848C43.7076 399.383 43.9146 399.779 44.3287 400.037C44.7427 400.299 45.3951 400.436 46.2857 400.447H48.0611Z" fill="#DCE1E3"/>
<path d="M53.94 426.947H65.1" stroke="#DCE1E3"/>
<path d="M42.94 424.48V423.391H50.1646L49.3619 421.205H50.3463L51.5123 424.311V424.48H42.94ZM42.94 431.219V430.129H50.1646L49.3619 427.943H50.3463L51.5123 431.049V431.219H42.94Z" fill="#DCE1E3"/>
<path d="M53.94 458.42H65.1" stroke="#DCE1E3"/>
<path d="M42.94 455.953V454.863H50.1646L49.3619 452.678H50.3463L51.5123 455.783V455.953H42.94ZM42.94 464.719V459.129H43.7193L47.0005 462.082C47.4966 462.52 47.899 462.82 48.2076 462.984C48.5201 463.152 48.8423 463.236 49.1744 463.236C49.6197 463.236 49.9849 463.102 50.2701 462.832C50.5552 462.562 50.6978 462.203 50.6978 461.754C50.6978 461.215 50.5435 460.795 50.2349 460.494C49.9302 460.197 49.5045 460.049 48.9576 460.049V458.965C49.7427 458.965 50.3775 459.217 50.8619 459.721C51.3463 460.229 51.5884 460.906 51.5884 461.754C51.5884 462.547 51.3795 463.174 50.9615 463.635C50.5474 464.096 49.9947 464.326 49.3033 464.326C48.4634 464.326 47.4634 463.791 46.3033 462.721L43.8248 460.436V464.719H42.94Z" fill="#DCE1E3"/>
<path d="M53.94 489.895H65.1" stroke="#DCE1E3"/>
<path d="M42.94 487.428V486.338H50.1646L49.3619 484.152H50.3463L51.5123 487.258V487.428H42.94ZM47.733 492.18V492.994C47.7408 493.506 47.8755 493.908 48.1373 494.201C48.399 494.494 48.7525 494.641 49.1978 494.641C50.1978 494.641 50.6978 494.143 50.6978 493.146C50.6978 492.678 50.563 492.303 50.2935 492.021C50.0279 491.744 49.6744 491.605 49.233 491.605V490.521C49.9088 490.521 50.4693 490.768 50.9146 491.26C51.3638 491.756 51.5884 492.385 51.5884 493.146C51.5884 493.951 51.3755 494.582 50.9498 495.039C50.524 495.496 49.9322 495.725 49.1744 495.725C48.8033 495.725 48.4439 495.604 48.0963 495.361C47.7486 495.123 47.4888 494.797 47.317 494.383C47.1685 494.852 46.9224 495.213 46.5787 495.467C46.2349 495.725 45.815 495.854 45.3189 495.854C44.5533 495.854 43.9459 495.604 43.4966 495.104C43.0474 494.604 42.8228 493.953 42.8228 493.152C42.8228 492.352 43.0396 491.699 43.4732 491.195C43.9068 490.695 44.4791 490.445 45.19 490.445V491.535C44.7408 491.535 44.3814 491.682 44.1119 491.975C43.8423 492.268 43.7076 492.66 43.7076 493.152C43.7076 493.676 43.8443 494.076 44.1177 494.354C44.3912 494.631 44.7838 494.77 45.2955 494.77C45.7916 494.77 46.1724 494.617 46.438 494.312C46.7037 494.008 46.8404 493.568 46.8482 492.994V492.18H47.733Z" fill="#DCE1E3"/>
<path d="M53.94 521.367H65.1" stroke="#DCE1E3"/>
<path d="M42.94 518.9V517.811H50.1646L49.3619 515.625H50.3463L51.5123 518.73V518.9H42.94ZM45.8052 526.652V527.836H44.9205V526.652H42.94V525.562H44.9205V521.678H45.5591L51.4713 525.498V526.652H45.8052ZM45.8052 522.908V525.562H49.9888L49.7545 525.434L45.8052 522.908Z" fill="#DCE1E3"/>
<path d="M53.94 552.842H65.1" stroke="#DCE1E3"/>
<path d="M42.94 550.375V549.285H50.1646L49.3619 547.1H50.3463L51.5123 550.205V550.375H42.94ZM47.2173 554.049L51.4713 554.482V558.854H50.4693V555.402L48.1431 555.145C48.3892 555.562 48.5123 556.037 48.5123 556.568C48.5123 557.346 48.2545 557.963 47.7388 558.42C47.2271 558.877 46.5338 559.105 45.6588 559.105C44.7798 559.105 44.0865 558.867 43.5787 558.391C43.0748 557.918 42.8228 557.256 42.8228 556.404C42.8228 555.65 43.0318 555.035 43.4498 554.559C43.8677 554.082 44.4459 553.811 45.1841 553.744V554.77C44.6959 554.836 44.3267 555.01 44.0767 555.291C43.8306 555.572 43.7076 555.943 43.7076 556.404C43.7076 556.908 43.8795 557.303 44.2232 557.588C44.567 557.877 45.0416 558.021 45.647 558.021C46.2173 558.021 46.6744 557.865 47.0181 557.553C47.3658 557.244 47.5396 556.832 47.5396 556.316C47.5396 555.844 47.4361 555.473 47.2291 555.203L46.9947 554.916L47.2173 554.049Z" fill="#DCE1E3"/>
<path d="M53.94 584.314H65.1" stroke="#DCE1E3"/>
<path d="M42.94 581.848V580.758H50.1646L49.3619 578.572H50.3463L51.5123 581.678V581.848H42.94ZM51.4771 589.277H50.5572V589.078C50.5416 588.234 50.2916 587.562 49.8072 587.062C49.3228 586.562 48.6412 586.273 47.7623 586.195C48.2779 586.645 48.5357 587.258 48.5357 588.035C48.5357 588.777 48.274 589.369 47.7505 589.811C47.2271 590.256 46.5513 590.479 45.7232 590.479C44.8443 590.479 44.1412 590.238 43.6138 589.758C43.0865 589.281 42.8228 588.641 42.8228 587.836C42.8228 587.02 43.1353 586.357 43.7603 585.85C44.3892 585.342 45.1978 585.088 46.1861 585.088H46.6021C48.1724 585.088 49.3716 585.422 50.1998 586.09C51.0318 586.762 51.4576 587.76 51.4771 589.084V589.277ZM47.6334 587.854C47.6334 587.482 47.522 587.141 47.2994 586.828C47.0767 586.516 46.7974 586.299 46.4615 586.178H46.063C45.3599 586.178 44.7935 586.336 44.3638 586.652C43.9341 586.969 43.7193 587.363 43.7193 587.836C43.7193 588.324 43.899 588.707 44.2584 588.984C44.6177 589.266 45.0884 589.406 45.6705 589.406C46.2564 589.406 46.7291 589.264 47.0884 588.979C47.4517 588.697 47.6334 588.322 47.6334 587.854Z" fill="#DCE1E3"/>
<path d="M53.94 615.789H65.1" stroke="#DCE1E3"/>
<path d="M42.94 613.322V612.232H50.1646L49.3619 610.047H50.3463L51.5123 613.152V613.322H42.94ZM50.8619 622.006L42.94 618.473V617.336L50.5806 620.857V616.24H51.4713V622.006H50.8619Z" fill="#DCE1E3"/>
<path d="M53.94 647.262H65.1" stroke="#DCE1E3"/>
<path d="M42.94 644.795V643.705H50.1646L49.3619 641.52H50.3463L51.5123 644.625V644.795H42.94ZM49.2447 653.145C48.8189 653.145 48.44 653.031 48.108 652.805C47.7759 652.582 47.5162 652.279 47.3287 651.896C47.1373 652.342 46.858 652.693 46.4908 652.951C46.1236 653.213 45.7076 653.344 45.2427 653.344C44.5045 653.344 43.9166 653.094 43.4791 652.594C43.0416 652.098 42.8228 651.443 42.8228 650.631C42.8228 649.811 43.0416 649.152 43.4791 648.656C43.9205 648.164 44.5084 647.918 45.2427 647.918C45.7037 647.918 46.1197 648.043 46.4908 648.293C46.8619 648.547 47.1431 648.896 47.3345 649.342C47.522 648.963 47.7818 648.664 48.1138 648.445C48.4459 648.227 48.8228 648.117 49.2447 648.117C49.9634 648.117 50.5338 648.348 50.9556 648.809C51.3775 649.27 51.5884 649.877 51.5884 650.631C51.5884 651.381 51.3775 651.986 50.9556 652.447C50.5338 652.912 49.9634 653.145 49.2447 653.145ZM45.2662 652.26C45.7427 652.26 46.1314 652.107 46.4322 651.803C46.733 651.502 46.8834 651.107 46.8834 650.619C46.8834 650.131 46.7349 649.738 46.438 649.441C46.1412 649.148 45.7505 649.002 45.2662 649.002C44.7818 649.002 44.4009 649.145 44.1236 649.43C43.8463 649.719 43.7076 650.119 43.7076 650.631C43.7076 651.139 43.8463 651.537 44.1236 651.826C44.4048 652.115 44.7857 652.26 45.2662 652.26ZM50.6978 650.631C50.6978 650.205 50.565 649.859 50.2994 649.594C50.0377 649.332 49.6802 649.201 49.2271 649.201C48.7935 649.201 48.442 649.33 48.1724 649.588C47.9068 649.85 47.774 650.197 47.774 650.631C47.774 651.064 47.9068 651.41 48.1724 651.668C48.442 651.93 48.7935 652.061 49.2271 652.061C49.6607 652.061 50.0142 651.926 50.2877 651.656C50.5611 651.387 50.6978 651.045 50.6978 650.631Z" fill="#DCE1E3"/>
<path d="M194.308 68.1465V78.1465H65.1V68.1465L194.308 68.1465Z" fill="#DCE1E3"/>
<path d="M141.236 99.6211V109.621H65.1001V99.6211H141.236Z" fill="#DCE1E3"/>
<path d="M290.284 131.094V141.094H65.1V131.094H290.284Z" fill="#DCE1E3"/>
<path d="M127.596 162.568V172.568H65.1V162.568H127.596Z" fill="#DCE1E3"/>
<path d="M147.684 194.041V204.041H65.1V194.041H147.684Z" fill="#DCE1E3"/>
<path d="M187.86 225.516V235.516H65.1V225.516H187.86Z" fill="#DCE1E3"/>
<path d="M144.956 256.988V266.988H65.1001V256.988H144.956Z" fill="#DCE1E3"/>
<path d="M99.572 288.463V298.463H65.1V288.463H99.572Z" fill="#DCE1E3"/>
<path d="M80.228 319.936V329.936H65.1V319.936H80.228Z" fill="#DCE1E3"/>
<path d="M66.836 351.41V361.41H65.1001V351.41H66.836Z" fill="#DCE1E3"/>
<path d="M281.108 382.883V392.883H65.1V382.883H281.108Z" fill="#DCE1E3"/>
<path d="M129.084 414.357V424.357H65.1V414.357H129.084Z" fill="#DCE1E3"/>
<path d="M203.236 445.83V455.83H65.1V445.83H203.236Z" fill="#DCE1E3"/>
<path d="M220.1 477.305V487.305H65.1V477.305H220.1Z" fill="#DCE1E3"/>
<path d="M258.292 508.777V518.777H65.1V508.777H258.292Z" fill="#DCE1E3"/>
<path d="M215.884 540.252V550.252H65.1V540.252H215.884Z" fill="#DCE1E3"/>
<path d="M287.308 571.725V581.725H65.1V571.725H287.308Z" fill="#DCE1E3"/>
<path d="M286.564 603.199V613.199H65.1V603.199H286.564Z" fill="#DCE1E3"/>
<path d="M264.988 634.672V644.672H65.1V634.672H264.988Z" fill="#DCE1E3"/>
<path d="M131.316 82.1465V92.1465H65.1V82.1465H131.316Z" fill="#DCE1E3"/>
<path d="M310.372 113.621V123.621L65.1 123.621V113.621L310.372 113.621Z" fill="#DCE1E3"/>
<path d="M219.108 145.094V155.094H65.1V145.094H219.108Z" fill="#DCE1E3"/>
<path d="M249.364 176.568V186.568H65.1V176.568H249.364Z" fill="#DCE1E3"/>
<path d="M165.788 208.041V218.041H65.1V208.041H165.788Z" fill="#DCE1E3"/>
<path d="M192.572 239.516V249.516H65.1V239.516H192.572Z" fill="#DCE1E3"/>
<path d="M82.708 270.988V280.988H65.1V270.988H82.708Z" fill="#DCE1E3"/>
<path d="M101.06 302.463V312.463H65.1V302.463H101.06Z" fill="#DCE1E3"/>
<path d="M115.692 333.936V343.936H65.1V333.936H115.692Z" fill="#DCE1E3"/>
<path d="M80.228 365.41V375.41H65.1V365.41H80.228Z" fill="#DCE1E3"/>
<path d="M114.452 396.883V406.883H65.1V396.883H114.452Z" fill="#DCE1E3"/>
<path d="M251.596 428.357V438.357H65.1V428.357H251.596Z" fill="#DCE1E3"/>
<path d="M261.516 459.83V469.83H65.1V459.83H261.516Z" fill="#DCE1E3"/>
<path d="M314.34 491.305V501.305H65.1V491.305H314.34Z" fill="#DCE1E3"/>
<path d="M115.196 522.777V532.777H65.1V522.777H115.196Z" fill="#DCE1E3"/>
<path d="M159.34 554.252V564.252H65.1V554.252H159.34Z" fill="#DCE1E3"/>
<path d="M214.892 585.725V595.725H65.1V585.725H214.892Z" fill="#DCE1E3"/>
<path d="M301.196 617.199V627.199H65.1V617.199H301.196Z" fill="#DCE1E3"/>
<path d="M105.276 648.672V658.672H65.1V648.672H105.276Z" fill="#DCE1E3"/>
</g>
<defs>
<clipPath id="clip0_11705:7507">
<rect width="668" height="372" fill="white" transform="translate(372) rotate(90)"/>
</clipPath>
</defs>
</svg>
