<svg width="18" height="13" viewBox="0 0 18 13" fill="none" xmlns="http://www.w3.org/2000/svg">
<path d="M17.0696 0.435131C17.1273 0.493497 17.1729 0.562664 17.2039 0.638681C17.2349 0.714698 17.2506 0.796076 17.2502 0.878166C17.2497 0.960257 17.2331 1.04145 17.2012 1.11711C17.1694 1.19277 17.1229 1.26142 17.0646 1.31913L5.93955 12.3191C5.82318 12.4341 5.66636 12.4989 5.50277 12.4995C5.33917 12.5002 5.18184 12.4367 5.06455 12.3226L0.439553 7.82263C0.379721 7.76564 0.331783 7.69736 0.298513 7.62173C0.265242 7.54609 0.247298 7.46461 0.24572 7.382C0.244141 7.29939 0.25896 7.21728 0.289317 7.14043C0.319675 7.06359 0.36497 6.99352 0.422581 6.93429C0.480192 6.87506 0.548976 6.82784 0.624954 6.79536C0.700932 6.76289 0.782595 6.7458 0.865219 6.74509C0.947844 6.74437 1.02979 6.76005 1.10632 6.79121C1.18284 6.82237 1.25243 6.8684 1.31105 6.92663L5.49655 10.9996L16.1856 0.430631C16.2439 0.372904 16.3131 0.32724 16.3891 0.296249C16.4651 0.265258 16.5465 0.249546 16.6286 0.25001C16.7107 0.250474 16.7919 0.267106 16.8675 0.298955C16.9432 0.330804 17.0118 0.377247 17.0696 0.43563V0.435131Z" fill="#44546A"/>
</svg>
