<svg width="18" height="18" viewBox="0 0 18 18" fill="none" xmlns="http://www.w3.org/2000/svg">
<path d="M15.0001 8.5H9.50008V3C9.50008 2.86739 9.44741 2.74021 9.35364 2.64645C9.25987 2.55268 9.13269 2.5 9.00008 2.5C8.86748 2.5 8.7403 2.55268 8.64653 2.64645C8.55276 2.74021 8.50008 2.86739 8.50008 3V8.5H3.00008C2.86748 8.5 2.7403 8.55268 2.64653 8.64645C2.55276 8.74021 2.50008 8.86739 2.50008 9C2.49762 9.06498 2.50911 9.12974 2.53378 9.18991C2.55846 9.25007 2.59574 9.30425 2.64312 9.34879C2.6905 9.39333 2.74688 9.42719 2.80846 9.4481C2.87003 9.46901 2.93538 9.47648 3.00008 9.47H8.50008V15C8.50008 15.1326 8.55276 15.2598 8.64653 15.3536C8.7403 15.4473 8.86748 15.5 9.00008 15.5C9.13269 15.5 9.25987 15.4473 9.35364 15.3536C9.44741 15.2598 9.50008 15.1326 9.50008 15V9.5H15.0001C15.1327 9.5 15.2599 9.44732 15.3536 9.35355C15.4474 9.25979 15.5001 9.13261 15.5001 9C15.5001 8.86739 15.4474 8.74021 15.3536 8.64645C15.2599 8.55268 15.1327 8.5 15.0001 8.5Z" fill="#104378"/>
</svg>
