<svg width="16" height="16" viewBox="0 0 16 16" fill="none" xmlns="http://www.w3.org/2000/svg">
<path d="M7.99979 0.890625C6.59334 0.890625 5.21848 1.30768 4.04906 2.08906C2.87965 2.87044 1.9682 3.98105 1.42998 5.28043C0.891753 6.57982 0.750929 8.00962 1.02531 9.38905C1.2997 10.7685 1.97696 12.0355 2.97147 13.0301C3.96598 14.0246 5.23306 14.7018 6.61248 14.9762C7.9919 15.2506 9.42171 15.1098 10.7211 14.5715C12.0205 14.0333 13.1311 13.1219 13.9125 11.9525C14.6938 10.783 15.1109 9.40818 15.1109 8.00174C15.1109 6.11575 14.3617 4.30701 13.0281 2.97342C11.6945 1.63983 9.88577 0.890625 7.99979 0.890625ZM7.99979 14.224C6.76915 14.224 5.56614 13.859 4.5429 13.1753C3.51967 12.4916 2.72215 11.5198 2.2512 10.3829C1.78026 9.24592 1.65704 7.99483 1.89712 6.78784C2.13721 5.58085 2.72982 4.47215 3.60001 3.60196C4.4702 2.73177 5.5789 2.13916 6.78589 1.89907C7.99288 1.65899 9.24397 1.78221 10.3809 2.25315C11.5179 2.7241 12.4897 3.52162 13.1734 4.54485C13.8571 5.56809 14.222 6.7711 14.222 8.00174C14.222 9.65197 13.5665 11.2346 12.3996 12.4015C11.2327 13.5684 9.65002 14.224 7.99979 14.224Z" fill="#44546A"/>
<path d="M8.40915 8.17648V4.77648C8.40915 4.6586 8.36233 4.54556 8.27898 4.46221C8.19563 4.37886 8.08258 4.33203 7.96471 4.33203C7.84683 4.33203 7.73379 4.37886 7.65044 4.46221C7.56709 4.54556 7.52026 4.6586 7.52026 4.77648V8.65203L10.1425 10.4298C10.1908 10.4661 10.246 10.4922 10.3047 10.5065C10.3635 10.5208 10.4245 10.5229 10.4841 10.5128C10.5437 10.5027 10.6006 10.4805 10.6513 10.4476C10.702 10.4148 10.7455 10.3719 10.7791 10.3217C10.8127 10.2714 10.8357 10.2149 10.8467 10.1554C10.8577 10.096 10.8564 10.0349 10.843 9.976C10.8296 9.91707 10.8043 9.86149 10.7687 9.81266C10.7331 9.76384 10.6878 9.72279 10.6358 9.69203L8.40915 8.17648Z" fill="#44546A"/>
<path d="M3.55567 7.97512C3.55161 7.17558 3.76461 6.38993 4.17195 5.70193C4.5793 5.01393 5.16573 4.44937 5.86871 4.06846C6.57169 3.68754 7.36487 3.50455 8.16368 3.53899C8.96249 3.57343 9.73697 3.82401 10.4046 4.26401L10.7823 3.65957C10.1482 3.24419 9.42998 2.97441 8.6792 2.86961C7.92843 2.76481 7.16376 2.82758 6.44013 3.05343C5.71651 3.27928 5.05188 3.66259 4.494 4.17583C3.93612 4.68907 3.49883 5.3195 3.21356 6.02182C2.92828 6.72415 2.80209 7.48094 2.84405 8.23783C2.88602 8.99472 3.0951 9.73292 3.45627 10.3994C3.81744 11.0659 4.32174 11.6441 4.93294 12.0925C5.54414 12.5409 6.24707 12.8484 6.99123 12.9929L7.11123 12.3129C6.11033 12.1086 5.21037 11.5657 4.56279 10.7757C3.91521 9.98566 3.55955 8.99665 3.55567 7.97512Z" fill="#44546A"/>
</svg>
