<svg width="18" height="18" viewBox="0 0 18 18" fill="none" xmlns="http://www.w3.org/2000/svg">
<path d="M4.21001 16.3003C3.38311 16.3004 2.58934 15.9753 2.00001 15.3953L1.93501 15.3303C1.63891 15.0414 1.40364 14.6961 1.24306 14.3148C1.08248 13.9335 0.99984 13.524 1.00001 13.1103C0.998963 12.6624 1.08681 12.2187 1.25847 11.8051C1.43012 11.3914 1.68217 11.0159 2.00001 10.7003L9.75001 3.03528C10.5374 2.21541 11.6154 1.73766 12.7517 1.70492C13.888 1.67219 14.9917 2.0871 15.825 2.86028C16.2008 3.23518 16.4983 3.68114 16.7 4.17216C16.9018 4.66318 17.0037 5.18945 17 5.72028C16.9956 6.31313 16.874 6.89926 16.6423 7.44499C16.4107 7.99072 16.0734 8.48529 15.65 8.90028L8.68501 15.8003C8.64171 15.8585 8.58626 15.9066 8.5225 15.9413C8.45874 15.9759 8.38819 15.9963 8.31577 16.001C8.24335 16.0056 8.17079 15.9944 8.10312 15.9682C8.03545 15.942 7.9743 15.9014 7.92391 15.8491C7.87352 15.7969 7.83511 15.7343 7.81133 15.6658C7.78756 15.5972 7.77899 15.5243 7.78623 15.4521C7.79348 15.3799 7.81635 15.3101 7.85326 15.2476C7.89018 15.1852 7.94025 15.1315 8.00001 15.0903L14.945 8.19028C15.2748 7.86832 15.5378 7.48438 15.7189 7.06051C15.8999 6.63664 15.9955 6.18118 16 5.72028C16.0036 5.3214 15.9277 4.92581 15.7766 4.55664C15.6255 4.18748 15.4023 3.85215 15.12 3.57028C14.4739 2.98171 13.6226 2.67029 12.7492 2.70302C11.8759 2.73575 11.0502 3.11001 10.45 3.74528L2.72501 11.4103C2.49736 11.6313 2.31601 11.8955 2.19154 12.1874C2.06706 12.4792 2.00195 12.793 2.00001 13.1103C1.99894 13.3889 2.05319 13.665 2.15962 13.9224C2.26605 14.1799 2.42254 14.4137 2.62001 14.6103L2.68501 14.6753C3.13239 15.0872 3.72364 15.3071 4.33148 15.2874C4.93933 15.2678 5.51516 15.0103 5.93501 14.5703L12.61 7.97028C12.7362 7.84265 12.8358 7.69112 12.9027 7.52457C12.9697 7.35801 13.0028 7.17977 13 7.00028C13.0011 6.84438 12.9712 6.68982 12.9119 6.54561C12.8527 6.40139 12.7654 6.27041 12.655 6.16028C12.4025 5.92874 12.0691 5.80577 11.7267 5.81793C11.3843 5.83009 11.0604 5.97641 10.825 6.22528L6.22501 10.7853C6.13086 10.8788 6.00342 10.931 5.87074 10.9306C5.73806 10.9301 5.611 10.8769 5.51751 10.7828C5.42402 10.6886 5.37176 10.5612 5.37223 10.4285C5.3727 10.2958 5.42586 10.1688 5.52001 10.0753L10.14 5.50028C10.5635 5.06644 11.1406 4.81648 11.7467 4.80432C12.3528 4.79216 12.9395 5.01878 13.38 5.43528C13.5826 5.64153 13.7419 5.88627 13.8483 6.15506C13.9548 6.42385 14.0064 6.71124 14 7.00028C13.9995 7.31154 13.9368 7.61957 13.8158 7.90632C13.6947 8.19308 13.5177 8.4528 13.295 8.67028L6.64001 15.2903C5.99496 15.9343 5.12153 16.2973 4.21001 16.3003Z" fill="#44546A"/>
</svg>
