<svg width="16" height="16" viewBox="0 0 16 16" fill="none" xmlns="http://www.w3.org/2000/svg">
<path d="M3.21001 15.2998C2.38311 15.2999 1.58934 14.9748 1.00001 14.3948L0.935009 14.3298C0.638911 14.0409 0.40364 13.6956 0.24306 13.3143C0.0824804 12.9331 -0.000159847 12.5235 9.23908e-06 12.1098C-0.00103717 11.6619 0.0868129 11.2183 0.258469 10.8046C0.430125 10.3909 0.682173 10.0154 1.00001 9.69979L8.75001 2.03479C9.53744 1.21493 10.6154 0.737169 11.7517 0.704436C12.888 0.671703 13.9917 1.08661 14.825 1.85979C15.2008 2.23469 15.4983 2.68065 15.7 3.17167C15.9018 3.66269 16.0037 4.18896 16 4.71979C15.9956 5.31265 15.874 5.89878 15.6423 6.4445C15.4107 6.99023 15.0734 7.4848 14.65 7.89979L7.68501 14.7998C7.64171 14.858 7.58626 14.9062 7.5225 14.9408C7.45874 14.9755 7.38819 14.9958 7.31577 15.0005C7.24335 15.0051 7.17079 14.9939 7.10312 14.9677C7.03545 14.9415 6.9743 14.9009 6.92391 14.8487C6.87352 14.7964 6.83511 14.7339 6.81133 14.6653C6.78756 14.5967 6.77899 14.5238 6.78623 14.4516C6.79348 14.3794 6.81635 14.3096 6.85326 14.2471C6.89018 14.1847 6.94025 14.131 7.00001 14.0898L13.945 7.18979C14.2748 6.86783 14.5378 6.48389 14.7189 6.06002C14.8999 5.63615 14.9955 5.18069 15 4.71979C15.0036 4.32092 14.9277 3.92532 14.7766 3.55615C14.6255 3.18699 14.4023 2.85166 14.12 2.56979C13.4739 1.98123 12.6226 1.6698 11.7492 1.70253C10.8759 1.73526 10.0502 2.10952 9.45001 2.74479L1.72501 10.4098C1.49736 10.6308 1.31601 10.895 1.19154 11.1869C1.06706 11.4788 1.00195 11.7925 1.00001 12.1098C0.998941 12.3884 1.05319 12.6645 1.15962 12.922C1.26605 13.1794 1.42254 13.4132 1.62001 13.6098L1.68501 13.6748C2.13239 14.0868 2.72364 14.3066 3.33148 14.2869C3.93933 14.2673 4.51516 14.0098 4.93501 13.5698L11.61 6.96979C11.7362 6.84216 11.8358 6.69063 11.9027 6.52408C11.9697 6.35752 12.0028 6.17929 12 5.99979C12.0011 5.84389 11.9712 5.68933 11.9119 5.54512C11.8527 5.4009 11.7654 5.26992 11.655 5.15979C11.4025 4.92825 11.0691 4.80528 10.7267 4.81745C10.3843 4.82961 10.0604 4.97592 9.82501 5.22479L5.22501 9.78479C5.13086 9.87828 5.00342 9.93054 4.87074 9.93007C4.73806 9.9296 4.611 9.87644 4.51751 9.78229C4.42402 9.68814 4.37176 9.56071 4.37223 9.42803C4.3727 9.29534 4.42586 9.16828 4.52001 9.07479L9.14001 4.49979C9.56349 4.06595 10.1406 3.81599 10.7467 3.80383C11.3528 3.79167 11.9395 4.01829 12.38 4.43479C12.5826 4.64104 12.7419 4.88578 12.8483 5.15457C12.9548 5.42336 13.0064 5.71075 13 5.99979C12.9995 6.31105 12.9368 6.61908 12.8158 6.90583C12.6947 7.19259 12.5177 7.45231 12.295 7.66979L5.64001 14.2898C4.99496 14.9338 4.12153 15.2969 3.21001 15.2998Z" fill="#44546A"/>
</svg>
