<svg width="14" height="14" viewBox="0 0 14 14" fill="none" xmlns="http://www.w3.org/2000/svg">
<path fill-rule="evenodd" clip-rule="evenodd" d="M14 7C14 8.85652 13.2625 10.637 11.9497 11.9497C10.637 13.2625 8.85652 14 7 14C5.14348 14 3.36301 13.2625 2.05025 11.9497C0.737498 10.637 0 8.85652 0 7C0 5.14348 0.737498 3.36301 2.05025 2.05025C3.36301 0.737498 5.14348 0 7 0C8.85652 0 10.637 0.737498 11.9497 2.05025C13.2625 3.36301 14 5.14348 14 7ZM10.3722 4.24725C10.4544 4.1651 10.5006 4.05368 10.5006 3.9375C10.5006 3.82132 10.4544 3.7099 10.3722 3.62775C10.2901 3.5456 10.1787 3.49945 10.0625 3.49945C9.94632 3.49945 9.8349 3.5456 9.75275 3.62775L7 6.38138L4.24725 3.62775C4.20657 3.58707 4.15828 3.55481 4.10514 3.53279C4.05199 3.51078 3.99503 3.49945 3.9375 3.49945C3.87997 3.49945 3.82301 3.51078 3.76986 3.53279C3.71672 3.55481 3.66843 3.58707 3.62775 3.62775C3.58707 3.66843 3.55481 3.71672 3.53279 3.76986C3.51078 3.82301 3.49945 3.87997 3.49945 3.9375C3.49945 3.99503 3.51078 4.05199 3.53279 4.10514C3.55481 4.15828 3.58707 4.20657 3.62775 4.24725L6.38138 7L3.62775 9.75275C3.5456 9.8349 3.49945 9.94632 3.49945 10.0625C3.49945 10.1787 3.5456 10.2901 3.62775 10.3722C3.7099 10.4544 3.82132 10.5006 3.9375 10.5006C4.05368 10.5006 4.1651 10.4544 4.24725 10.3722L7 7.61862L9.75275 10.3722C9.79343 10.4129 9.84172 10.4452 9.89486 10.4672C9.94801 10.4892 10.005 10.5006 10.0625 10.5006C10.12 10.5006 10.177 10.4892 10.2301 10.4672C10.2833 10.4452 10.3316 10.4129 10.3722 10.3722C10.4129 10.3316 10.4452 10.2833 10.4672 10.2301C10.4892 10.177 10.5006 10.12 10.5006 10.0625C10.5006 10.005 10.4892 9.94801 10.4672 9.89486C10.4452 9.84172 10.4129 9.79343 10.3722 9.75275L7.61862 7L10.3722 4.24725Z" fill="#40659E"/>
</svg>
