<svg width="16" height="16" viewBox="0 0 16 16" fill="none" xmlns="http://www.w3.org/2000/svg">
<path d="M9.5 5L7.5 3L9.5 1" stroke="#FBFBFB" stroke-linecap="round" stroke-linejoin="round"/>
<path d="M6.46875 11L8.46875 13L6.46875 15" stroke="#FBFBFB" stroke-linecap="round" stroke-linejoin="round"/>
<path d="M3.5 4.5C4.32843 4.5 5 3.82843 5 3C5 2.17157 4.32843 1.5 3.5 1.5C2.67157 1.5 2 2.17157 2 3C2 3.82843 2.67157 4.5 3.5 4.5Z" stroke="#FBFBFB" stroke-linecap="round" stroke-linejoin="round"/>
<path d="M12.5 14.5C13.3284 14.5 14 13.8284 14 13C14 12.1716 13.3284 11.5 12.5 11.5C11.6716 11.5 11 12.1716 11 13C11 13.8284 11.6716 14.5 12.5 14.5Z" stroke="#FBFBFB" stroke-linecap="round" stroke-linejoin="round"/>
<path d="M8 3H10.625C11.1223 3 11.5992 3.19754 11.9508 3.54917C12.3025 3.90081 12.5 4.37772 12.5 4.875V11.5" stroke="#FBFBFB" stroke-linecap="round" stroke-linejoin="round"/>
<path d="M7.96875 13H5.34375C4.84647 13 4.36956 12.8025 4.01792 12.4508C3.66629 12.0992 3.46875 11.6223 3.46875 11.125V4.5" stroke="#FBFBFB" stroke-linecap="round" stroke-linejoin="round"/>
</svg>
