<svg width="24" height="24" viewBox="0 0 24 24" fill="none" xmlns="http://www.w3.org/2000/svg">
<path d="M12 3.375C12.8089 3.37497 13.5863 3.68861 14.1687 4.24996C14.7512 4.81131 15.0932 5.57664 15.123 6.385L15.125 6.5005L18.5 6.5C18.7258 6.5001 18.9427 6.58746 19.1056 6.74381C19.2684 6.90016 19.3646 7.1134 19.3739 7.33897C19.3832 7.56454 19.3049 7.78497 19.1555 7.95419C19.006 8.12341 18.797 8.22832 18.572 8.247L18.5 8.25H17.9165L17.103 19.035C17.0627 19.5694 16.8219 20.0688 16.4289 20.4332C16.036 20.7975 15.5199 21 14.984 21H9.016C8.48011 21 7.964 20.7975 7.57105 20.4332C7.17811 20.0688 6.93735 19.5694 6.897 19.035L6.083 8.25H5.5C5.28033 8.24998 5.06869 8.16734 4.90715 8.01848C4.7456 7.86962 4.64595 7.66544 4.628 7.4465L4.625 7.375C4.62502 7.15533 4.70767 6.94369 4.85652 6.78215C5.00538 6.6206 5.20956 6.52095 5.4285 6.503L5.5 6.5H8.875C8.875 4.851 10.1525 3.5 11.772 3.383L11.8855 3.377L12 3.375ZM13.875 9.875C13.7203 9.87493 13.571 9.93226 13.4561 10.0359C13.3412 10.1395 13.2688 10.2821 13.253 10.436L13.25 10.5V16.5L13.253 16.564C13.2682 16.7184 13.3403 16.8617 13.4552 16.9659C13.5702 17.0701 13.7198 17.1278 13.875 17.1278C14.0302 17.1278 14.1798 17.0701 14.2948 16.9659C14.4097 16.8617 14.4818 16.7184 14.497 16.564L14.5 16.5V10.5L14.497 10.436C14.4812 10.2821 14.4088 10.1395 14.2939 10.0359C14.179 9.93226 14.0297 9.87493 13.875 9.875ZM10.125 9.875C9.97027 9.87493 9.82102 9.93226 9.70612 10.0359C9.59122 10.1395 9.51884 10.2821 9.503 10.436L9.5 10.5V16.5L9.503 16.564C9.51819 16.7184 9.59027 16.8617 9.70524 16.9659C9.82021 17.0701 9.96983 17.1278 10.125 17.1278C10.2802 17.1278 10.4298 17.0701 10.5448 16.9659C10.6597 16.8617 10.7318 16.7184 10.747 16.564L10.75 16.5V10.5L10.747 10.436C10.7312 10.2821 10.6588 10.1395 10.5439 10.0359C10.429 9.93226 10.2797 9.87493 10.125 9.875ZM12.084 5.1275L12 5.125C11.6499 5.12498 11.3129 5.25855 11.0579 5.49845C10.8028 5.73835 10.6489 6.06651 10.6275 6.416L10.625 6.5005L13.375 6.5C13.375 6.14986 13.2415 5.8129 13.0016 5.55785C12.7617 5.30281 12.4335 5.14889 12.084 5.1275Z" fill="#44546A"/>
</svg>
