<svg width="18" height="18" viewBox="0 0 18 18" fill="none" xmlns="http://www.w3.org/2000/svg">
<path d="M11.9233 11.5207C12.3487 11.2922 12.8356 11.1621 13.3541 11.1621H13.3559C13.4086 11.1621 13.4332 11.0988 13.3946 11.0637C12.8553 10.5797 12.2393 10.1888 11.5717 9.90703C11.5647 9.90352 11.5577 9.90176 11.5506 9.89824C12.6422 9.10547 13.3524 7.81699 13.3524 6.36328C13.3524 3.95508 11.4047 2.00391 9.0018 2.00391C6.59887 2.00391 4.65297 3.95508 4.65297 6.36328C4.65297 7.81699 5.36313 9.10547 6.45649 9.89824C6.44946 9.90176 6.44243 9.90352 6.4354 9.90703C5.64965 10.2393 4.94477 10.7156 4.33833 11.3238C3.73538 11.9257 3.25536 12.6391 2.92504 13.4244C2.60005 14.1934 2.42465 15.0173 2.40825 15.852C2.40778 15.8707 2.41107 15.8894 2.41793 15.9068C2.42478 15.9243 2.43507 15.9402 2.44817 15.9537C2.46128 15.9671 2.47694 15.9778 2.49423 15.9851C2.51153 15.9923 2.53011 15.9961 2.54887 15.9961H3.6018C3.67739 15.9961 3.74067 15.9346 3.74243 15.859C3.77758 14.502 4.32075 13.2311 5.28227 12.2678C6.27543 11.2711 7.59731 10.7227 9.00356 10.7227C10.0002 10.7227 10.9565 10.9986 11.7809 11.5154C11.8021 11.5287 11.8264 11.5362 11.8514 11.5372C11.8764 11.5381 11.9012 11.5324 11.9233 11.5207ZM9.00356 9.38672C8.19848 9.38672 7.44086 9.07207 6.86958 8.50078C6.58849 8.22043 6.36566 7.88723 6.21391 7.52038C6.06216 7.15353 5.9845 6.76028 5.9854 6.36328C5.9854 5.55645 6.30004 4.79707 6.86958 4.22578C7.43911 3.65449 8.19672 3.33984 9.00356 3.33984C9.8104 3.33984 10.5663 3.65449 11.1375 4.22578C11.4186 4.50614 11.6415 4.83934 11.7932 5.20619C11.945 5.57304 12.0226 5.96629 12.0217 6.36328C12.0217 7.17012 11.7071 7.92949 11.1375 8.50078C10.5663 9.07207 9.80864 9.38672 9.00356 9.38672ZM15.4688 13.5703H11.25C11.1727 13.5703 11.1094 13.6336 11.1094 13.7109V14.6953C11.1094 14.7727 11.1727 14.8359 11.25 14.8359H15.4688C15.5461 14.8359 15.6094 14.7727 15.6094 14.6953V13.7109C15.6094 13.6336 15.5461 13.5703 15.4688 13.5703Z" fill="#104378"/>
</svg>
