<svg width="28" height="28" viewBox="0 0 28 28" fill="none" xmlns="http://www.w3.org/2000/svg">
<path fill-rule="evenodd" clip-rule="evenodd" d="M23.3335 19.3333V5.99992C23.3335 5.29267 23.0525 4.6144 22.5524 4.1143C22.0523 3.6142 21.3741 3.33325 20.6668 3.33325H10.0002C9.29292 3.33325 8.61464 3.6142 8.11454 4.1143C7.61445 4.6144 7.3335 5.29267 7.3335 5.99992V19.3333C7.3335 20.0405 7.61445 20.7188 8.11454 21.2189C8.61464 21.719 9.29292 21.9999 10.0002 21.9999H20.6668C21.3741 21.9999 22.0523 21.719 22.5524 21.2189C23.0525 20.7188 23.3335 20.0405 23.3335 19.3333Z" stroke="white" stroke-width="1.5" stroke-linecap="round" stroke-linejoin="round"/>
<path d="M7.07349 6.57983L4.40149 7.55317C3.73711 7.79516 3.19605 8.29109 2.89725 8.93193C2.59846 9.57277 2.56641 10.306 2.80815 10.9705L7.36815 23.4998C7.48797 23.829 7.67144 24.1312 7.9081 24.3895C8.14476 24.6477 8.42997 24.8567 8.74743 25.0047C9.0649 25.1526 9.4084 25.2366 9.75832 25.2518C10.1082 25.267 10.4577 25.2131 10.7868 25.0932L18.2108 22.1625" stroke="white" stroke-width="1.5" stroke-linecap="round" stroke-linejoin="round"/>
<path d="M11.3335 10H18.0002" stroke="white" stroke-width="1.5" stroke-linecap="round" stroke-linejoin="round"/>
<path d="M11.3335 12.6665H19.3335" stroke="white" stroke-width="1.5" stroke-linecap="round" stroke-linejoin="round"/>
<path d="M11.3335 15.3333H15.3335" stroke="white" stroke-width="1.5" stroke-linecap="round" stroke-linejoin="round"/>
</svg>
