<svg width="17" height="18" viewBox="0 0 17 18" fill="none" xmlns="http://www.w3.org/2000/svg">
<path fill-rule="evenodd" clip-rule="evenodd" d="M15.6666 12.8094V3.28562C15.6666 2.78045 15.4659 2.29596 15.1087 1.93875C14.7515 1.58154 14.267 1.38086 13.7618 1.38086H6.1428C5.63762 1.38086 5.15314 1.58154 4.79593 1.93875C4.43872 2.29596 4.23804 2.78045 4.23804 3.28562V12.8094C4.23804 13.3146 4.43872 13.7991 4.79593 14.1563C5.15314 14.5135 5.63762 14.7142 6.1428 14.7142H13.7618C14.267 14.7142 14.7515 14.5135 15.1087 14.1563C15.4659 13.7991 15.6666 13.3146 15.6666 12.8094Z" stroke="#708090" stroke-opacity="0.7" stroke-linecap="round" stroke-linejoin="round"/>
<path d="M4.05232 3.7002L2.14374 4.39543C1.66919 4.56828 1.28272 4.92252 1.06929 5.38027C0.855871 5.83801 0.832979 6.36177 1.00565 6.83639L4.26279 15.7859C4.34837 16.021 4.47943 16.2369 4.64847 16.4213C4.81751 16.6058 5.02123 16.7551 5.24799 16.8608C5.47475 16.9665 5.72011 17.0265 5.97006 17.0373C6.22 17.0481 6.46963 17.0096 6.7047 16.924L12.0076 14.8307" stroke="#708090" stroke-opacity="0.7" stroke-linecap="round" stroke-linejoin="round"/>
<path d="M7.09497 6.14258H11.8569" stroke="#708090" stroke-opacity="0.7" stroke-linecap="round" stroke-linejoin="round"/>
<path d="M7.09497 8.04736H12.8093" stroke="#708090" stroke-opacity="0.7" stroke-linecap="round" stroke-linejoin="round"/>
<path d="M7.09497 9.95166H9.95219" stroke="#708090" stroke-opacity="0.7" stroke-linecap="round" stroke-linejoin="round"/>
</svg>
