<svg width="36" height="36" viewBox="0 0 36 36" fill="none" xmlns="http://www.w3.org/2000/svg">
<path d="M28.1261 31.5H7.875C7.57663 31.5 7.29048 31.3815 7.0795 31.1705C6.86853 30.9595 6.75 30.6734 6.75 30.375V5.625C6.75 5.32663 6.86853 5.04048 7.0795 4.82951C7.29048 4.61853 7.57663 4.5 7.875 4.5H21.3761L29.2511 12.375V30.375C29.2511 30.5227 29.222 30.669 29.1655 30.8055C29.1089 30.942 29.0261 31.066 28.9216 31.1705C28.8171 31.275 28.6931 31.3578 28.5566 31.4144C28.4201 31.4709 28.2738 31.5 28.1261 31.5Z" stroke="#44546A" stroke-width="2" stroke-linecap="round" stroke-linejoin="round"/>
<path d="M21.375 4.5V12.375H29.2511" stroke="#44546A" stroke-width="2" stroke-linecap="round" stroke-linejoin="round"/>
<path d="M14.0625 20.8125L18 16.875L21.9375 20.8125" stroke="#44546A" stroke-width="2" stroke-linecap="round" stroke-linejoin="round"/>
<path d="M18 25.875V16.875" stroke="#44546A" stroke-width="2" stroke-linecap="round" stroke-linejoin="round"/>
</svg>
