<svg width="23" height="14" viewBox="0 0 23 14" fill="none" xmlns="http://www.w3.org/2000/svg">
<g clip-path="url(#clip0)">
<path d="M21.4667 14.0008H1.53333C1.12667 14.0008 0.736659 13.8533 0.449103 13.5907C0.161547 13.3282 0 12.9721 0 12.6008L0 6.71145H1.10464L1.35381 6.16079H1.91156L2.16008 6.70912H4.33358V6.29204L4.52781 6.71204H5.65608L5.8503 6.28504V6.71087H11.2508V5.8102H11.3531C11.4259 5.81254 11.447 5.81837 11.447 5.9292V6.71204H14.2408V6.50262C14.5264 6.63504 14.8631 6.71262 15.2202 6.71262L15.2809 6.71204H15.2777H16.4533L16.705 6.1637H17.2628L17.5087 6.71204H19.7742V6.19054L20.1167 6.71204H21.9286V3.26804H20.1352V3.67462L19.8841 3.26804H18.0403V3.67462L17.8097 3.26804H15.3199C14.9427 3.25063 14.5669 3.32151 14.2281 3.47395L14.2415 3.4687V3.26804H12.5241V3.4687C12.3163 3.31911 12.0537 3.24755 11.7901 3.26862H11.7939H5.51808L5.09706 4.1582L4.66453 3.26862H2.68781V3.6752L2.46994 3.26862H0.783278L0.00191667 4.90195V1.40195C0.00191667 1.03065 0.163464 0.674555 0.45102 0.412004C0.738575 0.149453 1.12858 0.00195313 1.53525 0.00195312H21.4686C21.8752 0.00195313 22.2653 0.149453 22.5528 0.412004C22.8404 0.674555 23.0019 1.03065 23.0019 1.40195V7.51529H21.8053C21.7861 7.51412 21.7631 7.51412 21.7407 7.51412C21.4635 7.51412 21.206 7.58995 20.9913 7.72004L20.9964 7.71712V7.51529H19.2267C18.9502 7.50134 18.6767 7.57308 18.4505 7.71887L18.4543 7.71654V7.5147H15.2944V7.71654C15.0357 7.58334 14.7435 7.51379 14.4466 7.5147H14.4216H14.4229H12.3382V7.71654C12.0659 7.55724 11.7427 7.48635 11.4208 7.51529L11.4265 7.5147H9.09394L8.55983 8.04204L8.06022 7.5147H4.57572V10.961H7.99505L8.54514 10.4255L9.06328 10.961H11.171V10.1543H11.4649C11.7474 10.1644 12.0293 10.1213 12.2929 10.0277L12.2788 10.0324V10.9622H14.0166V10.0645H14.1003C14.2063 10.0645 14.2172 10.068 14.2172 10.166V10.9628H19.4982L19.5628 10.964C19.8656 10.964 20.148 10.8811 20.3831 10.7394L20.3774 10.7423V10.9628H22.0525L22.1324 10.964C22.4461 10.964 22.7444 10.905 23.0153 10.7983L23.0006 10.8035V12.6014C23.0006 12.9727 22.8391 13.3288 22.5515 13.5913C22.264 13.8539 21.874 14.0014 21.4673 14.0014L21.4667 14.0008ZM13.4837 10.478H12.8334V8.00762H14.3258C14.5954 7.98481 14.8668 8.02621 15.1136 8.12779L15.1033 8.12429C15.3033 8.22462 15.4368 8.41595 15.4368 8.63529L15.4356 8.67437V8.67262L15.4362 8.69479C15.4362 8.97829 15.249 9.22212 14.9807 9.32829L14.9756 9.33004C15.104 9.37204 15.2113 9.44379 15.2912 9.53654L15.2924 9.5377C15.3826 9.67404 15.4204 9.83396 15.3998 9.99212L15.4004 9.98862V10.4775H14.7513V10.1683C14.782 9.99996 14.745 9.82716 14.6472 9.68179L14.6491 9.6847C14.5816 9.63796 14.5045 9.6042 14.4224 9.58545C14.3402 9.5667 14.2548 9.56336 14.1712 9.57562L14.175 9.57504H13.4837V10.4775V10.478ZM13.4837 8.51804V9.07279H14.2696C14.3806 9.08214 14.4922 9.06401 14.5929 9.02029L14.589 9.02204C14.6301 8.9978 14.664 8.96455 14.6874 8.92532C14.7108 8.8861 14.7231 8.84214 14.7232 8.79745L14.7226 8.78404V8.78462C14.7257 8.74004 14.715 8.69554 14.6916 8.65631C14.6682 8.61707 14.633 8.5847 14.5903 8.56295L14.589 8.56237C14.4921 8.52278 14.3856 8.50671 14.2798 8.5157H14.2824L13.4837 8.51804ZM7.71778 10.4775H5.15775V8.00762H7.75803L8.55344 8.81729L9.37569 8.00762H11.4412C12.1747 8.00762 12.5312 8.2742 12.5312 8.82137C12.5312 9.37845 12.1625 9.64912 11.4067 9.64912H10.5985V10.4769H9.34183L8.54578 9.66079L7.71842 10.4775H7.71778ZM9.95453 8.27245L8.96169 9.24662L9.95453 10.2523V8.27245ZM5.80239 9.4712V9.96237H7.39194L8.12667 9.23787L7.42005 8.51804H5.80175V8.9672H7.22136V9.47062L5.80239 9.4712ZM10.5985 8.51862V9.14745H11.4336C11.6891 9.14745 11.8361 9.02845 11.8361 8.82079C11.8361 8.62245 11.6993 8.51804 11.4406 8.51804L10.5985 8.51862ZM22.1228 10.4786H20.8744V9.94779H22.1177C22.2107 9.9595 22.3051 9.93728 22.3803 9.88595L22.3796 9.88654C22.4036 9.86621 22.4228 9.84157 22.4359 9.81416C22.4489 9.78676 22.4557 9.75718 22.4557 9.72729V9.72554V9.71795C22.4557 9.68843 22.4487 9.65925 22.4351 9.63245C22.4216 9.60565 22.4018 9.58188 22.3771 9.56279C22.311 9.51916 22.2294 9.49961 22.1484 9.50795H22.1496L22.0302 9.50445C21.4462 9.49045 20.785 9.47412 20.785 8.7432C20.785 8.38737 21.029 8.00762 21.712 8.00762H23.0006V8.53379H21.8219C21.7308 8.52448 21.6389 8.54119 21.5587 8.58162L21.5612 8.58045C21.5297 8.59941 21.5043 8.62577 21.4878 8.65677C21.4713 8.68777 21.4642 8.72226 21.4673 8.75662V8.75604V8.76245C21.4673 8.80176 21.4809 8.84006 21.5061 8.87191C21.5314 8.90375 21.567 8.9275 21.6079 8.93979L21.6091 8.94037C21.6901 8.96317 21.7749 8.97266 21.8596 8.96837H21.8577L22.2084 8.97654C22.4728 8.95245 22.737 9.02432 22.9438 9.17662L22.9419 9.17545C22.961 9.18945 22.9776 9.20462 22.9923 9.22154L22.993 9.22212L23.0006 10.1625C22.8932 10.2771 22.7565 10.3658 22.6027 10.4209C22.4488 10.4759 22.2825 10.4955 22.1183 10.478L22.1228 10.4786ZM19.5998 10.4786H18.3399V9.94779H19.5934C19.6872 9.959 19.7822 9.93686 19.8586 9.88595L19.8573 9.88654C19.8812 9.86613 19.9002 9.84146 19.9131 9.81407C19.9261 9.78667 19.9328 9.75713 19.9327 9.72729V9.72554V9.72145C19.9327 9.69143 19.9256 9.66176 19.9121 9.6344C19.8985 9.60705 19.8788 9.58264 19.8541 9.56279C19.7868 9.51912 19.7043 9.4996 19.6222 9.50795H19.6235L19.5046 9.50445C18.9226 9.49045 18.262 9.47412 18.262 8.7432C18.262 8.38737 18.5048 8.00762 19.1865 8.00762H20.4821V8.53379H19.2964C19.2059 8.52458 19.1146 8.5413 19.0351 8.58162L19.0376 8.58045C19.004 8.60154 18.9774 8.63051 18.9603 8.66431C18.9433 8.69811 18.9366 8.73547 18.9409 8.77246C18.9452 8.80945 18.9604 8.84468 18.9849 8.87444C19.0093 8.9042 19.0421 8.92739 19.0798 8.94154L19.0811 8.94212C19.1631 8.9651 19.249 8.97458 19.3347 8.97012H19.3328L19.681 8.97829C19.9468 8.9549 20.2121 9.02687 20.4208 9.17895L20.4189 9.1772C20.4891 9.24787 20.5425 9.33106 20.5757 9.42153C20.6089 9.51199 20.6212 9.60776 20.6118 9.70279V9.69987C20.6137 10.215 20.2719 10.4775 19.5979 10.4775L19.5998 10.4786ZM17.9528 10.4786H15.7933V8.00704H17.9509V8.51745H16.4386V8.96662H17.9157V9.47004H16.4386V9.9612L17.9528 9.96354V10.4769V10.4786ZM19.2114 6.22845H17.8946L17.6429 5.67779H16.3L16.0559 6.22845H15.2995C14.9598 6.24481 14.6252 6.14708 14.359 5.9537L14.3622 5.95545C14.2357 5.828 14.1397 5.67789 14.0803 5.51468C14.0209 5.35147 13.9994 5.17875 14.0172 5.00754L14.0166 5.0122C14.0001 4.83783 14.0227 4.66223 14.0829 4.49607C14.1431 4.3299 14.2396 4.17665 14.3667 4.04562L14.3654 4.04679C14.4996 3.93968 14.6564 3.85892 14.8263 3.80955C14.9961 3.76017 15.1752 3.74323 15.3525 3.75979L15.3474 3.7592H15.9735V4.28595H15.3602C15.2704 4.2754 15.1792 4.28305 15.0931 4.30835C15.007 4.33366 14.928 4.37601 14.8618 4.43237L14.8625 4.43179C14.7259 4.59151 14.6596 4.79207 14.6766 4.99412V4.9912C14.6562 5.19879 14.7201 5.40598 14.8561 5.57337L14.8542 5.57104C14.9812 5.66581 15.1438 5.71145 15.3071 5.6982H15.3046H15.5946L16.5089 3.7557H17.48L18.5744 6.08904V3.7557H19.5589L20.6949 5.47537V3.7557H21.3593V6.22437H20.4368L19.2101 4.37054V6.22437L19.2114 6.22845ZM16.9759 4.17629L16.5306 5.16095H17.4231L16.9759 4.17629ZM10.7154 6.22729H10.0689V3.75745H11.5562C11.8277 3.73173 12.1018 3.77387 12.3491 3.87937L12.3395 3.87587C12.4389 3.92608 12.5218 3.99968 12.5796 4.08902C12.6373 4.17837 12.6678 4.28021 12.6679 4.38395L12.6666 4.42479V4.42304V4.44112C12.6667 4.57584 12.6241 4.70772 12.5441 4.82092C12.4641 4.93411 12.35 5.02383 12.2156 5.07929L12.2104 5.08104C12.3389 5.12537 12.4468 5.19654 12.5292 5.28754L12.5305 5.2887C12.6217 5.42554 12.6593 5.58657 12.6372 5.74545L12.6379 5.74195V6.2267H11.9856L11.983 5.9152V5.86854C12.0062 5.71623 11.9693 5.56135 11.8789 5.43162L11.8808 5.43454C11.8131 5.38915 11.7363 5.35645 11.6547 5.33833C11.5731 5.3202 11.4884 5.31702 11.4054 5.32895L11.4093 5.32837H10.7161V6.2267L10.7154 6.22729ZM10.7154 4.27137V4.8197H11.5C11.6108 4.83068 11.7228 4.81246 11.8226 4.7672L11.8194 4.76837C11.8604 4.74566 11.8942 4.71371 11.9177 4.6756C11.9412 4.6375 11.9536 4.59452 11.9536 4.55079L11.953 4.53445V4.53504C11.9562 4.49071 11.9452 4.44649 11.9212 4.40782C11.8973 4.36916 11.8614 4.33774 11.8182 4.31745L11.8169 4.31687C11.7197 4.27878 11.6138 4.26277 11.5083 4.2702H11.5102L10.7154 4.27137ZM3.86911 6.22729H2.55556L2.30703 5.67662H0.96025L0.709805 6.22729H0.00702778L1.16533 3.75745H2.12558L3.22511 6.09487V3.75745H4.27992L5.1258 5.4322L5.90333 3.75745H6.97986V6.22612H6.31542L6.31414 4.29412L5.37689 6.2267H4.80956L3.86975 4.2912V6.2267L3.86911 6.22729ZM1.63044 4.17629L1.19025 5.16095H2.07319L1.63044 4.17629ZM13.6978 6.2267H13.0384V3.75745H13.6984V6.22612L13.6978 6.2267ZM9.61783 6.2267H7.46222V3.75745H9.62167V4.27079H8.10878V4.71587H9.58525V5.22279H8.1075V5.71629H9.62039V6.22612L9.61783 6.2267Z" fill="#2671B9"/>
</g>
<defs>
<clipPath id="clip0">
<rect width="23" height="14" fill="white"/>
</clipPath>
</defs>
</svg>
