<svg width="36" height="36" viewBox="0 0 36 36" fill="none" xmlns="http://www.w3.org/2000/svg">
<path d="M18.36 4.44587C18.1933 4.44594 18.0287 4.48312 17.8783 4.55474C17.7278 4.62635 17.5951 4.73059 17.49 4.85987L17.403 4.92437C15.7719 4.42798 14.0369 4.38243 12.3821 4.79257C10.7273 5.20271 9.21438 6.05324 8.00396 7.25387C6.93111 8.3163 6.1333 9.62415 5.67958 11.0643C5.22585 12.5044 5.12988 14.0333 5.39996 15.5189L5.37746 15.5414L3.94046 16.9679C3.64372 17.2619 3.40817 17.6117 3.24742 17.9973C3.08667 18.3828 3.00391 18.7964 3.00391 19.2141C3.00391 19.6318 3.08667 20.0454 3.24742 20.431C3.40817 20.8165 3.64372 21.1664 3.94046 21.4604C4.28947 21.807 4.71361 22.0686 5.18001 22.225C5.64641 22.3813 6.14254 22.4281 6.62996 22.3619C6.80378 22.9943 7.16813 23.5579 7.67347 23.976C8.17882 24.3942 8.80065 24.6465 9.45446 24.6989C9.52167 25.468 9.86513 26.1868 10.4213 26.7223C10.9775 27.2579 11.7088 27.5738 12.48 27.6119C12.519 28.3724 12.8295 29.1194 13.413 29.6984C14.553 30.8324 16.341 30.9299 17.5935 29.9939L18.174 30.5699C18.7782 31.1686 19.5944 31.5045 20.445 31.5045C21.2956 31.5045 22.1117 31.1686 22.716 30.5699C23.271 30.0179 23.5815 29.3129 23.646 28.5929C24.3945 28.5295 25.0966 28.2041 25.6289 27.674C26.1612 27.1439 26.4895 26.4431 26.556 25.6949C27.2153 25.6343 27.8395 25.3702 28.3421 24.9391C28.8446 24.508 29.2007 23.9313 29.361 23.2889C29.8411 23.3464 30.328 23.2945 30.7852 23.1371C31.2424 22.9797 31.658 22.7208 32.001 22.3799C32.2975 22.0859 32.5328 21.7361 32.6934 21.3507C32.8541 20.9653 32.9368 20.5519 32.9368 20.1344C32.9368 19.7168 32.8541 19.3034 32.6934 18.918C32.5328 18.5326 32.2975 18.1828 32.001 17.8889L30.7515 16.6454L31.0095 15.6464C31.5676 13.4724 31.2865 11.1679 30.222 9.19187C29.4474 7.75732 28.299 6.55921 26.8985 5.72468C25.498 4.89014 23.8977 4.45032 22.2675 4.45187H19.857C19.754 4.44738 19.651 4.44538 19.548 4.44587H18.3615H18.36ZM22.7475 11.8634L27.9435 17.0264L27.948 17.0324L27.969 17.0519L30.4065 19.4744C30.4935 19.5608 30.5626 19.6636 30.6098 19.7769C30.657 19.8902 30.6812 20.0117 30.6812 20.1344C30.6812 20.2571 30.657 20.3786 30.6098 20.4918C30.5626 20.6051 30.4935 20.7079 30.4065 20.7944C30.2295 20.9693 29.9908 21.0675 29.742 21.0675C29.4931 21.0675 29.2544 20.9693 29.0775 20.7944L26.64 18.3719C26.4276 18.1616 26.1408 18.0436 25.842 18.0436C25.5431 18.0436 25.2563 18.1616 25.044 18.3719L25.02 18.3974C24.9152 18.5011 24.8321 18.6246 24.7754 18.7607C24.7187 18.8967 24.6895 19.0427 24.6895 19.1901C24.6895 19.3375 24.7187 19.4835 24.7754 19.6196C24.8321 19.7556 24.9152 19.8791 25.02 19.9829L26.919 21.8714C27.006 21.9578 27.0751 22.0606 27.1223 22.1739C27.1695 22.2872 27.1938 22.4087 27.1938 22.5314C27.1938 22.6541 27.1695 22.7756 27.1223 22.8888C27.0751 23.0021 27.006 23.1049 26.919 23.1914C26.7588 23.3508 26.5468 23.4475 26.3214 23.464C26.096 23.4805 25.8722 23.4157 25.6905 23.2814C25.4723 23.118 25.2025 23.0387 24.9306 23.058C24.6588 23.0773 24.4029 23.1939 24.21 23.3864C24.0178 23.5785 23.9023 23.8341 23.8852 24.1053C23.8681 24.3765 23.9505 24.6446 24.117 24.8594C24.2553 25.039 24.3233 25.263 24.3081 25.4892C24.2929 25.7155 24.1956 25.9284 24.0345 26.0879C23.8714 26.2494 23.6552 26.3461 23.4261 26.3599C23.197 26.3737 22.9707 26.3037 22.7895 26.1629C22.5726 25.9937 22.3017 25.9091 22.0271 25.9249C21.7526 25.9406 21.4931 26.0556 21.297 26.2484C21.1015 26.4407 20.9837 26.6982 20.966 26.9718C20.9483 27.2454 21.0319 27.516 21.201 27.7319C21.3427 27.9143 21.4127 28.1422 21.3978 28.3727C21.3828 28.6032 21.284 28.8203 21.12 28.9829C20.9402 29.1606 20.6977 29.2602 20.445 29.2602C20.1922 29.2602 19.9497 29.1606 19.77 28.9829L19.212 28.4294L19.3695 28.2719C19.666 27.9779 19.9013 27.6281 20.0619 27.2427C20.2226 26.8573 20.3053 26.4439 20.3053 26.0264C20.3053 25.6088 20.2226 25.1954 20.0619 24.81C19.9013 24.4246 19.666 24.0748 19.3695 23.7809C18.8085 23.2224 18.0601 22.8921 17.2695 22.8539C17.2267 22.0832 16.9062 21.3542 16.3674 20.8015C15.8285 20.2489 15.1078 19.9101 14.3385 19.8479C14.277 19.0966 13.9487 18.3921 13.413 17.8619C13.0639 17.5152 12.6398 17.2536 12.1734 17.0973C11.707 16.9409 11.2109 16.8941 10.7235 16.9604C10.533 16.27 10.1165 15.6634 9.54049 15.2378C8.96449 14.8122 8.26235 14.5921 7.54646 14.6129C7.43255 13.5578 7.55803 12.4907 7.91356 11.4908C8.2691 10.491 8.84553 9.58416 9.59996 8.83787C10.303 8.13946 11.1435 7.5948 12.0682 7.23846C12.9929 6.88211 13.9816 6.72186 14.9715 6.76787L12.726 8.46737C12.3611 8.74354 12.0544 9.08914 11.8235 9.48429C11.5927 9.87944 11.4423 10.3163 11.3809 10.7698C11.3196 11.2233 11.3486 11.6845 11.4661 12.1268C11.5837 12.569 11.7875 12.9837 12.066 13.3469C12.6283 14.0799 13.4576 14.5608 14.3731 14.6847C15.2886 14.8086 16.216 14.5655 16.953 14.0084L19.7865 11.8619H22.7475V11.8634ZM14.0835 10.2629L18.792 6.69588H19.548C19.6415 6.6952 19.7351 6.6977 19.8285 6.70337H22.2675C23.4912 6.70173 24.6926 7.03133 25.7442 7.65721C26.7958 8.28309 27.6584 9.18193 28.2405 10.2584C28.983 11.6384 29.2155 13.2254 28.9065 14.7509L24.09 9.95687C23.9851 9.84832 23.8595 9.76196 23.7206 9.70295C23.5817 9.64394 23.4324 9.61347 23.2815 9.61337H19.41C19.1647 9.61326 18.926 9.69333 18.7305 9.84137L15.5955 12.2159C15.3325 12.4143 15.0019 12.5008 14.6755 12.4567C14.3491 12.4126 14.0533 12.2414 13.8525 11.9804C13.7544 11.8526 13.6826 11.7066 13.6411 11.5509C13.5997 11.3952 13.5895 11.2329 13.6111 11.0732C13.6327 10.9136 13.6857 10.7598 13.7671 10.6207C13.8484 10.4816 13.9564 10.36 14.085 10.2629H14.0835ZM9.05246 22.1954C8.96538 22.1089 8.89627 22.0061 8.84911 21.8928C8.80195 21.7796 8.77767 21.6581 8.77767 21.5354C8.77767 21.4127 8.80195 21.2912 8.84911 21.1779C8.89627 21.0646 8.96538 20.9618 9.05246 20.8754L10.488 19.4474C10.6649 19.2724 10.9036 19.1743 11.1525 19.1743C11.4013 19.1743 11.64 19.2724 11.817 19.4474C11.9908 19.6199 12.0895 19.854 12.0918 20.0989C12.094 20.3438 11.9996 20.5797 11.829 20.7554L11.817 20.7674L10.3815 22.1939L10.368 22.2074C10.1901 22.3767 9.95333 22.4701 9.70778 22.4679C9.46223 22.4656 9.2272 22.3679 9.05246 22.1954ZM8.31596 17.1419C8.48601 17.3174 8.57983 17.5531 8.57702 17.7975C8.57421 18.0419 8.475 18.2753 8.30096 18.4469L6.86546 19.8749C6.68855 20.0498 6.44977 20.148 6.20096 20.148C5.95215 20.148 5.71337 20.0498 5.53646 19.8749C5.44938 19.7884 5.38027 19.6856 5.33311 19.5723C5.28595 19.4591 5.26167 19.3376 5.26167 19.2149C5.26167 19.0922 5.28595 18.9707 5.33311 18.8574C5.38027 18.7441 5.44938 18.6413 5.53646 18.5549L6.97346 17.1284C7.15037 16.9534 7.38915 16.8553 7.63796 16.8553C7.88678 16.8553 8.12555 16.9534 8.30246 17.1284L8.31596 17.1419ZM16.338 28.1129C16.161 28.2878 15.9223 28.386 15.6735 28.386C15.4246 28.386 15.1859 28.2878 15.009 28.1129C14.9219 28.0264 14.8528 27.9236 14.8056 27.8103C14.7585 27.6971 14.7342 27.5756 14.7342 27.4529C14.7342 27.3302 14.7585 27.2087 14.8056 27.0954C14.8528 26.9821 14.9219 26.8793 15.009 26.7929L16.4445 25.3664C16.6214 25.1914 16.8601 25.0933 17.109 25.0933C17.3578 25.0933 17.5965 25.1914 17.7735 25.3664C17.8605 25.4528 17.9296 25.5556 17.9768 25.6689C18.024 25.7822 18.0482 25.9037 18.0482 26.0264C18.0482 26.1491 18.024 26.2706 17.9768 26.3838C17.9296 26.4971 17.8605 26.5999 17.7735 26.6864L16.338 28.1129ZM13.3065 25.1009C13.1297 25.2762 12.8909 25.3746 12.642 25.3746C12.393 25.3746 12.1542 25.2762 11.9775 25.1009C11.8034 24.9285 11.7044 24.6945 11.7019 24.4496C11.6994 24.2048 11.7935 23.9688 11.964 23.7929L11.9775 23.7809L13.413 22.3544L13.425 22.3409C13.6031 22.1713 13.8403 22.0779 14.0862 22.0804C14.3321 22.0829 14.5673 22.1812 14.742 22.3544C14.829 22.4408 14.8981 22.5436 14.9453 22.6569C14.9925 22.7702 15.0167 22.8917 15.0167 23.0144C15.0167 23.1371 14.9925 23.2586 14.9453 23.3718C14.8981 23.4851 14.829 23.5879 14.742 23.6744L13.3065 25.1009Z" fill="white"/>
</svg>
