<svg width="24" height="24" viewBox="0 0 24 24" fill="none" xmlns="http://www.w3.org/2000/svg">
<path d="M5.6169 17.9439C5.59786 17.9368 5.57847 17.9293 5.55864 17.9214C5.48179 17.8907 5.41029 17.8657 5.34543 17.8431C5.32849 17.8372 5.31201 17.8315 5.296 17.8258C5.21735 17.7981 5.14837 17.772 5.08061 17.7382L5.08067 17.738L5.07548 17.7357C4.74858 17.5905 4.45669 17.4083 4.16221 17.1875L4.16228 17.1874L4.15803 17.1845C3.57604 16.7843 3.10092 16.2373 2.73398 15.5768L2.73402 15.5767L2.73245 15.5741C2.36748 14.9536 2.14847 14.2231 2.11204 13.5309L2.11218 13.5309L2.11159 13.525C2.07708 13.1799 2.10843 12.8676 2.14434 12.5098C2.14571 12.4961 2.1471 12.4824 2.14848 12.4685C2.16654 12.3786 2.18462 12.2972 2.20299 12.2146L2.20309 12.2141C2.20754 12.1941 2.21201 12.174 2.21649 12.1537C2.22816 12.2365 2.24457 12.316 2.26132 12.3971C2.26625 12.4209 2.27121 12.4449 2.27609 12.4692C2.31467 12.8129 2.39075 13.1544 2.46573 13.4544C2.61815 14.1019 2.84742 14.7141 3.19253 15.2893C3.53348 15.8575 3.91447 16.3915 4.41132 16.8884C4.63931 17.1163 4.90428 17.3435 5.1648 17.5668C5.28249 17.6838 5.43565 17.7988 5.5801 17.9071L5.6169 17.9439Z" fill="#0F1B2B" stroke="#0F1B2B" stroke-width="0.25"/>
<mask id="path-2-inside-1" fill="white">
<path d="M5.925 19.5375C5.8125 19.6125 5.6625 19.65 5.5125 19.6875C5.3625 19.725 5.25 19.7625 5.1 19.7625C4.8375 19.8 4.5375 19.8375 4.2375 19.8C3.675 19.7625 3.075 19.6125 2.5875 19.35C2.0625 19.0875 1.6125 18.675 1.3125 18.1875C1.1625 17.9625 1.0125 17.7 0.9 17.4375C0.8625 17.325 0.825 17.175 0.7875 17.025C0.7875 16.9125 0.75 16.8 0.75 16.65C0.8625 16.7625 0.9375 16.875 1.0125 16.95C1.125 17.0625 1.2 17.175 1.275 17.25C1.4625 17.4375 1.6125 17.625 1.8 17.775C2.175 18.1125 2.55 18.4125 3 18.6375C3.4125 18.8625 3.9 19.05 4.35 19.2C4.575 19.275 4.8375 19.3125 5.1 19.3875C5.2125 19.425 5.3625 19.425 5.475 19.4625C5.6625 19.5 5.775 19.5 5.925 19.5375Z"/>
</mask>
<path d="M5.925 19.5375C5.8125 19.6125 5.6625 19.65 5.5125 19.6875C5.3625 19.725 5.25 19.7625 5.1 19.7625C4.8375 19.8 4.5375 19.8375 4.2375 19.8C3.675 19.7625 3.075 19.6125 2.5875 19.35C2.0625 19.0875 1.6125 18.675 1.3125 18.1875C1.1625 17.9625 1.0125 17.7 0.9 17.4375C0.8625 17.325 0.825 17.175 0.7875 17.025C0.7875 16.9125 0.75 16.8 0.75 16.65C0.8625 16.7625 0.9375 16.875 1.0125 16.95C1.125 17.0625 1.2 17.175 1.275 17.25C1.4625 17.4375 1.6125 17.625 1.8 17.775C2.175 18.1125 2.55 18.4125 3 18.6375C3.4125 18.8625 3.9 19.05 4.35 19.2C4.575 19.275 4.8375 19.3125 5.1 19.3875C5.2125 19.425 5.3625 19.425 5.475 19.4625C5.6625 19.5 5.775 19.5 5.925 19.5375Z" fill="#0F1B2B"/>
<path d="M5.1 19.7625V19.5125H5.08223L5.06464 19.515L5.1 19.7625ZM4.2375 19.8L4.26851 19.5519L4.26134 19.551L4.25413 19.5505L4.2375 19.8ZM2.5875 19.35L2.70608 19.1297L2.6993 19.1264L2.5875 19.35ZM1.3125 18.1875L1.52556 18.0564L1.52051 18.0488L1.3125 18.1875ZM0.9 17.4375L0.662829 17.5165L0.666118 17.5264L0.670214 17.5359L0.9 17.4375ZM0.7875 17.025H0.5375V17.0557L0.544964 17.0856L0.7875 17.025ZM0.75 16.65L0.926777 16.4732L0.5 16.0464V16.65H0.75ZM1.275 17.25L1.09822 17.4267L1.275 17.25ZM1.8 17.775L1.96724 17.5891L1.96184 17.5843L1.95617 17.5797L1.8 17.775ZM3 18.6375L3.11979 18.4178L3.1118 18.4139L3 18.6375ZM5.1 19.3875L5.17913 19.1501L5.16868 19.1471L5.1 19.3875ZM5.475 19.4625L5.39594 19.6996L5.41071 19.7046L5.42597 19.7076L5.475 19.4625ZM5.78632 19.3294C5.71701 19.3757 5.61361 19.4045 5.45187 19.4449L5.57313 19.93C5.71139 19.8954 5.90799 19.8493 6.06367 19.7455L5.78632 19.3294ZM5.45187 19.4449C5.28248 19.4873 5.21054 19.5125 5.1 19.5125V20.0125C5.28946 20.0125 5.44252 19.9627 5.57313 19.93L5.45187 19.4449ZM5.06464 19.515C4.80177 19.5525 4.53175 19.5848 4.26851 19.5519L4.20649 20.048C4.54325 20.0901 4.87323 20.0474 5.13536 20.0099L5.06464 19.515ZM4.25413 19.5505C3.72031 19.5149 3.15641 19.3724 2.70603 19.1298L2.46898 19.5701C2.99359 19.8526 3.62969 20.01 4.22087 20.0494L4.25413 19.5505ZM2.6993 19.1264C2.21553 18.8845 1.80074 18.5038 1.52541 18.0564L1.09959 18.3185C1.42426 18.8461 1.90947 19.2905 2.4757 19.5736L2.6993 19.1264ZM1.52051 18.0488C1.37689 17.8334 1.23495 17.5844 1.12979 17.339L0.670214 17.5359C0.790052 17.8156 0.94811 18.0916 1.10449 18.3261L1.52051 18.0488ZM1.13717 17.3584C1.10338 17.257 1.06837 17.1177 1.03004 16.9643L0.544964 17.0856C0.581629 17.2323 0.621616 17.3929 0.662829 17.5165L1.13717 17.3584ZM1.0375 17.025C1.0375 16.9453 1.02415 16.8675 1.01584 16.8135C1.00668 16.754 1 16.7045 1 16.65H0.5C0.5 16.7455 0.512069 16.8272 0.521657 16.8895C0.532098 16.9574 0.5375 16.9921 0.5375 17.025H1.0375ZM0.573223 16.8267C0.620082 16.8736 0.660336 16.9216 0.701823 16.9723C0.739883 17.0189 0.787115 17.0781 0.835723 17.1267L1.18928 16.7732C1.16289 16.7468 1.13512 16.7123 1.0888 16.6557C1.04591 16.6033 0.992418 16.5388 0.926777 16.4732L0.573223 16.8267ZM0.835723 17.1267C0.882582 17.1736 0.922836 17.2216 0.964323 17.2723C1.00238 17.3189 1.04961 17.3781 1.09822 17.4267L1.45178 17.0732C1.42539 17.0468 1.39762 17.0123 1.3513 16.9557C1.30841 16.9033 1.25492 16.8388 1.18928 16.7732L0.835723 17.1267ZM1.09822 17.4267C1.18907 17.5176 1.26568 17.6031 1.35601 17.6985C1.44268 17.7899 1.53645 17.8843 1.64383 17.9702L1.95617 17.5797C1.87605 17.5157 1.80107 17.4412 1.71899 17.3546C1.64057 17.2718 1.54843 17.1698 1.45178 17.0732L1.09822 17.4267ZM1.63276 17.9608C2.01375 18.3037 2.40836 18.6212 2.8882 18.8611L3.1118 18.4139C2.69164 18.2038 2.33625 17.9212 1.96724 17.5891L1.63276 17.9608ZM2.88029 18.8569C3.31168 19.0922 3.81515 19.2852 4.27094 19.4371L4.42906 18.9628C3.98485 18.8147 3.51332 18.6327 3.11971 18.418L2.88029 18.8569ZM4.27094 19.4371C4.39724 19.4792 4.53089 19.5098 4.65671 19.5378C4.78625 19.5665 4.90893 19.5929 5.03132 19.6278L5.16868 19.1471C5.02857 19.1071 4.88875 19.0771 4.76517 19.0497C4.63786 19.0214 4.52776 18.9957 4.42906 18.9628L4.27094 19.4371ZM5.02094 19.6246C5.10271 19.6519 5.19216 19.6639 5.25214 19.6724C5.32341 19.6826 5.36521 19.6894 5.39594 19.6996L5.55406 19.2253C5.4723 19.198 5.38284 19.186 5.32286 19.1775C5.25159 19.1673 5.20979 19.1605 5.17906 19.1503L5.02094 19.6246ZM5.42597 19.7076C5.52909 19.7282 5.61235 19.7386 5.68102 19.7478C5.75023 19.757 5.80396 19.7649 5.86437 19.78L5.98563 19.2949C5.89604 19.2725 5.81852 19.2617 5.7471 19.2522C5.67515 19.2426 5.60841 19.2342 5.52403 19.2173L5.42597 19.7076Z" fill="#0F1B2B" mask="url(#path-2-inside-1)"/>
<mask id="path-4-inside-2" fill="white">
<path d="M14.4004 1.3125C14.5879 1.35 14.7379 1.425 14.9254 1.5C15.1129 1.575 15.2629 1.65 15.4129 1.725C15.7504 1.9125 16.0504 2.1 16.3504 2.325C16.9504 2.775 17.4379 3.375 17.7754 4.05C18.1129 4.725 18.3004 5.475 18.3004 6.1875C18.3004 6.5625 18.2629 6.9 18.1879 7.275C18.1504 7.4625 18.1129 7.6125 18.0379 7.8C17.9629 7.9875 17.9254 8.1375 17.8504 8.2875L17.8129 7.7625C17.8129 7.575 17.8129 7.425 17.7754 7.2375L17.6629 6.225C17.5504 5.5875 17.3254 4.95 17.0254 4.35C16.7254 3.75 16.3504 3.225 15.9004 2.7375C15.6754 2.475 15.4129 2.25 15.1879 1.9875C15.0754 1.875 14.9254 1.7625 14.7754 1.65L14.4004 1.3125Z"/>
</mask>
<path d="M14.4004 1.3125C14.5879 1.35 14.7379 1.425 14.9254 1.5C15.1129 1.575 15.2629 1.65 15.4129 1.725C15.7504 1.9125 16.0504 2.1 16.3504 2.325C16.9504 2.775 17.4379 3.375 17.7754 4.05C18.1129 4.725 18.3004 5.475 18.3004 6.1875C18.3004 6.5625 18.2629 6.9 18.1879 7.275C18.1504 7.4625 18.1129 7.6125 18.0379 7.8C17.9629 7.9875 17.9254 8.1375 17.8504 8.2875L17.8129 7.7625C17.8129 7.575 17.8129 7.425 17.7754 7.2375L17.6629 6.225C17.5504 5.5875 17.3254 4.95 17.0254 4.35C16.7254 3.75 16.3504 3.225 15.9004 2.7375C15.6754 2.475 15.4129 2.25 15.1879 1.9875C15.0754 1.875 14.9254 1.7625 14.7754 1.65L14.4004 1.3125Z" fill="#0F1B2B"/>
<path d="M15.4129 1.725L16.3842 -0.0233147L16.3462 -0.0444196L16.3073 -0.0638546L15.4129 1.725ZM18.1879 7.275L16.2267 6.88277L18.1879 7.275ZM17.8504 8.2875L15.8555 8.42999L16.3754 15.7095L19.6392 9.18193L17.8504 8.2875ZM17.8129 7.7625H15.8129V7.83384L15.818 7.90499L17.8129 7.7625ZM17.7754 7.2375L15.7876 7.45836L15.7972 7.54463L15.8142 7.62973L17.7754 7.2375ZM17.6629 6.225L19.6507 6.00413L19.6436 5.94049L19.6325 5.87743L17.6629 6.225ZM15.9004 2.7375L14.3819 4.03908L14.4058 4.06702L14.4308 4.09406L15.9004 2.7375ZM15.1879 1.9875L16.7064 0.685917L16.6564 0.627599L16.6021 0.573286L15.1879 1.9875ZM14.7754 1.65L13.4375 3.13659L13.5039 3.19638L13.5754 3.25L14.7754 1.65ZM14.0082 3.27366C13.9477 3.26158 13.9143 3.24699 13.938 3.2562C13.9533 3.26213 13.9736 3.27049 14.0179 3.28901C14.0559 3.30495 14.1173 3.33085 14.1826 3.35695L15.6682 -0.356954C15.6616 -0.359574 15.2189 -0.563411 14.7926 -0.648661L14.0082 3.27366ZM14.1826 3.35695C14.284 3.39752 14.3666 3.43791 14.5185 3.51385L16.3073 -0.0638546C16.1592 -0.137913 15.9418 -0.247517 15.6682 -0.356954L14.1826 3.35695ZM14.4416 3.47331C14.7209 3.62846 14.9403 3.76746 15.1504 3.925L17.5504 0.725C17.1604 0.432535 16.7799 0.196541 16.3842 -0.0233147L14.4416 3.47331ZM15.1504 3.925C15.4866 4.17719 15.779 4.52945 15.9865 4.94443L19.5642 3.15557C19.0967 2.22055 18.4141 1.37281 17.5504 0.725L15.1504 3.925ZM15.9865 4.94443C16.1978 5.36699 16.3004 5.81256 16.3004 6.1875H20.3004C20.3004 5.13744 20.028 4.08301 19.5642 3.15557L15.9865 4.94443ZM16.3004 6.1875C16.3004 6.41476 16.2792 6.62017 16.2267 6.88277L20.1491 7.66723C20.2465 7.17983 20.3004 6.71024 20.3004 6.1875H16.3004ZM16.2267 6.88277C16.2127 6.95279 16.2049 6.98414 16.1999 7.00221C16.1961 7.016 16.1914 7.03112 16.1809 7.05722L19.8948 8.54278C20.0314 8.20149 20.098 7.92262 20.1491 7.66723L16.2267 6.88277ZM16.1809 7.05722C16.1494 7.13599 16.1237 7.20629 16.1034 7.26314C16.0935 7.29116 16.0843 7.31738 16.0769 7.33849C16.0689 7.36139 16.0636 7.37677 16.0582 7.39217C16.0359 7.45537 16.0411 7.43391 16.0615 7.39307L19.6392 9.18193C19.7347 8.99109 19.7962 8.81963 19.8301 8.72345C19.8716 8.60584 19.8776 8.58599 19.8948 8.54278L16.1809 7.05722ZM19.8453 8.14501L19.8078 7.62001L15.818 7.90499L15.8555 8.42999L19.8453 8.14501ZM19.8129 7.7625C19.8129 7.58428 19.8176 7.25064 19.7366 6.84527L15.8142 7.62973C15.8134 7.62556 15.8124 7.61977 15.8117 7.61373C15.811 7.60791 15.811 7.60612 15.8113 7.61094C15.8116 7.61667 15.8121 7.62933 15.8125 7.65476C15.8129 7.68221 15.8129 7.71293 15.8129 7.7625H19.8129ZM19.7632 7.01663L19.6507 6.00413L15.6751 6.44587L15.7876 7.45836L19.7632 7.01663ZM19.6325 5.87743C19.4812 5.02052 19.1861 4.19932 18.8142 3.45557L15.2365 5.24443C15.4647 5.70068 15.6195 6.15448 15.6933 6.57257L19.6325 5.87743ZM18.8142 3.45557C18.4215 2.66999 17.9338 1.99174 17.37 1.38094L14.4308 4.09406C14.767 4.45826 15.0293 4.83001 15.2365 5.24443L18.8142 3.45557ZM17.4189 1.43592C17.2481 1.23667 17.0713 1.06119 16.9584 0.948285C16.8275 0.817441 16.7606 0.749169 16.7064 0.685917L13.6694 3.28908C13.8402 3.48833 14.017 3.66381 14.1299 3.77671C14.2608 3.90756 14.3277 3.97583 14.3819 4.03908L17.4189 1.43592ZM16.6021 0.573286C16.3686 0.339792 16.0925 0.137816 15.9754 0.0499998L13.5754 3.25C13.6553 3.30994 13.7047 3.3472 13.7463 3.38049C13.7881 3.41391 13.7906 3.41862 13.7737 3.40171L16.6021 0.573286ZM16.1133 0.163411L15.7383 -0.174088L13.0625 2.79909L13.4375 3.13659L16.1133 0.163411Z" fill="#0F1B2B" mask="url(#path-4-inside-2)"/>
<path d="M18.0178 1.43811C18.1164 1.47373 18.2451 1.53887 18.3428 1.60398C18.5677 1.75391 18.7866 1.89998 19.005 2.08178C19.4052 2.44606 19.7281 2.87899 19.9069 3.37952L19.9067 3.3796L19.9097 3.38672C20.1257 3.8906 20.1977 4.43016 20.1258 4.97037C20.0898 5.2219 20.0178 5.47503 19.9427 5.73793C19.9259 5.78772 19.9005 5.84726 19.8722 5.91323L19.8709 5.9163C19.8512 5.96235 19.83 6.01168 19.8121 6.0587V5.73748C19.8121 5.60065 19.8023 5.47423 19.793 5.35719L19.792 5.34564C19.7829 5.23171 19.7746 5.12803 19.7746 5.02498V5.01542L19.7732 5.00597C19.6986 4.52104 19.6218 4.05503 19.4267 3.62507C19.2351 3.16562 19.0056 2.78372 18.7426 2.37037L18.7432 2.36997L18.7347 2.35939C18.6618 2.26829 18.5886 2.16757 18.5132 2.06395L18.5123 2.06267C18.439 1.96192 18.3637 1.85843 18.2881 1.76356C18.2106 1.64836 18.1321 1.5683 18.0306 1.46666C18.0264 1.45696 18.0222 1.44744 18.0178 1.43811Z" fill="#0F1B2B" stroke="#0F1B2B" stroke-width="0.25"/>
<path d="M3.74968 6.75001C2.99968 7.08751 2.73718 7.98751 3.07468 8.73751L7.79968 18.6L10.4247 17.3625L5.69968 7.46251C5.36218 6.71251 4.49968 6.37501 3.74968 6.75001Z" fill="#FFDD67"/>
<path d="M16.1624 14.5875L18.9374 13.275L13.5374 2.02501C13.1624 1.27501 12.2624 0.937514 11.4749 1.31251C10.7249 1.68751 10.3874 2.58751 10.7624 3.37501L16.1624 14.5875Z" fill="#FFDD67"/>
<path d="M11.5121 1.27502C11.4371 1.31252 11.3621 1.35002 11.2871 1.42502C11.9996 1.23752 12.7496 1.57502 13.0871 2.25002L18.4871 13.5L18.9746 13.275L13.5746 2.02502C13.1996 1.23752 12.2996 0.900022 11.5121 1.27502Z" fill="#0F1B2B"/>
<path d="M10.4255 17.325L13.313 15.9375L7.80046 4.46253C7.42546 3.67503 6.45046 3.30003 5.66296 3.67503C4.87546 4.05003 4.53796 5.02503 4.91296 5.81253L10.4255 17.325Z" fill="#FFDD67"/>
<path d="M5.6625 3.71253C5.5875 3.75003 5.5125 3.78753 5.4375 3.86253C6.15 3.67503 6.975 4.01253 7.3125 4.72503L10.725 11.8875L11.55 12.375L7.8 4.50003C7.425 3.67503 6.4875 3.33753 5.6625 3.71253Z" fill="#0F1B2B"/>
<path d="M12.863 15.0375L15.7505 13.65L10.238 2.17501C9.86296 1.38751 8.88796 1.01251 8.10046 1.42501C7.31296 1.80001 6.97546 2.77501 7.35046 3.56251L12.863 15.0375Z" fill="#FFDD67"/>
<path d="M8.1 1.38751C8.025 1.42501 7.95 1.50001 7.875 1.53751C8.5875 1.35001 9.4125 1.68751 9.75 2.40001L13.6125 10.5L14.4375 10.9875L10.2375 2.17501C9.8625 1.35001 8.8875 1.01251 8.1 1.38751Z" fill="#0F1B2B"/>
<path d="M3.74941 6.75C3.67441 6.7875 3.59941 6.825 3.52441 6.9C4.19941 6.7125 4.91191 7.05 5.21191 7.725L8.02441 13.6125L8.84941 14.1L5.69941 7.5C5.36191 6.7125 4.49941 6.375 3.74941 6.75Z" fill="#0F1B2B"/>
<path d="M22.8 5.62497C21.7875 4.83747 20.1375 5.69997 19.3125 8.39997C18.75 10.275 18.675 10.8375 17.475 11.4L16.8 10.0125C16.8 10.0125 6.14996 15.15 6.56246 15.975C6.56246 15.975 7.83746 19.95 10.0125 21.7875C13.2375 24.5625 20.775 21.6 21.1125 14.4375C21.3 10.275 23.8875 6.48747 22.8 5.62497Z" fill="#FFDD67"/>
<mask id="path-16-inside-3" fill="white">
<path d="M22.8004 5.62499C22.6129 5.47499 22.3879 5.39999 22.1629 5.36249C22.2004 5.39999 22.2754 5.39999 22.3129 5.43749C23.4379 6.29999 22.2754 8.28749 21.6379 10.0875C21.1129 11.5125 20.6629 12.975 20.7379 14.4C21.0379 20.625 14.7754 23.5875 11.0254 22.4625C14.7004 24 22.3005 21.4875 22.0005 15C21.9255 13.575 22.2379 12 22.8004 10.5C23.4004 8.69999 23.8879 6.48749 22.8004 5.62499Z"/>
</mask>
<path d="M22.8004 5.62499C22.6129 5.47499 22.3879 5.39999 22.1629 5.36249C22.2004 5.39999 22.2754 5.39999 22.3129 5.43749C23.4379 6.29999 22.2754 8.28749 21.6379 10.0875C21.1129 11.5125 20.6629 12.975 20.7379 14.4C21.0379 20.625 14.7754 23.5875 11.0254 22.4625C14.7004 24 22.3005 21.4875 22.0005 15C21.9255 13.575 22.2379 12 22.8004 10.5C23.4004 8.69999 23.8879 6.48749 22.8004 5.62499Z" fill="#0F1B2B"/>
<path d="M22.8004 5.62499L21.551 7.18674L21.5576 7.19198L22.8004 5.62499ZM22.1629 5.36249L22.4917 3.3897L16.3357 2.3637L20.7487 6.7767L22.1629 5.36249ZM22.3129 5.43749L20.8987 6.8517L20.9917 6.94469L21.096 7.0247L22.3129 5.43749ZM21.6379 10.0875L23.5146 10.7789L23.5189 10.7671L23.5231 10.7552L21.6379 10.0875ZM20.7379 14.4L22.7356 14.3037L22.7351 14.2949L20.7379 14.4ZM11.0254 22.4625L11.6001 20.5468L10.2535 24.3075L11.0254 22.4625ZM22.0005 15L23.9984 14.9076L23.9977 14.8949L22.0005 15ZM22.8004 10.5L24.673 11.2022L24.686 11.1676L24.6978 11.1324L22.8004 10.5ZM24.0498 4.06325C23.5037 3.62635 22.9145 3.46017 22.4917 3.3897L21.8341 7.33528C21.8613 7.3398 21.7221 7.32363 21.551 7.18673L24.0498 4.06325ZM20.7487 6.7767C20.8713 6.89933 20.9936 6.99101 21.0992 7.0587C21.2038 7.12575 21.2982 7.17317 21.3693 7.20549C21.4401 7.23767 21.4998 7.26024 21.5367 7.27356C21.5714 7.28612 21.6026 7.29642 21.6054 7.29735C21.6167 7.30111 21.5995 7.2955 21.5786 7.28792C21.5555 7.27958 21.5092 7.26228 21.4513 7.23595C21.3931 7.2095 21.3111 7.16853 21.2179 7.10879C21.1237 7.04843 21.0119 6.96495 20.8987 6.8517L23.7271 4.02327C23.6045 3.90065 23.4821 3.80896 23.3766 3.74128C23.2719 3.67422 23.1776 3.62681 23.1065 3.59449C23.0357 3.5623 22.9759 3.53973 22.9391 3.52641C22.9044 3.51385 22.8732 3.50356 22.8703 3.50262C22.8591 3.49887 22.8763 3.50448 22.8972 3.51206C22.9203 3.5204 22.9666 3.53769 23.0245 3.56402C23.0827 3.59048 23.1647 3.63145 23.2579 3.69118C23.3521 3.75154 23.4639 3.83503 23.5771 3.94827L20.7487 6.7767ZM21.096 7.0247C20.886 6.86364 20.799 6.62532 20.7852 6.50707C20.7805 6.46707 20.7962 6.56168 20.7088 6.87732C20.6262 7.17574 20.4936 7.52975 20.3134 7.98047C20.1473 8.39594 19.9296 8.92003 19.7526 9.41979L23.5231 10.7552C23.6649 10.3549 23.8316 9.9556 24.0276 9.46521C24.2096 9.01007 24.4168 8.4758 24.5638 7.94453C24.8076 7.06406 25.183 5.11773 23.5298 3.85027L21.096 7.0247ZM19.7612 9.39608C19.2315 10.8338 18.6422 12.6351 18.7407 14.5051L22.7351 14.2949C22.6835 13.3149 22.9943 12.1912 23.5146 10.7789L19.7612 9.39608ZM18.7402 14.4963C18.8527 16.8314 17.7675 18.5041 16.2644 19.5414C14.6747 20.6385 12.7937 20.9049 11.6001 20.5468L10.4507 24.3781C13.0071 25.1451 16.1323 24.4927 18.5364 22.8335C21.0271 21.1146 22.923 18.1936 22.7356 14.3037L18.7402 14.4963ZM10.2535 24.3075C12.7759 25.3628 16.2337 24.9612 18.9498 23.5026C21.7792 21.9832 24.1921 19.0967 23.9984 14.9076L20.0026 15.0924C20.1089 17.3908 18.8717 19.0043 17.0574 19.9786C15.1296 21.0138 12.9499 21.0997 11.7973 20.6175L10.2535 24.3075ZM23.9977 14.8949C23.9409 13.8157 24.1786 12.5207 24.673 11.2022L20.9277 9.79774C20.2972 11.4792 19.91 13.3342 20.0033 15.1051L23.9977 14.8949ZM24.6978 11.1324C25.013 10.1868 25.3499 8.99114 25.4285 7.84817C25.4998 6.81125 25.4026 5.13613 24.0432 4.05799L21.5576 7.19198C21.2857 6.97635 21.4885 6.83873 21.4379 7.57368C21.3947 8.20259 21.1878 9.01321 20.903 9.86753L24.6978 11.1324Z" fill="#0F1B2B" mask="url(#path-16-inside-3)"/>
<path d="M17.8127 11.25C15.4877 11.5125 12.0752 14.85 14.4752 18.4875C12.7127 14.8125 15.6002 12.3375 17.4377 11.475C17.6252 11.325 17.8127 11.25 17.8127 11.25Z" fill="#EBA352"/>
</svg>
