<svg width="28" height="28" viewBox="0 0 28 28" fill="none" xmlns="http://www.w3.org/2000/svg">
<path fill-rule="evenodd" clip-rule="evenodd" d="M1.6377 14C1.6377 10.7212 2.94022 7.5766 5.25871 5.2581C7.57721 2.9396 10.7218 1.63708 14.0006 1.63708C17.2795 1.63708 20.424 2.9396 22.7425 5.2581C25.061 7.5766 26.3636 10.7212 26.3636 14C26.3636 17.2789 25.061 20.4234 22.7425 22.7419C20.424 25.0604 17.2795 26.363 14.0006 26.363C10.7218 26.363 7.57721 25.0604 5.25871 22.7419C2.94022 20.4234 1.6377 17.2789 1.6377 14ZM14.0006 3.41042C11.1921 3.41042 8.49859 4.52611 6.51265 6.51204C4.52672 8.49798 3.41103 11.1915 3.41103 14C3.41103 16.8086 4.52672 19.5021 6.51265 21.488C8.49859 23.4739 11.1921 24.5896 14.0006 24.5896C16.8092 24.5896 19.5027 23.4739 21.4886 21.488C23.4745 19.5021 24.5902 16.8086 24.5902 14C24.5902 11.1915 23.4745 8.49798 21.4886 6.51204C19.5027 4.52611 16.8092 3.41042 14.0006 3.41042ZM15.4006 19.6C15.4006 19.9713 15.2531 20.3274 14.9906 20.59C14.728 20.8525 14.3719 21 14.0006 21C13.6293 21 13.2732 20.8525 13.0107 20.59C12.7481 20.3274 12.6006 19.9713 12.6006 19.6C12.6006 19.2287 12.7481 18.8726 13.0107 18.6101C13.2732 18.3475 13.6293 18.2 14.0006 18.2C14.3719 18.2 14.728 18.3475 14.9906 18.6101C15.2531 18.8726 15.4006 19.2287 15.4006 19.6ZM11.294 11.6667C11.294 10.4011 12.386 9.19335 14.0006 9.19335C15.6153 9.19335 16.7073 10.4011 16.7073 11.6667C16.7073 12.5832 16.2033 13.0518 15.3334 13.58C15.2382 13.6398 15.1262 13.7032 15.0049 13.7742C14.6401 13.9757 14.2885 14.2001 13.9521 14.4462C13.5004 14.7971 12.974 15.3664 12.974 16.24C12.973 16.5123 13.0802 16.7738 13.272 16.9671C13.4639 17.1603 13.7246 17.2694 13.9969 17.2704C14.2692 17.2714 14.5307 17.1642 14.724 16.9724C14.9172 16.7805 15.0263 16.5198 15.0273 16.2475C15.0794 16.177 15.1424 16.1152 15.214 16.0646C15.4044 15.9171 15.6153 15.7958 15.8972 15.6315C16.0428 15.5475 16.2089 15.4504 16.4012 15.3347C17.398 14.728 18.7606 13.7275 18.7606 11.6667C18.7606 9.19895 16.6793 7.14002 14.0006 7.14002C11.322 7.14002 9.24063 9.19895 9.24063 11.6667C9.24063 11.939 9.3488 12.2001 9.54133 12.3926C9.73387 12.5852 9.99501 12.6934 10.2673 12.6934C10.5396 12.6934 10.8007 12.5852 10.9933 12.3926C11.1858 12.2001 11.294 11.939 11.294 11.6667Z" fill="#fff"/>
</svg>
