<svg width="16" height="16" viewBox="0 0 16 16" fill="none" xmlns="http://www.w3.org/2000/svg">
<path fill-rule="evenodd" clip-rule="evenodd" d="M0.0527344 7.99838C0.0527344 5.89055 0.890069 3.86904 2.38053 2.37858C3.871 0.888115 5.8925 0.0507813 8.00033 0.0507812C10.1082 0.0507813 12.1297 0.888115 13.6201 2.37858C15.1106 3.86904 15.9479 5.89055 15.9479 7.99838C15.9479 10.1062 15.1106 12.1277 13.6201 13.6182C12.1297 15.1086 10.1082 15.946 8.00033 15.946C5.8925 15.946 3.871 15.1086 2.38053 13.6182C0.890069 12.1277 0.0527344 10.1062 0.0527344 7.99838ZM8.00033 1.19078C6.19485 1.19078 4.46331 1.90801 3.18663 3.18468C1.90996 4.46135 1.19273 6.19289 1.19273 7.99838C1.19273 9.80387 1.90996 11.5354 3.18663 12.8121C4.46331 14.0888 6.19485 14.806 8.00033 14.806C9.80582 14.806 11.5374 14.0888 12.814 12.8121C14.0907 11.5354 14.8079 9.80387 14.8079 7.99838C14.8079 6.19289 14.0907 4.46135 12.814 3.18468C11.5374 1.90801 9.80582 1.19078 8.00033 1.19078ZM8.90034 11.5984C8.90034 11.8371 8.80551 12.066 8.63673 12.2348C8.46795 12.4036 8.23903 12.4984 8.00033 12.4984C7.76164 12.4984 7.53272 12.4036 7.36394 12.2348C7.19516 12.066 7.10033 11.8371 7.10033 11.5984C7.10033 11.3597 7.19516 11.1308 7.36394 10.962C7.53272 10.7932 7.76164 10.6984 8.00033 10.6984C8.23903 10.6984 8.46795 10.7932 8.63673 10.962C8.80551 11.1308 8.90034 11.3597 8.90034 11.5984ZM6.26033 6.49838C6.26033 5.68478 6.96233 4.90838 8.00033 4.90838C9.03833 4.90838 9.74033 5.68478 9.74033 6.49838C9.74033 7.08758 9.41633 7.38878 8.85713 7.72838C8.79593 7.76678 8.72394 7.80758 8.64594 7.85318C8.41143 7.98273 8.18537 8.12702 7.96913 8.28518C7.67873 8.51078 7.34033 8.87678 7.34033 9.43838C7.3397 9.61342 7.40862 9.78155 7.53195 9.90578C7.65527 10.03 7.82289 10.1001 7.99793 10.1008C8.17298 10.1014 8.3411 10.0325 8.46533 9.90917C8.58955 9.78585 8.6597 9.61823 8.66034 9.44318C8.69385 9.39787 8.73435 9.35817 8.78033 9.32558C8.90273 9.23078 9.03833 9.15278 9.21953 9.04718C9.31314 8.99318 9.41994 8.93078 9.54354 8.85638C10.1843 8.46638 11.0603 7.82318 11.0603 6.49838C11.0603 4.91198 9.72233 3.58838 8.00033 3.58838C6.27834 3.58838 4.94033 4.91198 4.94033 6.49838C4.94033 6.67342 5.00987 6.8413 5.13364 6.96507C5.25742 7.08885 5.42529 7.15838 5.60033 7.15838C5.77538 7.15838 5.94325 7.08885 6.06703 6.96507C6.1908 6.8413 6.26033 6.67342 6.26033 6.49838Z" fill="#40659E"/>
</svg>
