<svg width="43" height="35" viewBox="0 0 43 35" fill="none" xmlns="http://www.w3.org/2000/svg">
<path d="M8.29688 9.8443H29.3229" stroke="#40659E" stroke-width="2.5" stroke-linecap="round" stroke-linejoin="round"/>
<path fill-rule="evenodd" clip-rule="evenodd" d="M10.5887 17.6522L12.9249 17.6059C13.4972 17.5938 14.0537 17.8133 14.4886 18.2227C14.9236 18.6322 15.2068 19.2031 15.2845 19.8271L15.3056 20.1742V22.7039C15.3057 23.3774 15.0656 24.024 14.6371 24.5047C14.2085 24.9854 13.6256 25.2619 13.0137 25.2747L10.6775 25.321C10.1052 25.3331 9.54878 25.1137 9.11382 24.7042C8.67886 24.2948 8.39564 23.7238 8.3179 23.0998L8.29688 22.7502V20.2231C8.29676 19.5496 8.5368 18.903 8.96537 18.4223C9.39395 17.9415 9.97683 17.665 10.5887 17.6522V17.6522Z" stroke="#40659E" stroke-width="2.5" stroke-linecap="round" stroke-linejoin="round"/>
<path fill-rule="evenodd" clip-rule="evenodd" d="M5.95762 2.0918H31.6561C32.8954 2.0918 34.0838 2.63351 34.9601 3.59775C35.8363 4.562 36.3286 5.86981 36.3286 7.23346V32.9803H5.95762C4.7184 32.9803 3.52994 32.4386 2.65369 31.4744C1.77743 30.5101 1.28516 29.2023 1.28516 27.8387V7.23603C1.28516 5.87238 1.77743 4.56457 2.65369 3.60033C3.52994 2.63608 4.7184 2.09437 5.95762 2.09437V2.0918Z" stroke="#40659E" stroke-width="2.5" stroke-linecap="round" stroke-linejoin="round"/>
<path d="M19.9734 17.5534H29.3183" stroke="#40659E" stroke-width="2.5" stroke-linecap="round" stroke-linejoin="round"/>
<path d="M19.9734 25.2695H29.3183" stroke="#40659E" stroke-width="2.5" stroke-linecap="round" stroke-linejoin="round"/>
<path d="M35.1592 32.9818C36.7082 32.9818 38.1938 32.3046 39.2891 31.0993C40.3844 29.894 40.9998 28.2593 40.9998 26.5547V9.8443H36.3273" stroke="#40659E" stroke-width="2.5" stroke-linecap="round" stroke-linejoin="round"/>
</svg>
