<svg width="32" height="15" viewBox="0 0 32 15" fill="none" xmlns="http://www.w3.org/2000/svg">
<g clip-path="url(#clip0)">
<path d="M12.1496 0.1825L7.96 10.1772H5.22675L3.165 2.2005C3.04 1.71038 2.93138 1.53 2.551 1.32275C1.92925 0.985 0.9025 0.669125 0 0.472625L0.060875 0.1825H4.46138C5.02138 0.1825 5.52562 0.555375 5.65387 1.201L6.74325 6.98513L9.43275 0.1825H12.1496ZM15.8446 0.1825L13.7067 10.1772H11.1208L13.2589 0.1825H15.8448H15.8446ZM22.8591 6.914C22.8699 4.27662 19.2124 4.13025 19.2362 2.95187C19.245 2.59363 19.5863 2.21225 20.3333 2.11475C20.7033 2.06687 21.7255 2.02875 22.8834 2.56225L23.3364 0.4415C22.7142 0.2165 21.9136 0 20.9177 0C18.3615 0 16.5634 1.35775 16.549 3.3035C16.5322 4.74275 17.8334 5.54488 18.8119 6.02425C19.8197 6.51375 20.1578 6.82837 20.1531 7.26587C20.1459 7.9365 19.3481 8.23338 18.6065 8.24438C17.306 8.265 16.5521 7.89288 15.9508 7.61275L15.4814 9.80375C16.0864 10.081 17.2014 10.3219 18.3563 10.3341C21.0738 10.3341 22.8511 8.992 22.8591 6.91412V6.914ZM29.6091 10.1772H32L29.9112 0.1825H27.7054C27.2079 0.1825 26.7897 0.47125 26.6042 0.915125L22.7243 10.1772H25.4396L25.9783 8.68425H29.2957L29.6092 10.1772H29.6091ZM26.7229 6.63613L28.0844 2.88275L28.8665 6.63613H26.7227H26.7229ZM19.1541 12.9284H18.1034V13.9062H19.2786V14.2002H17.7494V11.4875H19.2184V11.7815H18.1034V12.6386H19.154V12.9286L19.1541 12.9284ZM19.8215 11.3426H20.1755V14.2001H19.8215V11.3426ZM21.0688 13.2905C21.0767 13.7696 21.3787 13.9668 21.7367 13.9668C21.9905 13.9668 22.1474 13.9225 22.2764 13.8663L22.3406 14.1199C22.2159 14.1761 21.9986 14.2445 21.6885 14.2445C21.089 14.2445 20.7309 13.8461 20.7309 13.2584C20.7309 12.6709 21.0767 12.2119 21.6444 12.2119C22.2844 12.2119 22.4494 12.7675 22.4494 13.1256C22.4494 13.198 22.4452 13.2502 22.4371 13.2906H21.0688V13.2905ZM22.1071 13.037C22.1112 12.8158 22.0146 12.4655 21.6161 12.4655C21.2539 12.4655 21.1009 12.7915 21.0726 13.037H22.1071ZM24.3764 14.1318C24.2839 14.1761 24.0785 14.2446 23.817 14.2446C23.2294 14.2446 22.847 13.8461 22.847 13.2504C22.847 12.6506 23.2574 12.212 23.8934 12.212C24.1026 12.212 24.2878 12.2641 24.3844 12.3166L24.3041 12.5863C24.2192 12.542 24.0865 12.4935 23.8934 12.4935C23.4465 12.4935 23.2052 12.8276 23.2052 13.2304C23.2052 13.681 23.495 13.9587 23.8814 13.9587C24.0826 13.9587 24.2154 13.9105 24.316 13.8663L24.3764 14.1318ZM25.3699 11.7852V12.2521H25.8769V12.5216H25.3699V13.5723C25.3699 13.814 25.4384 13.9506 25.6355 13.9506C25.732 13.9506 25.7885 13.9427 25.8409 13.9264L25.857 14.1964C25.7885 14.2204 25.6799 14.2445 25.543 14.2445C25.3779 14.2445 25.245 14.1881 25.1606 14.0957C25.064 13.9869 25.0238 13.814 25.0238 13.5845V12.5216H24.7218V12.2521H25.0238V11.89L25.37 11.7854L25.3699 11.7852ZM26.3715 12.86C26.3715 12.6305 26.3673 12.4334 26.3554 12.2521H26.6654L26.6816 12.6384H26.6934C26.7821 12.377 26.9993 12.2119 27.2366 12.2119C27.273 12.2119 27.3013 12.216 27.3335 12.2199V12.5541C27.2973 12.5459 27.2611 12.5459 27.2125 12.5459C26.9632 12.5459 26.7859 12.731 26.7377 12.9969C26.7294 13.0515 26.7254 13.1066 26.7256 13.1619V14.2004H26.3715V12.86ZM29.5104 13.21C29.5104 13.9305 29.0071 14.2445 28.5404 14.2445C28.017 14.2445 27.6066 13.858 27.6066 13.2424C27.6066 12.5943 28.0372 12.212 28.5726 12.212C29.132 12.212 29.5104 12.6182 29.5104 13.2101V13.21ZM27.9688 13.2303C27.9688 13.6569 28.2103 13.979 28.5564 13.979C28.8946 13.979 29.148 13.6608 29.148 13.2221C29.148 12.8921 28.983 12.4774 28.5644 12.4774C28.15 12.4774 27.9688 12.864 27.9688 13.2303ZM30.0531 12.7794C30.0531 12.5743 30.0489 12.4131 30.0369 12.2522H30.3509L30.371 12.5743H30.379C30.4756 12.393 30.701 12.212 31.023 12.212C31.2925 12.212 31.7113 12.373 31.7113 13.0409V14.2002H31.3571V13.0772C31.3571 12.7635 31.2404 12.5016 30.9064 12.5016C30.6769 12.5016 30.4956 12.6667 30.4315 12.8639C30.4152 12.9083 30.4072 12.9685 30.4072 13.029V14.2002H30.0531V12.7794Z" fill="#1A1F71"/>
</g>
<defs>
<clipPath id="clip0">
<rect width="32" height="14.25" fill="white"/>
</clipPath>
</defs>
</svg>
