<svg width="34" height="34" viewBox="0 0 34 34" fill="none" xmlns="http://www.w3.org/2000/svg">
<g clip-path="url(#clip0)">
<path d="M28.2696 13.42C27.61 12.7604 26.5427 12.7604 25.8831 13.42L20.1821 19.1211C18.0608 21.2424 15.6743 20.9772 14.3518 19.6547C13.026 18.3289 12.7575 15.9391 14.8788 13.8178L20.5798 8.11672C21.2394 7.45712 21.2394 6.38983 20.5798 5.73023L17.146 2.29634C16.483 1.63343 15.4058 1.63675 14.7462 2.3096C13.9441 3.13161 12.8304 4.2652 11.7333 5.36894L11.6968 5.33248L10.6362 6.39314L10.6726 6.4296C9.79757 7.29802 9.00207 8.07363 8.47174 8.55755C3.4767 13.5526 4.80915 21.249 8.80651 25.2464C12.8072 29.2471 20.4473 30.5232 25.4423 25.5281L31.7168 19.2536C32.3764 18.5941 32.3764 17.5268 31.7168 16.8672L28.2696 13.42ZM15.956 3.4929L19.3866 6.92347L16.3372 9.97287L12.9265 6.56219C14.0303 5.45181 15.1473 4.31491 15.956 3.4929ZM24.2225 24.3614C23.2116 25.3657 22.0383 26.1082 20.7356 26.5623C19.5159 26.9932 18.2099 27.1655 16.8543 27.076C15.5715 26.9932 14.2656 26.6683 13.0724 26.138C11.9023 25.6176 10.8383 24.8984 9.99313 24.0531C9.14791 23.2079 8.42534 22.1406 7.89832 20.964C7.36136 19.7641 7.03322 18.4482 6.94373 17.1588C6.85092 15.7932 7.01996 14.484 7.44091 13.2609C7.89169 11.955 8.63084 10.7849 9.62852 9.774C10.1787 9.27019 10.9776 8.49126 11.8559 7.61953L15.2732 11.0368L13.6822 12.6278C12.0515 14.2586 11.667 15.896 11.6338 16.9832C11.6106 17.7223 11.7366 18.4383 12.0084 19.1144C12.2702 19.7674 12.658 20.3541 13.1552 20.8513C13.6524 21.3485 14.2391 21.7363 14.8921 21.9981C15.5682 22.2699 16.2842 22.3959 17.02 22.3693C18.1039 22.3329 19.7413 21.9484 21.372 20.3176L22.963 18.7266L26.3737 22.1373C25.5086 23.009 24.7264 23.8112 24.2225 24.3614ZM24.027 17.6627L27.0764 14.6133L30.507 18.0438C29.6816 18.8493 28.5447 19.9663 27.4377 21.0733L24.027 17.6627Z" fill="white"/>
</g>
<defs>
<clipPath id="clip0">
<rect width="24" height="24" fill="white" transform="translate(17 0.0292969) rotate(45)"/>
</clipPath>
</defs>
</svg>
