<svg width="32" height="32" viewBox="0 0 32 32" fill="none" xmlns="http://www.w3.org/2000/svg">
<path d="M16 0C13.1988 0.000755028 10.4469 0.736641 8.01934 2.13411C5.59174 3.53158 3.57346 5.54169 2.16622 7.96353C0.758983 10.3854 0.0120744 13.1341 0.00014517 15.935C-0.011784 18.736 0.711684 21.491 2.09824 23.9247L0.657605 28.9668C0.563551 29.296 0.559242 29.6443 0.645124 29.9757C0.731006 30.3071 0.903955 30.6096 1.14605 30.8517C1.38815 31.0938 1.69058 31.2667 2.02201 31.3526C2.35345 31.4385 2.70182 31.4342 3.03104 31.3402L8.07376 29.8997C10.2027 31.1134 12.582 31.8219 15.0282 31.9705C17.4743 32.1192 19.9219 31.704 22.1822 30.7571C24.4425 29.8102 26.455 28.3567 28.0646 26.5089C29.6743 24.6611 30.8379 22.4683 31.4658 20.0996C32.0938 17.7309 32.1692 15.2497 31.6863 12.8473C31.2034 10.4448 30.1751 8.18538 28.6807 6.24323C27.1863 4.30108 25.2657 2.72811 23.0671 1.64565C20.8685 0.563193 18.4506 0.00016649 16 0ZM16 30.7178C13.3563 30.7196 10.7611 30.0085 8.48767 28.6593C8.4127 28.6147 8.3294 28.5859 8.2429 28.5747C8.15639 28.5635 8.06851 28.57 7.98464 28.594L2.67952 30.1096C2.56978 30.1409 2.45365 30.1424 2.34316 30.1137C2.23267 30.0851 2.13185 30.0275 2.05115 29.9468C1.97044 29.8661 1.91279 29.7652 1.88416 29.6548C1.85553 29.5443 1.85697 29.4282 1.88832 29.3184L3.40384 24.0138C3.42783 23.93 3.43441 23.8421 3.42318 23.7556C3.41196 23.6691 3.38316 23.5858 3.33856 23.5108C1.68058 20.7177 0.992981 17.4547 1.38288 14.2302C1.77278 11.0056 3.21828 8.00047 5.49421 5.68298C7.77014 3.36548 10.7487 1.86572 13.9659 1.41733C17.1831 0.968945 20.4582 1.5971 23.2812 3.20396C26.1041 4.81081 28.3164 7.30613 29.5732 10.3012C30.8301 13.2963 31.061 16.6229 30.2301 19.7629C29.3991 22.9029 27.5529 25.6799 24.9791 27.6614C22.4052 29.6428 19.2483 30.7174 16 30.7178ZM21.76 13.4391C21.76 13.6088 21.6926 13.7716 21.5725 13.8916C21.4525 14.0116 21.2897 14.079 21.12 14.079H10.88C10.7103 14.079 10.5475 14.0116 10.4274 13.8916C10.3074 13.7716 10.24 13.6088 10.24 13.4391C10.24 13.2693 10.3074 13.1066 10.4274 12.9865C10.5475 12.8665 10.7103 12.7991 10.88 12.7991H21.12C21.2897 12.7991 21.4525 12.8665 21.5725 12.9865C21.6926 13.1066 21.76 13.2693 21.76 13.4391ZM21.76 18.5587C21.76 18.7284 21.6926 18.8912 21.5725 19.0112C21.4525 19.1312 21.2897 19.1987 21.12 19.1987H10.88C10.7103 19.1987 10.5475 19.1312 10.4274 19.0112C10.3074 18.8912 10.24 18.7284 10.24 18.5587C10.24 18.389 10.3074 18.2262 10.4274 18.1062C10.5475 17.9862 10.7103 17.9187 10.88 17.9187H21.12C21.2897 17.9187 21.4525 17.9862 21.5725 18.1062C21.6926 18.2262 21.76 18.389 21.76 18.5587Z" fill="white"/>
</svg>
