<svg width="20" height="20" viewBox="0 0 20 20" fill="none" xmlns="http://www.w3.org/2000/svg">
<path d="M10.8337 9.99967C10.8337 9.53944 10.4606 9.16634 10.0003 9.16634C9.54009 9.16634 9.16699 9.53944 9.16699 9.99967C9.16699 10.4599 9.54009 10.833 10.0003 10.833C10.4606 10.833 10.8337 10.4599 10.8337 9.99967Z" stroke="#40659E" stroke-width="2" stroke-linecap="round" stroke-linejoin="round"/>
<path d="M5.00016 9.99967C5.00016 9.53944 4.62707 9.16634 4.16683 9.16634C3.70659 9.16634 3.3335 9.53944 3.3335 9.99967C3.3335 10.4599 3.70659 10.833 4.16683 10.833C4.62707 10.833 5.00016 10.4599 5.00016 9.99967Z" stroke="#40659E" stroke-width="2" stroke-linecap="round" stroke-linejoin="round"/>
<path d="M16.6667 9.99967C16.6667 9.53944 16.2936 9.16634 15.8333 9.16634C15.3731 9.16634 15 9.53944 15 9.99967C15 10.4599 15.3731 10.833 15.8333 10.833C16.2936 10.833 16.6667 10.4599 16.6667 9.99967Z" stroke="#40659E" stroke-width="2" stroke-linecap="round" stroke-linejoin="round"/>
</svg>
