<svg width="20" height="18" viewBox="0 0 20 18" fill="none" xmlns="http://www.w3.org/2000/svg">
<path d="M18.2507 3.1875H14.3125V2.25C14.3119 1.70318 14.0944 1.17894 13.7077 0.792277C13.321 0.405618 12.7968 0.18812 12.25 0.1875H7.74998C7.20316 0.18812 6.67892 0.405618 6.29226 0.792277C5.9056 1.17894 5.6881 1.70318 5.68748 2.25V3.1875H1.75073C1.40276 3.1879 1.06915 3.3263 0.823093 3.57236C0.577038 3.81842 0.438629 4.15203 0.438232 4.5V16.5C0.438629 16.848 0.577038 17.1816 0.823093 17.4276C1.06915 17.6737 1.40276 17.8121 1.75073 17.8125H18.2507C18.5987 17.8121 18.9323 17.6737 19.1784 17.4276C19.4244 17.1816 19.5628 16.848 19.5632 16.5V4.5C19.5628 4.15203 19.4244 3.81842 19.1784 3.57236C18.9323 3.3263 18.5987 3.1879 18.2507 3.1875ZM6.81248 2.25C6.81278 2.00145 6.91165 1.76317 7.0874 1.58742C7.26315 1.41167 7.50143 1.3128 7.74998 1.3125H12.25C12.4985 1.3128 12.7368 1.41167 12.9126 1.58742C13.0883 1.76317 13.1872 2.00145 13.1875 2.25V3.1875H6.81248V2.25ZM1.75073 4.3125H18.2507C18.3004 4.31257 18.3481 4.33235 18.3832 4.3675C18.4184 4.40265 18.4382 4.45029 18.4382 4.5V8.51091C15.8551 9.93901 12.9516 10.6879 9.99998 10.6875C7.04891 10.6879 4.14602 9.93925 1.56323 8.51166V4.5C1.56331 4.45029 1.58309 4.40265 1.61823 4.3675C1.65338 4.33235 1.70103 4.31257 1.75073 4.3125ZM18.2507 16.6875H1.75073C1.70103 16.6874 1.65338 16.6676 1.61823 16.6325C1.58309 16.5974 1.56331 16.5497 1.56323 16.5V9.78563C4.17601 11.1179 7.06715 11.8125 9.99998 11.8125C12.9334 11.8125 15.8251 11.1176 18.4382 9.78487V16.5C18.4382 16.5497 18.4184 16.5974 18.3832 16.6325C18.3481 16.6676 18.3004 16.6874 18.2507 16.6875ZM8.31248 8.25C8.31248 8.10082 8.37175 7.95774 8.47723 7.85225C8.58272 7.74676 8.7258 7.6875 8.87498 7.6875H11.125C11.2742 7.6875 11.4172 7.74676 11.5227 7.85225C11.6282 7.95774 11.6875 8.10082 11.6875 8.25C11.6875 8.39918 11.6282 8.54226 11.5227 8.64775C11.4172 8.75324 11.2742 8.8125 11.125 8.8125H8.87498C8.7258 8.8125 8.58272 8.75324 8.47723 8.64775C8.37175 8.54226 8.31248 8.39918 8.31248 8.25Z" fill="#44546A"/>
</svg>
