<svg width="21" height="21" viewBox="0 0 21 21" fill="none" xmlns="http://www.w3.org/2000/svg">
<path d="M4.5 7.16479H13.5" stroke="#104378" stroke-linecap="round" stroke-linejoin="round"/>
<path fill-rule="evenodd" clip-rule="evenodd" d="M5.481 10.203L6.481 10.185C6.72596 10.1803 6.96413 10.2657 7.15031 10.4249C7.33649 10.5842 7.45772 10.8063 7.491 11.049L7.5 11.184V12.168C7.50005 12.43 7.3973 12.6815 7.21386 12.8685C7.03041 13.0555 6.78091 13.163 6.519 13.168L5.519 13.186C5.27404 13.1907 5.03587 13.1053 4.84969 12.9461C4.66351 12.7868 4.54228 12.5647 4.509 12.322L4.5 12.186V11.203C4.49995 10.941 4.6027 10.6895 4.78614 10.5025C4.96959 10.3155 5.21909 10.208 5.481 10.203V10.203Z" stroke="#104378" stroke-linecap="round" stroke-linejoin="round"/>
<path fill-rule="evenodd" clip-rule="evenodd" d="M3.5 4.1499H14.5C15.0304 4.1499 15.5391 4.36062 15.9142 4.73569C16.2893 5.11076 16.5 5.61947 16.5 6.1499V16.1649H3.5C2.96957 16.1649 2.46086 15.9542 2.08579 15.5791C1.71071 15.204 1.5 14.6953 1.5 14.1649V6.1509C1.5 5.62047 1.71071 5.11176 2.08579 4.73669C2.46086 4.36162 2.96957 4.1509 3.5 4.1509V4.1499Z" stroke="#104378" stroke-linecap="round" stroke-linejoin="round"/>
<path d="M9.5 10.1648H13.5" stroke="#104378" stroke-linecap="round" stroke-linejoin="round"/>
<path d="M9.5 13.1648H13.5" stroke="#104378" stroke-linecap="round" stroke-linejoin="round"/>
<path d="M16 16.1648C16.663 16.1648 17.2989 15.9014 17.7678 15.4326C18.2366 14.9637 18.5 14.3278 18.5 13.6648V7.16479H16.5" stroke="#104378" stroke-linecap="round" stroke-linejoin="round"/>
</svg>
