<svg width="30" height="26" viewBox="0 0 30 26" fill="none" xmlns="http://www.w3.org/2000/svg">
<path d="M5.25036 19.1064C5.05144 19.1064 4.86066 19.0229 4.72 18.8743C4.57934 18.7257 4.50032 18.5241 4.50032 18.314V8.40877C4.49606 8.34125 4.48329 8.27462 4.46235 8.21067L11.2507 1.93423L16.3323 6.63178C16.7166 6.26687 17.1417 5.95286 17.598 5.69673L11.7444 0.286499C11.6077 0.160268 11.4323 0.0906995 11.2507 0.0906995C11.0692 0.0906995 10.8938 0.160268 10.7571 0.286499L0.256465 9.99361C0.182284 10.0621 0.121604 10.1454 0.0778885 10.2387C0.034173 10.332 0.00827867 10.4335 0.00168386 10.5373C-0.011635 10.7471 0.054466 10.9539 0.185445 11.1122C0.316425 11.2704 0.501553 11.3673 0.700105 11.3813C0.798417 11.3883 0.897066 11.3747 0.990419 11.3414C1.08377 11.3081 1.17 11.2557 1.24418 11.1872L3.00023 9.56174V18.314C3.00085 18.9443 3.23811 19.5486 3.65996 19.9942C4.08181 20.4399 4.65378 20.6906 5.25036 20.6912H14.0311C14.1734 20.4176 14.345 20.1622 14.5425 19.93L15.2457 19.1064H5.25036ZM8.5004 8.01256C8.23536 8.01335 7.98139 8.12497 7.79402 8.32302C7.60665 8.52106 7.50112 8.78943 7.5005 9.06945V13.2955C7.50124 13.5754 7.60683 13.8437 7.79418 14.0416C7.98154 14.2396 8.23544 14.3511 8.5004 14.3519H12.4991C12.7644 14.3516 13.0188 14.2403 13.2065 14.0423C13.3943 13.8443 13.5001 13.5758 13.5009 13.2955V9.06945C13.5002 8.78909 13.3945 8.52042 13.2067 8.32232C13.0189 8.12421 12.7645 8.01283 12.4991 8.01256H8.5004ZM12.0008 12.7671H9.00059V9.5974H12.0008V12.7671ZM29.324 12.3362L28.4052 11.2917L27.9969 9.88019C27.6275 8.58707 26.9056 7.51285 25.9722 6.76996C26.5377 6.35803 26.9746 5.77804 27.2278 5.10349C27.4809 4.42893 27.5388 3.69018 27.3941 2.98083C27.2494 2.27148 26.9087 1.62347 26.4151 1.11892C25.9215 0.614356 25.2972 0.275957 24.6214 0.146599C23.9455 0.0172413 23.2486 0.102747 22.6188 0.392282C21.989 0.681817 21.4548 1.16235 21.0837 1.77298C20.7127 2.38362 20.5216 3.09688 20.5346 3.82238C20.5477 4.54787 20.7643 5.25295 21.157 5.84828C20.4669 6.03647 19.8256 6.33363 19.0329 6.71052L18.6302 6.89872C17.5052 7.41875 16.5957 8.38896 16.0566 9.63256L15.503 11.0193C15.1617 11.8711 15.2363 12.7874 15.7008 13.5303C15.9244 13.8862 16.2272 14.1788 16.5826 14.3824C16.938 14.5861 17.3352 14.6947 17.7396 14.6986C18.3118 14.6995 18.8631 14.4712 19.2823 14.0597C19.2907 14.129 19.2997 14.1934 19.31 14.2632L18.6434 16.1893L17.8802 18.3987L15.6572 20.9933C14.7811 22.0037 14.7811 23.5885 15.6572 24.6038C15.8771 24.8624 16.1459 25.0692 16.4464 25.2108C16.7468 25.3523 17.0721 25.4255 17.4011 25.4255C17.7301 25.4255 18.0554 25.3523 18.3558 25.2108C18.6563 25.0692 18.9251 24.8624 19.145 24.6038L21.3332 22.0681C21.7841 21.5414 22.1343 20.9275 22.3645 20.2604L22.7733 19.0772L23.2697 19.6066C23.2917 19.6334 23.3064 19.6659 23.3124 19.7007L24.0432 23.3755C24.2828 24.579 25.2672 25.4457 26.3838 25.4457C26.5749 25.4454 26.7652 25.4205 26.9506 25.3714C28.235 25.0292 29.0132 23.6583 28.7319 22.2558L28.0006 18.5864C27.8721 17.9428 27.6386 17.3278 27.3106 16.7688C27.3962 16.7788 27.4823 16.7837 27.5684 16.7836C28.5205 16.7836 29.3925 16.1596 29.7909 15.1894C30.1894 14.2192 30.0103 13.1286 29.3221 12.3362H29.324ZM24.0015 1.67323C24.3909 1.67323 24.7716 1.79522 25.0953 2.02379C25.4191 2.25235 25.6715 2.57722 25.8205 2.95731C25.9695 3.33739 26.0085 3.75563 25.9325 4.15913C25.8566 4.56263 25.6691 4.93327 25.3937 5.22417C25.1183 5.51508 24.7675 5.71319 24.3856 5.79345C24.0037 5.87371 23.6078 5.83252 23.248 5.67508C22.8883 5.51764 22.5808 5.25103 22.3644 4.90896C22.1481 4.56689 22.0326 4.16473 22.0326 3.75332C22.0326 3.20165 22.2401 2.67257 22.6093 2.28247C22.9785 1.89238 23.4793 1.67323 24.0015 1.67323ZM20.9544 19.7156C20.7923 20.1894 20.5441 20.6252 20.2236 20.9983L18.034 23.5345C17.9543 23.6303 17.8563 23.707 17.7465 23.7598C17.6367 23.8126 17.5175 23.8401 17.3969 23.8406C17.2764 23.839 17.1576 23.811 17.0479 23.7583C16.9382 23.7056 16.8401 23.6294 16.7598 23.5345C16.5899 23.3315 16.4962 23.0698 16.4962 22.7988C16.4962 22.5278 16.5899 22.2662 16.7598 22.0631L18.9481 19.5274C19.0944 19.3576 19.208 19.1593 19.2823 18.9435L20.0455 16.7341L20.0497 16.7396L20.0966 16.799L21.456 18.2501L20.9544 19.7156ZM27.568 15.2042C27.3617 15.2042 27.1461 15.1151 26.9586 14.8967L25.8579 13.6442C25.6198 13.3687 25.4436 13.0402 25.3422 12.6829C24.8073 10.8256 24.8031 10.7073 24.5218 10.2809L23.5416 14.8224L25.5574 16.9723C26.0536 17.508 26.3924 18.184 26.5329 18.9187L27.2637 22.5881C27.3767 23.1472 27.0762 23.7079 26.5887 23.8361C26.5218 23.854 26.4529 23.8624 26.3838 23.8609C25.9427 23.8609 25.6 23.485 25.5105 23.0536L24.7797 19.3788C24.7171 19.045 24.5621 18.7384 24.3343 18.4977L21.3763 15.3325C20.833 14.6491 20.6408 13.7873 20.818 12.9701L21.5596 9.53797C21.1377 9.69645 20.7111 9.89951 19.8997 10.2809C19.5165 10.4619 19.2106 10.7868 19.0414 11.1926L18.5168 12.5095C18.3438 12.9404 18.0433 13.1187 17.7386 13.1187C17.1526 13.1187 16.5568 12.4555 16.885 11.6384L17.4245 10.2908C17.8146 9.38939 18.4516 8.71088 19.2354 8.34934C20.8377 7.60199 21.517 7.22015 22.8253 7.22015C24.5261 7.22015 26.0262 8.47266 26.5653 10.3403L27.0486 12.0197C27.0627 12.0715 27.0882 12.119 27.1231 12.1584L28.2205 13.4109C28.881 14.1687 28.2632 15.2042 27.5684 15.2042H27.568Z" fill="white"/>
</svg>
