<svg width="20" height="20" viewBox="0 0 20 20" fill="none" xmlns="http://www.w3.org/2000/svg">
<path d="M3 5C3 4.46957 3.21071 3.96086 3.58579 3.58579C3.96086 3.21071 4.46957 3 5 3H12C12.5304 3 13.0391 3.21071 13.4142 3.58579C13.7893 3.96086 14 4.46957 14 5V12H17V14C17 14.7956 16.6839 15.5587 16.1213 16.1213C15.5587 16.6839 14.7956 17 14 17H6C5.20435 17 4.44129 16.6839 3.87868 16.1213C3.31607 15.5587 3 14.7956 3 14V5ZM14 13V16C14.5304 16 15.0391 15.7893 15.4142 15.4142C15.7893 15.0391 16 14.5304 16 14V13H14ZM13 16V5C13 4.73478 12.8946 4.48043 12.7071 4.29289C12.5196 4.10536 12.2652 4 12 4H5C4.73478 4 4.48043 4.10536 4.29289 4.29289C4.10536 4.48043 4 4.73478 4 5V14C4 14.5304 4.21071 15.0391 4.58579 15.4142C4.96086 15.7893 5.46957 16 6 16H13ZM6 6.5C6 6.36739 6.05268 6.24021 6.14645 6.14645C6.24021 6.05268 6.36739 6 6.5 6H10.5C10.6326 6 10.7598 6.05268 10.8536 6.14645C10.9473 6.24021 11 6.36739 11 6.5C11 6.63261 10.9473 6.75979 10.8536 6.85355C10.7598 6.94732 10.6326 7 10.5 7H6.5C6.36739 7 6.24021 6.94732 6.14645 6.85355C6.05268 6.75979 6 6.63261 6 6.5ZM6 9.5C6 9.36739 6.05268 9.24021 6.14645 9.14645C6.24021 9.05268 6.36739 9 6.5 9H10.5C10.6326 9 10.7598 9.05268 10.8536 9.14645C10.9473 9.24021 11 9.36739 11 9.5C11 9.63261 10.9473 9.75979 10.8536 9.85355C10.7598 9.94732 10.6326 10 10.5 10H6.5C6.36739 10 6.24021 9.94732 6.14645 9.85355C6.05268 9.75979 6 9.63261 6 9.5ZM6 12.5C6 12.3674 6.05268 12.2402 6.14645 12.1464C6.24021 12.0527 6.36739 12 6.5 12H8.5C8.63261 12 8.75979 12.0527 8.85355 12.1464C8.94732 12.2402 9 12.3674 9 12.5C9 12.6326 8.94732 12.7598 8.85355 12.8536C8.75979 12.9473 8.63261 13 8.5 13H6.5C6.36739 13 6.24021 12.9473 6.14645 12.8536C6.05268 12.7598 6 12.6326 6 12.5Z" fill="#104378"/>
</svg>
