<svg width="46" height="46" viewBox="0 0 46 46" fill="none" xmlns="http://www.w3.org/2000/svg">
<g clip-path="url(#clip0)">
<path d="M20.131 31.625C20.131 31.2474 20.2054 30.8736 20.3498 30.5248C20.4943 30.176 20.7061 29.859 20.9731 29.5921C21.24 29.3251 21.557 29.1133 21.9058 28.9688C22.2546 28.8244 22.6284 28.75 23.006 28.75C23.3835 28.75 23.7574 28.8244 24.1062 28.9688C24.455 29.1133 24.7719 29.3251 25.0389 29.5921C25.3059 29.859 25.5177 30.176 25.6621 30.5248C25.8066 30.8736 25.881 31.2474 25.881 31.625C25.881 32.3875 25.5781 33.1188 25.0389 33.6579C24.4998 34.1971 23.7685 34.5 23.006 34.5C22.2435 34.5 21.5122 34.1971 20.9731 33.6579C20.4339 33.1188 20.131 32.3875 20.131 31.625ZM23.144 27.6C24.11 27.6 24.593 26.91 24.7367 25.7974C24.8517 24.2621 25.306 23.4542 27.1719 22.1749C29.1067 20.8092 30.1877 19.0411 30.1877 16.4651C30.1877 12.6558 27.5427 10.0625 23.6845 10.0625C20.752 10.0625 18.5325 11.477 17.647 13.7712C17.3786 14.3978 17.2435 15.0734 17.2502 15.755C17.2502 16.8849 17.8339 17.595 18.8171 17.595C19.5991 17.595 20.1252 17.1724 20.4386 16.1288C20.8929 14.4268 21.948 13.4981 23.5264 13.4981C25.2801 13.4981 26.4876 14.7804 26.4876 16.6146C26.4876 18.2332 25.8896 19.159 24.1244 20.424C22.3447 21.6689 21.4621 23.0518 21.4621 25.139V25.4581C21.4621 26.6886 22.0601 27.6 23.144 27.6Z" fill="#40659E"/>
<path fill-rule="evenodd" clip-rule="evenodd" d="M29.5719 7.26182L26.924 4.54782L28.9796 2.54107L30.7679 4.37245L33.3266 4.34082C34.4342 4.32771 35.5332 4.5362 36.5591 4.95403C37.5849 5.37185 38.5169 5.99058 39.3001 6.77382C40.0834 7.55706 40.7021 8.489 41.1199 9.51485C41.5377 10.5407 41.7462 11.6397 41.7331 12.7473L41.7044 15.3061L43.5329 17.0943C44.3248 17.8682 44.9541 18.7925 45.3837 19.8131C45.8134 20.8336 46.0347 21.9297 46.0347 23.0369C46.0347 24.1442 45.8134 25.2403 45.3837 26.2608C44.9541 27.2814 44.3248 28.2057 43.5329 28.9796L41.7015 30.7678L41.7331 33.3266C41.7462 34.4342 41.5377 35.5332 41.1199 36.559C40.7021 37.5849 40.0834 38.5168 39.3001 39.3001C38.5169 40.0833 37.5849 40.702 36.5591 41.1199C35.5332 41.5377 34.4342 41.7462 33.3266 41.7331L30.7679 41.7043L28.9796 43.5328C28.2058 44.3248 27.2814 44.954 26.2609 45.3837C25.2404 45.8133 24.1443 46.0346 23.037 46.0346C21.9297 46.0346 20.8336 45.8133 19.8131 45.3837C18.7926 44.954 17.8682 44.3248 17.0944 43.5328L15.3061 41.7014L12.7474 41.7331C11.6398 41.7462 10.5407 41.5377 9.5149 41.1199C8.48905 40.702 7.55711 40.0833 6.77386 39.3001C5.99062 38.5168 5.3719 37.5849 4.95407 36.559C4.53625 35.5332 4.32776 34.4342 4.34087 33.3266L4.36962 30.7678L2.54112 28.9796C1.74917 28.2057 1.11989 27.2814 0.690259 26.2608C0.260626 25.2403 0.0393066 24.1442 0.0393066 23.0369C0.0393066 21.9297 0.260626 20.8336 0.690259 19.8131C1.11989 18.7925 1.74917 17.8682 2.54112 17.0943L4.37249 15.3061L4.34087 12.7473C4.32776 11.6397 4.53625 10.5407 4.95407 9.51485C5.3719 8.489 5.99062 7.55706 6.77386 6.77382C7.55711 5.99058 8.48905 5.37185 9.5149 4.95403C10.5407 4.5362 11.6398 4.32771 12.7474 4.34082L15.3061 4.36957L17.0944 2.54107C17.8682 1.74913 18.7926 1.11985 19.8131 0.690213C20.8336 0.26058 21.9297 0.0392609 23.037 0.0392609C24.1443 0.0392609 25.2404 0.26058 26.2609 0.690213C27.2814 1.11985 28.2058 1.74913 28.9796 2.54107L26.924 4.54782C26.4179 4.02971 25.8133 3.61801 25.1458 3.33692C24.4783 3.05583 23.7613 2.91103 23.037 2.91103C22.3127 2.91103 21.5957 3.05583 20.9282 3.33692C20.2607 3.61801 19.6561 4.02971 19.15 4.54782L16.505 7.26182L12.71 7.21582C11.986 7.20773 11.2677 7.34441 10.5973 7.61783C9.92685 7.89125 9.31783 8.29589 8.806 8.808C8.29416 9.3201 7.88983 9.92933 7.61677 10.5999C7.3437 11.2705 7.2074 11.9888 7.21587 12.7128L7.26187 16.5021L4.54787 19.1499C4.02975 19.6561 3.61805 20.2606 3.33696 20.9282C3.05587 21.5957 2.91107 22.3127 2.91107 23.0369C2.91107 23.7612 3.05587 24.4782 3.33696 25.1457C3.61805 25.8132 4.02975 26.4178 4.54787 26.9239L7.26187 29.5689L7.21587 33.3639C7.20777 34.0879 7.34445 34.8062 7.61787 35.4767C7.89129 36.1471 8.29594 36.7561 8.80804 37.2679C9.32015 37.7798 9.92938 38.1841 10.5999 38.4572C11.2705 38.7302 11.9889 38.8665 12.7129 38.8581L16.5021 38.8121L19.15 41.5261C19.6561 42.0442 20.2607 42.4559 20.9282 42.737C21.5957 43.0181 22.3127 43.1629 23.037 43.1629C23.7613 43.1629 24.4783 43.0181 25.1458 42.737C25.8133 42.4559 26.4179 42.0442 26.924 41.5261L29.569 38.8121L33.364 38.8581C34.088 38.8662 34.8063 38.7295 35.4767 38.4561C36.1471 38.1826 36.7562 37.778 37.268 37.2659C37.7798 36.7538 38.1842 36.1446 38.4572 35.474C38.7303 34.8034 38.8666 34.0851 38.8581 33.3611L38.8121 29.5718L41.5261 26.9239C42.0442 26.4178 42.4559 25.8132 42.737 25.1457C43.0181 24.4782 43.1629 23.7612 43.1629 23.0369C43.1629 22.3127 43.0181 21.5957 42.737 20.9282C42.4559 20.2606 42.0442 19.6561 41.5261 19.1499L38.8121 16.5049L38.8581 12.7099C38.8662 11.986 38.7295 11.2677 38.4561 10.5972C38.1827 9.92681 37.778 9.31779 37.2659 8.80595C36.7538 8.29412 36.1446 7.88979 35.474 7.61672C34.8035 7.34365 34.0851 7.20735 33.3611 7.21582L29.5719 7.26182Z" fill="#40659E"/>
</g>
<defs>
<clipPath id="clip0">
<rect width="46" height="46" fill="white"/>
</clipPath>
</defs>
</svg>
