<svg width="34" height="30" viewBox="0 0 34 30" fill="none" xmlns="http://www.w3.org/2000/svg">
<path d="M0.75 0.5V25.5H12.7325L17 29.7675L21.2675 25.5H33.25V0.5H0.75ZM3.25 3H30.75V23H20.2325L17 26.2325L13.7675 23H3.25V3ZM15.75 5.5V6.985C14.305 7.50625 13.25 8.88625 13.25 10.5025C13.25 12.5587 14.9438 14.2525 17 14.2525C17.7075 14.2525 18.25 14.795 18.25 15.5025C18.25 16.21 17.7075 16.7525 17 16.7525C16.2925 16.7525 15.75 16.21 15.75 15.5025H13.25C13.25 17.1187 14.305 18.495 15.75 19.0175V20.5H18.25V19.015C19.695 18.4925 20.75 17.1137 20.75 15.4975C20.75 13.4412 19.0562 11.7475 17 11.7475C16.2925 11.7475 15.75 11.205 15.75 10.4975C15.75 9.79 16.2925 9.2475 17 9.2475C17.7075 9.2475 18.25 9.79 18.25 10.4975H20.75C20.75 8.88125 19.695 7.505 18.25 6.9825V5.5H15.75Z" fill="#75B685"/>
</svg>
