<svg width="13" height="13" viewBox="0 0 13 13" fill="none" xmlns="http://www.w3.org/2000/svg">
<path d="M12 3.79285L9.20712 0.999911C9.01959 0.812383 8.76524 0.707031 8.50003 0.707031C8.23482 0.707031 7.98047 0.812383 7.79294 0.999911L6.14656 2.64629L6.14644 2.64635L6.14637 2.64647L0.292938 8.49991C0.195764 8.59703 0.119714 8.71319 0.0695624 8.8411C0.0647119 8.85311 0.0603336 8.86531 0.0564375 8.87766C0.0192742 8.98351 0.000195137 9.09486 0 9.20704V11.9999C0.000297764 12.265 0.10575 12.5192 0.293222 12.7067C0.480694 12.8942 0.734875 12.9996 1 12.9999H3.79294C3.91482 12.9998 4.03564 12.9773 4.14944 12.9337C4.15181 12.9328 4.15431 12.9321 4.15669 12.9312C4.28542 12.881 4.40233 12.8047 4.5 12.707L12 5.20697C12.1872 5.0193 12.2924 4.76501 12.2924 4.49991C12.2924 4.23481 12.1872 3.98053 12 3.79285ZM1 10.207L2.79294 11.9999H1V10.207ZM4 11.7928L1.20712 8.99991L6.5 3.70697L9.29294 6.49991L4 11.7928ZM10 5.79279L7.20712 2.99991L8.5 1.70697L11.2929 4.49991L10 5.79279Z" fill="#40659E"/>
</svg>
