<svg width="24" height="24" viewBox="0 0 24 24" fill="none" xmlns="http://www.w3.org/2000/svg">
<path d="M11.9994 10.6875C11.402 10.6874 10.8253 10.9068 10.379 11.3039C9.93267 11.701 9.64774 12.2482 9.57833 12.8416C9.50892 13.4349 9.65987 14.0331 10.0025 14.5225C10.3451 15.0119 10.8556 15.3584 11.4369 15.4962V17.25C11.4369 17.3992 11.4962 17.5423 11.6016 17.6477C11.7071 17.7532 11.8502 17.8125 11.9994 17.8125C12.1486 17.8125 12.2916 17.7532 12.3971 17.6477C12.5026 17.5423 12.5619 17.3992 12.5619 17.25V15.4962C13.1432 15.3584 13.6536 15.0119 13.9963 14.5225C14.3389 14.0331 14.4899 13.4349 14.4204 12.8416C14.351 12.2482 14.0661 11.701 13.6198 11.3039C13.1734 10.9068 12.5968 10.6874 11.9994 10.6875ZM11.9994 14.4375C11.7398 14.4375 11.486 14.3605 11.2702 14.2163C11.0544 14.0721 10.8861 13.8671 10.7868 13.6273C10.6875 13.3874 10.6615 13.1235 10.7121 12.8689C10.7628 12.6143 10.8878 12.3805 11.0713 12.1969C11.2549 12.0134 11.4887 11.8884 11.7433 11.8377C11.9979 11.7871 12.2618 11.8131 12.5017 11.9124C12.7415 12.0117 12.9465 12.18 13.0907 12.3958C13.2349 12.6117 13.3119 12.8654 13.3119 13.125C13.3115 13.473 13.1731 13.8066 12.927 14.0526C12.681 14.2987 12.3474 14.4371 11.9994 14.4375ZM19.4994 7.6875H15.9369V4.875C15.9369 4.35792 15.835 3.8459 15.6372 3.36818C15.4393 2.89046 15.1493 2.4564 14.7836 2.09077C14.418 1.72514 13.9839 1.4351 13.5062 1.23722C13.0285 1.03935 12.5165 0.9375 11.9994 0.9375C11.4823 0.9375 10.9703 1.03935 10.4926 1.23722C10.0149 1.4351 9.58079 1.72514 9.21516 2.09077C8.84953 2.4564 8.55949 2.89046 8.36161 3.36818C8.16374 3.8459 8.06189 4.35792 8.06189 4.875V7.6875H4.49939C4.15141 7.6879 3.81781 7.8263 3.57175 8.07236C3.3257 8.31842 3.18729 8.65203 3.18689 9V19.5C3.18729 19.848 3.3257 20.1816 3.57175 20.4276C3.81781 20.6737 4.15141 20.8121 4.49939 20.8125H19.4994C19.8474 20.8121 20.181 20.6737 20.427 20.4276C20.6731 20.1816 20.8115 19.848 20.8119 19.5V9C20.8115 8.65203 20.6731 8.31842 20.427 8.07236C20.181 7.8263 19.8474 7.6879 19.4994 7.6875ZM9.18689 4.875C9.18689 4.50566 9.25964 4.13993 9.40098 3.7987C9.54232 3.45747 9.74949 3.14743 10.0107 2.88626C10.2718 2.6251 10.5819 2.41793 10.9231 2.27659C11.2643 2.13525 11.63 2.0625 11.9994 2.0625C12.3687 2.0625 12.7345 2.13525 13.0757 2.27659C13.4169 2.41793 13.727 2.6251 13.9881 2.88626C14.2493 3.14743 14.4565 3.45747 14.5978 3.7987C14.7391 4.13993 14.8119 4.50566 14.8119 4.875V7.6875H9.18689V4.875ZM19.6869 19.5C19.6868 19.5497 19.6671 19.5974 19.6319 19.6325C19.5968 19.6677 19.5491 19.6875 19.4994 19.6875H4.49939C4.44968 19.6875 4.40201 19.6677 4.36686 19.6325C4.33171 19.5974 4.31194 19.5497 4.31189 19.5V9C4.31194 8.95029 4.33171 8.90262 4.36686 8.86747C4.40201 8.83232 4.44968 8.81255 4.49939 8.8125H19.4994C19.5491 8.81255 19.5968 8.83232 19.6319 8.86747C19.6671 8.90262 19.6868 8.95029 19.6869 9V19.5Z" fill="#44546A"/>
</svg>
