<svg width="336" height="311" viewBox="0 0 336 311" fill="none" xmlns="http://www.w3.org/2000/svg">
<path d="M289.489 162.131C289.489 135.255 280.632 109.127 264.288 87.7916C247.944 66.456 225.024 51.1014 199.074 44.1035L186.343 91.3145C201.912 95.5132 215.664 104.726 225.471 117.527C235.277 130.329 240.592 146.005 240.592 162.131H289.489Z" fill="#DCE1E3" stroke="white"/>
<path d="M199.074 44.1031C174.927 37.5911 149.363 38.6426 125.831 47.1158L142.397 93.1217C156.516 88.0378 171.854 87.4069 186.343 91.3141L199.074 44.1031Z" fill="#DCE1E3" stroke="white"/>
<path d="M125.831 47.1152C106.031 54.2449 88.4067 66.3653 74.6644 82.3035L111.697 114.234C119.942 104.671 130.517 97.3989 142.397 93.1211L125.831 47.1152Z" fill="#DCE1E3" stroke="white"/>
<path d="M74.6645 82.3027C63.332 95.4459 54.9278 110.851 50.0109 127.494C45.094 144.137 43.7771 161.637 46.1478 178.828L94.5869 172.149C93.1645 161.834 93.9547 151.334 96.9048 141.348C99.855 131.362 104.897 122.119 111.697 114.233L74.6645 82.3027Z" fill="#DCE1E3" stroke="white"/>
<path d="M46.1479 178.83C47.5737 189.169 50.3178 199.284 54.3132 208.926L99.4862 190.208C97.089 184.423 95.4426 178.354 94.5871 172.15L46.1479 178.83Z" fill="#DCE1E3" stroke="white"/>
<path d="M54.3131 208.925C61.8866 227.202 73.783 243.369 88.9809 256.035C104.179 268.702 122.224 277.49 141.567 281.646L151.838 233.84C140.233 231.346 129.406 226.073 120.287 218.473C111.168 210.873 104.03 201.173 99.4861 190.207L54.3131 208.925Z" fill="#DCE1E3" stroke="white"/>
<path d="M141.567 281.646C153.641 284.24 166.038 284.99 178.336 283.87L173.9 235.174C166.521 235.846 159.083 235.396 151.839 233.84L141.567 281.646Z" fill="#DCE1E3" stroke="white"/>
<path d="M178.336 283.871C192.542 282.576 206.411 278.806 219.317 272.73L198.488 228.49C190.745 232.136 182.423 234.398 173.9 235.175L178.336 283.871Z" fill="#DCE1E3" stroke="white"/>
<path d="M219.317 272.729C244.865 260.701 265.461 240.199 277.606 214.706L233.462 193.676C226.175 208.971 213.817 221.273 198.489 228.49L219.317 272.729Z" fill="#DCE1E3" stroke="white"/>
<path d="M277.606 214.707C285.43 198.284 289.49 180.322 289.49 162.131H240.592C240.592 173.046 238.156 183.823 233.462 193.676L277.606 214.707Z" fill="#DCE1E3" stroke="white"/>
<path d="M264.288 87.7897L283.697 72.9219" stroke="#23806A"/>
<path d="M288.66 60.7168V61.6367H288.46C287.617 61.6523 286.945 61.9023 286.445 62.3867C285.945 62.8711 285.656 63.5527 285.578 64.4316C286.027 63.916 286.64 63.6582 287.417 63.6582C288.16 63.6582 288.751 63.9199 289.193 64.4434C289.638 64.9668 289.861 65.6426 289.861 66.4707C289.861 67.3496 289.621 68.0527 289.14 68.5801C288.664 69.1074 288.023 69.3711 287.218 69.3711C286.402 69.3711 285.74 69.0586 285.232 68.4336C284.724 67.8047 284.47 66.9961 284.47 66.0078V65.5918C284.47 64.0215 284.804 62.8223 285.472 61.9941C286.144 61.1621 287.142 60.7363 288.466 60.7168H288.66ZM287.236 64.5605C286.865 64.5605 286.523 64.6719 286.21 64.8945C285.898 65.1172 285.681 65.3965 285.56 65.7324V66.1309C285.56 66.834 285.718 67.4004 286.035 67.8301C286.351 68.2598 286.746 68.4746 287.218 68.4746C287.707 68.4746 288.089 68.2949 288.367 67.9355C288.648 67.5762 288.789 67.1055 288.789 66.5234C288.789 65.9375 288.646 65.4648 288.361 65.1055C288.08 64.7422 287.705 64.5605 287.236 64.5605ZM295.72 66.3887H296.904V67.2734H295.72V69.2539H294.63V67.2734H290.746V66.6348L294.566 60.7227H295.72V66.3887ZM291.976 66.3887H294.63V62.2051L294.501 62.4395L291.976 66.3887ZM302.458 66.3887H303.642V67.2734H302.458V69.2539H301.369V67.2734H297.484V66.6348L301.304 60.7227H302.458V66.3887ZM298.714 66.3887H301.369V62.2051L301.24 62.4395L298.714 66.3887Z" fill="#DCE1E3"/>
<path d="M162.222 39.9886L161.217 15.5605" stroke="#23806A"/>
<path d="M143.287 7.09961H144.102C144.614 7.0918 145.016 6.95703 145.309 6.69531C145.602 6.43359 145.748 6.08008 145.748 5.63477C145.748 4.63477 145.25 4.13477 144.254 4.13477C143.786 4.13477 143.411 4.26953 143.129 4.53906C142.852 4.80469 142.713 5.1582 142.713 5.59961H141.629C141.629 4.92383 141.875 4.36328 142.368 3.91797C142.864 3.46875 143.493 3.24414 144.254 3.24414C145.059 3.24414 145.69 3.45703 146.147 3.88281C146.604 4.30859 146.832 4.90039 146.832 5.6582C146.832 6.0293 146.711 6.38867 146.469 6.73633C146.231 7.08398 145.905 7.34375 145.491 7.51562C145.959 7.66406 146.321 7.91016 146.575 8.25391C146.832 8.59766 146.961 9.01758 146.961 9.51367C146.961 10.2793 146.711 10.8867 146.211 11.3359C145.711 11.7852 145.061 12.0098 144.26 12.0098C143.459 12.0098 142.807 11.793 142.303 11.3594C141.803 10.9258 141.553 10.3535 141.553 9.64258H142.643C142.643 10.0918 142.789 10.4512 143.082 10.7207C143.375 10.9902 143.768 11.125 144.26 11.125C144.784 11.125 145.184 10.9883 145.461 10.7148C145.739 10.4414 145.877 10.0488 145.877 9.53711C145.877 9.04102 145.725 8.66016 145.42 8.39453C145.116 8.12891 144.676 7.99219 144.102 7.98438H143.287V7.09961ZM153.799 8.25391C153.799 9.52344 153.582 10.4668 153.149 11.084C152.715 11.7012 152.037 12.0098 151.116 12.0098C150.205 12.0098 149.532 11.709 149.094 11.1074C148.657 10.502 148.43 9.59961 148.414 8.40039V6.95312C148.414 5.69922 148.631 4.76758 149.065 4.1582C149.498 3.54883 150.178 3.24414 151.104 3.24414C152.022 3.24414 152.698 3.53906 153.131 4.12891C153.565 4.71484 153.787 5.62109 153.799 6.84766V8.25391ZM152.715 6.77148C152.715 5.85352 152.586 5.18555 152.328 4.76758C152.071 4.3457 151.662 4.13477 151.104 4.13477C150.549 4.13477 150.145 4.34375 149.891 4.76172C149.637 5.17969 149.506 5.82227 149.498 6.68945V8.42383C149.498 9.3457 149.631 10.0273 149.897 10.4688C150.166 10.9062 150.573 11.125 151.116 11.125C151.651 11.125 152.047 10.918 152.305 10.5039C152.567 10.0898 152.703 9.4375 152.715 8.54688V6.77148ZM160.537 8.25391C160.537 9.52344 160.321 10.4668 159.887 11.084C159.453 11.7012 158.776 12.0098 157.854 12.0098C156.944 12.0098 156.27 11.709 155.832 11.1074C155.395 10.502 155.168 9.59961 155.153 8.40039V6.95312C155.153 5.69922 155.369 4.76758 155.803 4.1582C156.237 3.54883 156.916 3.24414 157.842 3.24414C158.76 3.24414 159.436 3.53906 159.869 4.12891C160.303 4.71484 160.526 5.62109 160.537 6.84766V8.25391ZM159.453 6.77148C159.453 5.85352 159.325 5.18555 159.067 4.76758C158.809 4.3457 158.401 4.13477 157.842 4.13477C157.287 4.13477 156.883 4.34375 156.629 4.76172C156.375 5.17969 156.244 5.82227 156.237 6.68945V8.42383C156.237 9.3457 156.369 10.0273 156.635 10.4688C156.905 10.9062 157.311 11.125 157.854 11.125C158.389 11.125 158.786 10.918 159.043 10.5039C159.305 10.0898 159.442 9.4375 159.453 8.54688V6.77148Z" fill="#DCE1E3"/>
<path d="M97.9761 61.4045L84.1223 41.2598" stroke="#23806A"/>
<path d="M70.2064 37.5918H64.6165V36.8125L67.5696 33.5312C68.0071 33.0352 68.3079 32.6328 68.472 32.3242C68.6399 32.0117 68.7239 31.6895 68.7239 31.3574C68.7239 30.9121 68.5892 30.5469 68.3196 30.2617C68.0501 29.9766 67.6907 29.834 67.2415 29.834C66.7024 29.834 66.2825 29.9883 65.9817 30.2969C65.6849 30.6016 65.5364 31.0273 65.5364 31.5742H64.4524C64.4524 30.7891 64.7044 30.1543 65.2083 29.6699C65.7161 29.1855 66.3939 28.9434 67.2415 28.9434C68.0345 28.9434 68.6614 29.1523 69.1224 29.5703C69.5833 29.9844 69.8138 30.5371 69.8138 31.2285C69.8138 32.0684 69.2786 33.0684 68.2083 34.2285L65.9231 36.707H70.2064V37.5918ZM71.8528 33.3145L72.2864 29.0605H76.6575V30.0625H73.2064L72.9485 32.3887C73.3665 32.1426 73.8411 32.0195 74.3724 32.0195C75.1497 32.0195 75.7669 32.2773 76.2239 32.793C76.681 33.3047 76.9095 33.998 76.9095 34.873C76.9095 35.752 76.6712 36.4453 76.1946 36.9531C75.722 37.457 75.0599 37.709 74.2083 37.709C73.4544 37.709 72.8392 37.5 72.3626 37.082C71.886 36.6641 71.6146 36.0859 71.5481 35.3477H72.5735C72.6399 35.8359 72.8138 36.2051 73.095 36.4551C73.3763 36.7012 73.7474 36.8242 74.2083 36.8242C74.7122 36.8242 75.1067 36.6523 75.3919 36.3086C75.681 35.9648 75.8255 35.4902 75.8255 34.8848C75.8255 34.3145 75.6692 33.8574 75.3567 33.5137C75.0481 33.166 74.636 32.9922 74.1204 32.9922C73.6478 32.9922 73.2767 33.0957 73.0071 33.3027L72.72 33.5371L71.8528 33.3145ZM79.6692 32.7988H80.4837C80.9954 32.791 81.3978 32.6562 81.6907 32.3945C81.9837 32.1328 82.1302 31.7793 82.1302 31.334C82.1302 30.334 81.6321 29.834 80.636 29.834C80.1673 29.834 79.7923 29.9688 79.511 30.2383C79.2337 30.5039 79.095 30.8574 79.095 31.2988H78.011C78.011 30.623 78.2571 30.0625 78.7493 29.6172C79.2454 29.168 79.8743 28.9434 80.636 28.9434C81.4407 28.9434 82.0716 29.1562 82.5286 29.582C82.9856 30.0078 83.2142 30.5996 83.2142 31.3574C83.2142 31.7285 83.0931 32.0879 82.8509 32.4355C82.6126 32.7832 82.2864 33.043 81.8724 33.2148C82.3411 33.3633 82.7024 33.6094 82.9564 33.9531C83.2142 34.2969 83.3431 34.7168 83.3431 35.2129C83.3431 35.9785 83.0931 36.5859 82.5931 37.0352C82.0931 37.4844 81.4427 37.709 80.6419 37.709C79.8411 37.709 79.1888 37.4922 78.6849 37.0586C78.1849 36.625 77.9349 36.0527 77.9349 35.3418H79.0247C79.0247 35.791 79.1712 36.1504 79.4642 36.4199C79.7571 36.6895 80.1497 36.8242 80.6419 36.8242C81.1653 36.8242 81.5657 36.6875 81.8431 36.4141C82.1204 36.1406 82.2591 35.748 82.2591 35.2363C82.2591 34.7402 82.1067 34.3594 81.8021 34.0938C81.4974 33.8281 81.0579 33.6914 80.4837 33.6836H79.6692V32.7988Z" fill="#DCE1E3"/>
<path d="M50.011 127.497L26.5641 120.57" stroke="#23806A"/>
<path d="M11.6343 114.035H12.8179V114.92H11.6343V116.9H10.5445V114.92H6.65972V114.281L10.48 108.369H11.6343V114.035ZM7.89019 114.035H10.5445V109.852L10.4156 110.086L7.89019 114.035ZM17.3589 116.9H16.2691V109.676L14.0835 110.479V109.494L17.189 108.328H17.3589V116.9ZM25.7085 110.596C25.7085 111.021 25.5953 111.4 25.3687 111.732C25.146 112.064 24.8433 112.324 24.4605 112.512C24.9058 112.703 25.2574 112.982 25.5152 113.35C25.7769 113.717 25.9078 114.133 25.9078 114.598C25.9078 115.336 25.6578 115.924 25.1578 116.361C24.6617 116.799 24.0074 117.018 23.1949 117.018C22.3746 117.018 21.7164 116.799 21.2203 116.361C20.7281 115.92 20.482 115.332 20.482 114.598C20.482 114.137 20.607 113.721 20.857 113.35C21.1109 112.979 21.4605 112.697 21.9058 112.506C21.5269 112.318 21.2281 112.059 21.0093 111.727C20.7906 111.395 20.6812 111.018 20.6812 110.596C20.6812 109.877 20.9117 109.307 21.3726 108.885C21.8335 108.463 22.441 108.252 23.1949 108.252C23.9449 108.252 24.5503 108.463 25.0113 108.885C25.4761 109.307 25.7085 109.877 25.7085 110.596ZM24.8238 114.574C24.8238 114.098 24.6714 113.709 24.3668 113.408C24.066 113.107 23.6714 112.957 23.1832 112.957C22.6949 112.957 22.3023 113.105 22.0054 113.402C21.7125 113.699 21.566 114.09 21.566 114.574C21.566 115.059 21.7085 115.439 21.9937 115.717C22.2828 115.994 22.6832 116.133 23.1949 116.133C23.7027 116.133 24.1011 115.994 24.3902 115.717C24.6793 115.436 24.8238 115.055 24.8238 114.574ZM23.1949 109.143C22.7691 109.143 22.4234 109.275 22.1578 109.541C21.896 109.803 21.7652 110.16 21.7652 110.613C21.7652 111.047 21.8941 111.398 22.1519 111.668C22.4136 111.934 22.7613 112.066 23.1949 112.066C23.6285 112.066 23.9742 111.934 24.232 111.668C24.4937 111.398 24.6246 111.047 24.6246 110.613C24.6246 110.18 24.4898 109.826 24.2203 109.553C23.9507 109.279 23.6089 109.143 23.1949 109.143Z" fill="#DCE1E3"/>
<path d="M49.267 194.141L25.6713 200.542" stroke="#23806A"/>
<path d="M9.72783 196.873H8.63799V189.648L6.45244 190.451V189.467L9.55791 188.301H9.72783V196.873ZM18.4935 196.873H12.9036V196.094L15.8567 192.812C16.2942 192.316 16.595 191.914 16.7591 191.605C16.9271 191.293 17.011 190.971 17.011 190.639C17.011 190.193 16.8763 189.828 16.6067 189.543C16.3372 189.258 15.9778 189.115 15.5286 189.115C14.9896 189.115 14.5696 189.27 14.2689 189.578C13.972 189.883 13.8235 190.309 13.8235 190.855H12.7396C12.7396 190.07 12.9915 189.436 13.4954 188.951C14.0032 188.467 14.681 188.225 15.5286 188.225C16.3216 188.225 16.9485 188.434 17.4095 188.852C17.8704 189.266 18.1009 189.818 18.1009 190.51C18.1009 191.35 17.5657 192.35 16.4954 193.51L14.2103 195.988H18.4935V196.873ZM23.8958 188.336V189.256H23.6966C22.8528 189.271 22.181 189.521 21.681 190.006C21.181 190.49 20.8919 191.172 20.8138 192.051C21.263 191.535 21.8763 191.277 22.6536 191.277C23.3958 191.277 23.9876 191.539 24.429 192.062C24.8743 192.586 25.097 193.262 25.097 194.09C25.097 194.969 24.8567 195.672 24.3763 196.199C23.8997 196.727 23.2591 196.99 22.4544 196.99C21.638 196.99 20.9759 196.678 20.4681 196.053C19.9603 195.424 19.7064 194.615 19.7064 193.627V193.211C19.7064 191.641 20.0403 190.441 20.7083 189.613C21.3802 188.781 22.3782 188.355 23.7024 188.336H23.8958ZM22.472 192.18C22.1009 192.18 21.7591 192.291 21.4466 192.514C21.1341 192.736 20.9173 193.016 20.7962 193.352V193.75C20.7962 194.453 20.9544 195.02 21.2708 195.449C21.5872 195.879 21.9817 196.094 22.4544 196.094C22.9427 196.094 23.3255 195.914 23.6028 195.555C23.8841 195.195 24.0247 194.725 24.0247 194.143C24.0247 193.557 23.8821 193.084 23.597 192.725C23.3157 192.361 22.9407 192.18 22.472 192.18Z" fill="#DCE1E3"/>
<path d="M88.9814 256.037L73.3284 274.818" stroke="#23806A"/>
<path d="M58.3987 268.283H59.5823V269.168H58.3987V271.148H57.3088V269.168H53.4241V268.529L57.2444 262.617H58.3987V268.283ZM54.6545 268.283H57.3088V264.1L57.1799 264.334L54.6545 268.283ZM66.0686 263.227L62.5354 271.148H61.3987L64.9202 263.508H60.303V262.617H66.0686V263.227ZM71.553 262.611V263.531H71.3538C70.51 263.547 69.8381 263.797 69.3381 264.281C68.8381 264.766 68.5491 265.447 68.4709 266.326C68.9202 265.811 69.5334 265.553 70.3108 265.553C71.053 265.553 71.6448 265.814 72.0862 266.338C72.5315 266.861 72.7541 267.537 72.7541 268.365C72.7541 269.244 72.5139 269.947 72.0334 270.475C71.5569 271.002 70.9163 271.266 70.1116 271.266C69.2952 271.266 68.633 270.953 68.1252 270.328C67.6174 269.699 67.3635 268.891 67.3635 267.902V267.486C67.3635 265.916 67.6975 264.717 68.3655 263.889C69.0373 263.057 70.0354 262.631 71.3596 262.611H71.553ZM70.1291 266.455C69.758 266.455 69.4163 266.566 69.1038 266.789C68.7913 267.012 68.5745 267.291 68.4534 267.627V268.025C68.4534 268.729 68.6116 269.295 68.928 269.725C69.2444 270.154 69.6389 270.369 70.1116 270.369C70.5998 270.369 70.9827 270.189 71.26 269.83C71.5413 269.471 71.6819 269 71.6819 268.418C71.6819 267.832 71.5393 267.359 71.2541 267C70.9729 266.637 70.5979 266.455 70.1291 266.455Z" fill="#DCE1E3"/>
<path d="M159.867 284.152L158.392 308.557" stroke="#23806A"/>
<path d="M142.448 304.887H141.358V297.662L139.173 298.465V297.48L142.278 296.314H142.448V304.887ZM150.2 302.021H151.384V302.906H150.2V304.887H149.11V302.906H145.226V302.268L149.046 296.355H150.2V302.021ZM146.456 302.021H149.11V297.838L148.981 298.072L146.456 302.021ZM156.517 301.137C156.29 301.406 156.019 301.623 155.702 301.787C155.39 301.951 155.046 302.033 154.671 302.033C154.179 302.033 153.749 301.912 153.382 301.67C153.019 301.428 152.737 301.088 152.538 300.65C152.339 300.209 152.239 299.723 152.239 299.191C152.239 298.621 152.347 298.107 152.562 297.65C152.78 297.193 153.089 296.844 153.487 296.602C153.886 296.359 154.351 296.238 154.882 296.238C155.726 296.238 156.39 296.555 156.874 297.188C157.362 297.816 157.606 298.676 157.606 299.766V300.082C157.606 301.742 157.278 302.955 156.622 303.721C155.966 304.482 154.976 304.873 153.651 304.893H153.44V303.979H153.669C154.564 303.963 155.251 303.73 155.731 303.281C156.212 302.828 156.474 302.113 156.517 301.137ZM154.847 301.137C155.21 301.137 155.544 301.025 155.849 300.803C156.157 300.58 156.382 300.305 156.523 299.977V299.543C156.523 298.832 156.368 298.254 156.06 297.809C155.751 297.363 155.36 297.141 154.888 297.141C154.411 297.141 154.028 297.324 153.739 297.691C153.45 298.055 153.306 298.535 153.306 299.133C153.306 299.715 153.444 300.195 153.722 300.574C154.003 300.949 154.378 301.137 154.847 301.137Z" fill="#DCE1E3"/>
<path d="M199.314 280.092L205.728 303.684" stroke="#23806A"/>
<path d="M209.999 300.016H208.909V292.791L206.724 293.594V292.609L209.829 291.443H209.999V300.016ZM218.683 292.094L215.15 300.016H214.013L217.534 292.375H212.917V291.484H218.683V292.094ZM225.503 300.016H219.913V299.236L222.866 295.955C223.304 295.459 223.605 295.057 223.769 294.748C223.937 294.436 224.021 294.113 224.021 293.781C224.021 293.336 223.886 292.971 223.616 292.686C223.347 292.4 222.987 292.258 222.538 292.258C221.999 292.258 221.579 292.412 221.278 292.721C220.982 293.025 220.833 293.451 220.833 293.998H219.749C219.749 293.213 220.001 292.578 220.505 292.094C221.013 291.609 221.691 291.367 222.538 291.367C223.331 291.367 223.958 291.576 224.419 291.994C224.88 292.408 225.11 292.961 225.11 293.652C225.11 294.492 224.575 295.492 223.505 296.652L221.22 299.131H225.503V300.016Z" fill="#DCE1E3"/>
<path d="M253.488 248.768L270.736 266.095" stroke="#23806A"/>
<path d="M273.021 257.633H273.836C274.347 257.625 274.75 257.49 275.043 257.229C275.336 256.967 275.482 256.613 275.482 256.168C275.482 255.168 274.984 254.668 273.988 254.668C273.519 254.668 273.144 254.803 272.863 255.072C272.586 255.338 272.447 255.691 272.447 256.133H271.363C271.363 255.457 271.609 254.896 272.101 254.451C272.597 254.002 273.226 253.777 273.988 253.777C274.793 253.777 275.423 253.99 275.88 254.416C276.337 254.842 276.566 255.434 276.566 256.191C276.566 256.562 276.445 256.922 276.203 257.27C275.964 257.617 275.638 257.877 275.224 258.049C275.693 258.197 276.054 258.443 276.308 258.787C276.566 259.131 276.695 259.551 276.695 260.047C276.695 260.812 276.445 261.42 275.945 261.869C275.445 262.318 274.794 262.543 273.994 262.543C273.193 262.543 272.541 262.326 272.037 261.893C271.537 261.459 271.287 260.887 271.287 260.176H272.377C272.377 260.625 272.523 260.984 272.816 261.254C273.109 261.523 273.502 261.658 273.994 261.658C274.517 261.658 274.918 261.521 275.195 261.248C275.472 260.975 275.611 260.582 275.611 260.07C275.611 259.574 275.459 259.193 275.154 258.928C274.849 258.662 274.41 258.525 273.836 258.518H273.021V257.633ZM279.759 257.633H280.574C281.086 257.625 281.488 257.49 281.781 257.229C282.074 256.967 282.22 256.613 282.22 256.168C282.22 255.168 281.722 254.668 280.726 254.668C280.257 254.668 279.882 254.803 279.601 255.072C279.324 255.338 279.185 255.691 279.185 256.133H278.101C278.101 255.457 278.347 254.896 278.839 254.451C279.336 254.002 279.964 253.777 280.726 253.777C281.531 253.777 282.162 253.99 282.619 254.416C283.076 254.842 283.304 255.434 283.304 256.191C283.304 256.562 283.183 256.922 282.941 257.27C282.703 257.617 282.377 257.877 281.962 258.049C282.431 258.197 282.793 258.443 283.046 258.787C283.304 259.131 283.433 259.551 283.433 260.047C283.433 260.812 283.183 261.42 282.683 261.869C282.183 262.318 281.533 262.543 280.732 262.543C279.931 262.543 279.279 262.326 278.775 261.893C278.275 261.459 278.025 260.887 278.025 260.176H279.115C279.115 260.625 279.261 260.984 279.554 261.254C279.847 261.523 280.24 261.658 280.732 261.658C281.255 261.658 281.656 261.521 281.933 261.248C282.211 260.975 282.349 260.582 282.349 260.07C282.349 259.574 282.197 259.193 281.892 258.928C281.587 258.662 281.148 258.525 280.574 258.518H279.759V257.633ZM290.095 256.121C290.095 256.547 289.982 256.926 289.755 257.258C289.533 257.59 289.23 257.85 288.847 258.037C289.293 258.229 289.644 258.508 289.902 258.875C290.164 259.242 290.294 259.658 290.294 260.123C290.294 260.861 290.044 261.449 289.544 261.887C289.048 262.324 288.394 262.543 287.582 262.543C286.761 262.543 286.103 262.324 285.607 261.887C285.115 261.445 284.869 260.857 284.869 260.123C284.869 259.662 284.994 259.246 285.244 258.875C285.498 258.504 285.847 258.223 286.293 258.031C285.914 257.844 285.615 257.584 285.396 257.252C285.177 256.92 285.068 256.543 285.068 256.121C285.068 255.402 285.298 254.832 285.759 254.41C286.22 253.988 286.828 253.777 287.582 253.777C288.332 253.777 288.937 253.988 289.398 254.41C289.863 254.832 290.095 255.402 290.095 256.121ZM289.211 260.1C289.211 259.623 289.058 259.234 288.753 258.934C288.453 258.633 288.058 258.482 287.57 258.482C287.082 258.482 286.689 258.631 286.392 258.928C286.099 259.225 285.953 259.615 285.953 260.1C285.953 260.584 286.095 260.965 286.38 261.242C286.669 261.52 287.07 261.658 287.582 261.658C288.089 261.658 288.488 261.52 288.777 261.242C289.066 260.961 289.211 260.58 289.211 260.1ZM287.582 254.668C287.156 254.668 286.81 254.801 286.544 255.066C286.283 255.328 286.152 255.686 286.152 256.139C286.152 256.572 286.281 256.924 286.539 257.193C286.8 257.459 287.148 257.592 287.582 257.592C288.015 257.592 288.361 257.459 288.619 257.193C288.88 256.924 289.011 256.572 289.011 256.139C289.011 255.705 288.877 255.352 288.607 255.078C288.337 254.805 287.996 254.668 287.582 254.668Z" fill="#DCE1E3"/>
<path d="M286.482 189.08L310.329 194.47" stroke="#23806A"/>
<path d="M316.628 190.803H311.038V190.023L313.991 186.742C314.429 186.246 314.729 185.844 314.893 185.535C315.061 185.223 315.145 184.9 315.145 184.568C315.145 184.123 315.011 183.758 314.741 183.473C314.472 183.188 314.112 183.045 313.663 183.045C313.124 183.045 312.704 183.199 312.403 183.508C312.106 183.812 311.958 184.238 311.958 184.785H310.874C310.874 184 311.126 183.365 311.63 182.881C312.138 182.396 312.815 182.154 313.663 182.154C314.456 182.154 315.083 182.363 315.544 182.781C316.005 183.195 316.235 183.748 316.235 184.439C316.235 185.279 315.7 186.279 314.63 187.439L312.345 189.918H316.628V190.803ZM321.339 190.803H320.249V183.578L318.063 184.381V183.396L321.169 182.23H321.339V190.803ZM328.669 187.053C328.442 187.322 328.171 187.539 327.854 187.703C327.542 187.867 327.198 187.949 326.823 187.949C326.331 187.949 325.901 187.828 325.534 187.586C325.171 187.344 324.89 187.004 324.69 186.566C324.491 186.125 324.391 185.639 324.391 185.107C324.391 184.537 324.499 184.023 324.714 183.566C324.932 183.109 325.241 182.76 325.64 182.518C326.038 182.275 326.503 182.154 327.034 182.154C327.878 182.154 328.542 182.471 329.026 183.104C329.515 183.732 329.759 184.592 329.759 185.682V185.998C329.759 187.658 329.431 188.871 328.774 189.637C328.118 190.398 327.128 190.789 325.804 190.809H325.593V189.895H325.821C326.716 189.879 327.403 189.646 327.884 189.197C328.364 188.744 328.626 188.029 328.669 187.053ZM326.999 187.053C327.362 187.053 327.696 186.941 328.001 186.719C328.309 186.496 328.534 186.221 328.675 185.893V185.459C328.675 184.748 328.52 184.17 328.212 183.725C327.903 183.279 327.513 183.057 327.04 183.057C326.563 183.057 326.181 183.24 325.891 183.607C325.602 183.971 325.458 184.451 325.458 185.049C325.458 185.631 325.597 186.111 325.874 186.49C326.155 186.865 326.53 187.053 326.999 187.053Z" fill="#DCE1E3"/>
</svg>
