<svg width="19" height="19" viewBox="0 0 19 19" fill="none" xmlns="http://www.w3.org/2000/svg">
<path d="M18.068 5.758L13.242 0.931998C12.9339 0.623938 12.5569 0.393505 12.1423 0.259688C11.7276 0.125872 11.2871 0.0925015 10.857 0.162327C10.4269 0.232153 10.0196 0.403176 9.66855 0.661304C9.31752 0.919432 9.03285 1.25728 8.838 1.647L6.403 6.517C6.3154 6.6926 6.16246 6.82686 5.977 6.891L1.81 8.33C1.60975 8.39919 1.43036 8.51815 1.28871 8.6757C1.14705 8.83325 1.04776 9.02423 1.00017 9.23069C0.952579 9.43714 0.958248 9.65231 1.01664 9.85598C1.07504 10.0596 1.18424 10.2451 1.334 10.395L4.439 13.5L0 17.94V19H1.06L5.5 14.56L8.604 17.665C8.75386 17.815 8.93941 17.9244 9.1432 17.9829C9.34698 18.0415 9.56231 18.0472 9.76893 17.9996C9.97554 17.952 10.1667 17.8526 10.3243 17.7108C10.4819 17.569 10.6009 17.3894 10.67 17.189L12.11 13.023C12.1739 12.8377 12.3078 12.6848 12.483 12.597L17.353 10.162C17.7427 9.96715 18.0806 9.68248 18.3387 9.33145C18.5968 8.98042 18.7678 8.57308 18.8377 8.143C18.9075 7.71291 18.8741 7.27239 18.7403 6.85773C18.6065 6.44307 18.3761 6.06614 18.068 5.758Z" fill="white"/>
</svg>
