<svg width="60" height="60" viewBox="0 0 60 60" fill="none" xmlns="http://www.w3.org/2000/svg">
<path d="M46.7996 45.6004H13.1996C11.1596 45.6004 9.59961 44.0404 9.59961 42.0004V18.0004C9.59961 15.9604 11.1596 14.4004 13.1996 14.4004H46.7996C48.8396 14.4004 50.3996 15.9604 50.3996 18.0004V42.0004C50.3996 44.0404 48.8396 45.6004 46.7996 45.6004ZM13.1996 16.8004C12.4796 16.8004 11.9996 17.2804 11.9996 18.0004V42.0004C11.9996 42.7204 12.4796 43.2004 13.1996 43.2004H46.7996C47.5196 43.2004 47.9996 42.7204 47.9996 42.0004V18.0004C47.9996 17.2804 47.5196 16.8004 46.7996 16.8004H13.1996Z" fill="#44546A" fill-opacity="0.5"/>
<path d="M36.0002 28.7992C33.3602 28.7992 31.2002 26.6392 31.2002 23.9992C31.2002 21.3592 33.3602 19.1992 36.0002 19.1992C38.6402 19.1992 40.8002 21.3592 40.8002 23.9992C40.8002 26.6392 38.6402 28.7992 36.0002 28.7992ZM36.0002 21.5992C34.6802 21.5992 33.6002 22.6792 33.6002 23.9992C33.6002 25.3192 34.6802 26.3992 36.0002 26.3992C37.3202 26.3992 38.4002 25.3192 38.4002 23.9992C38.4002 22.6792 37.3202 21.5992 36.0002 21.5992Z" fill="#44546A" fill-opacity="0.5"/>
<path d="M42.36 45.2395L22.8 26.8795L11.64 37.1995L9.95996 35.5195L22.8 23.5195L44.04 43.5595L42.36 45.2395Z" fill="#44546A" fill-opacity="0.5"/>
<path d="M48.48 39.2398L42 33.9598L36.6 38.3998L35.04 36.4798L42 30.8398L49.92 37.3198L48.48 39.2398Z" fill="#44546A" fill-opacity="0.5"/>
</svg>
