<svg width="40" height="40" viewBox="0 0 40 40" fill="none" xmlns="http://www.w3.org/2000/svg">
<path d="M6.66677 37.7782C6.37209 37.7782 6.08947 37.6611 5.8811 37.4528C5.67273 37.2444 5.55566 36.9618 5.55566 36.6671V3.33377C5.55566 3.03908 5.67273 2.75647 5.8811 2.54809C6.08947 2.33972 6.37209 2.22266 6.66677 2.22266C6.96146 2.22266 7.24408 2.33972 7.45245 2.54809C7.66082 2.75647 7.77789 3.03908 7.77789 3.33377V36.6671C7.77789 36.9618 7.66082 37.2444 7.45245 37.4528C7.24408 37.6611 6.96146 37.7782 6.66677 37.7782Z" fill="#44546A" fill-opacity="0.5"/>
<path d="M33.9444 4.24417C33.7755 4.14665 33.5839 4.09531 33.3889 4.09531C33.1938 4.09531 33.0022 4.14665 32.8333 4.24417C30.6794 5.14963 28.3581 5.58889 26.0222 5.53306C24.0097 5.38581 22.0498 4.82205 20.2667 3.87751C18.545 2.96498 16.6539 2.41657 14.7111 2.2664C13.0963 2.24813 11.4943 2.55418 10 3.1664V5.64417C11.4476 4.85212 13.0721 4.4393 14.7222 4.44417C16.3563 4.60628 17.9422 5.08961 19.3889 5.8664C21.4557 6.94565 23.7279 7.5743 26.0556 7.71084C28.1452 7.71812 30.224 7.41098 32.2222 6.79973V21.0553C30.2324 21.7616 28.1336 22.1114 26.0222 22.0886C24.0097 21.9414 22.0498 21.3776 20.2667 20.4331C18.545 19.5205 16.6539 18.9721 14.7111 18.822C13.0933 18.8178 11.4912 19.1389 10 19.7664V22.222C11.4476 21.4299 13.0721 21.0171 14.7222 21.022C16.3563 21.1841 17.9422 21.6674 19.3889 22.4442C21.4557 23.5234 23.7279 24.1521 26.0556 24.2886C28.7272 24.3441 31.3797 23.825 33.8333 22.7664C34.0166 22.6741 34.1707 22.5328 34.2785 22.3582C34.3864 22.1837 34.4438 21.9827 34.4444 21.7775V5.18862C34.4472 5.00186 34.4028 4.81742 34.3154 4.65234C34.228 4.48726 34.1004 4.34688 33.9444 4.24417Z" fill="#44546A" fill-opacity="0.5"/>
</svg>
