<svg width="16" height="16" viewBox="0 0 16 16" fill="none" xmlns="http://www.w3.org/2000/svg">
<path fill-rule="evenodd" clip-rule="evenodd" d="M0.0527344 8C0.0527344 5.89216 0.890069 3.87066 2.38053 2.3802C3.871 0.889733 5.8925 0.0523987 8.00033 0.0523987C10.1082 0.0523987 12.1297 0.889733 13.6201 2.3802C15.1106 3.87066 15.9479 5.89216 15.9479 8C15.9479 10.1078 15.1106 12.1293 13.6201 13.6198C12.1297 15.1103 10.1082 15.9476 8.00033 15.9476C5.8925 15.9476 3.871 15.1103 2.38053 13.6198C0.890069 12.1293 0.0527344 10.1078 0.0527344 8ZM8.00033 1.1924C6.19485 1.1924 4.46331 1.90963 3.18663 3.1863C1.90996 4.46297 1.19273 6.19451 1.19273 8C1.19273 9.80549 1.90996 11.537 3.18663 12.8137C4.46331 14.0904 6.19485 14.8076 8.00033 14.8076C9.80582 14.8076 11.5374 14.0904 12.814 12.8137C14.0907 11.537 14.8079 9.80549 14.8079 8C14.8079 6.19451 14.0907 4.46297 12.814 3.1863C11.5374 1.90963 9.80582 1.1924 8.00033 1.1924ZM8.90034 11.6C8.90034 11.8387 8.80551 12.0676 8.63673 12.2364C8.46795 12.4052 8.23903 12.5 8.00033 12.5C7.76164 12.5 7.53272 12.4052 7.36394 12.2364C7.19516 12.0676 7.10033 11.8387 7.10033 11.6C7.10033 11.3613 7.19516 11.1324 7.36394 10.9636C7.53272 10.7948 7.76164 10.7 8.00033 10.7C8.23903 10.7 8.46795 10.7948 8.63673 10.9636C8.80551 11.1324 8.90034 11.3613 8.90034 11.6ZM6.26033 6.5C6.26033 5.6864 6.96233 4.91 8.00033 4.91C9.03833 4.91 9.74033 5.6864 9.74033 6.5C9.74033 7.0892 9.41633 7.3904 8.85713 7.73C8.79593 7.7684 8.72394 7.8092 8.64594 7.8548C8.41143 7.98435 8.18537 8.12864 7.96913 8.2868C7.67873 8.5124 7.34033 8.8784 7.34033 9.44C7.3397 9.61504 7.40862 9.78317 7.53195 9.90739C7.65527 10.0316 7.82289 10.1018 7.99793 10.1024C8.17298 10.103 8.3411 10.0341 8.46533 9.91079C8.58955 9.78746 8.6597 9.61984 8.66034 9.4448C8.69385 9.39949 8.73435 9.35979 8.78033 9.3272C8.90273 9.2324 9.03833 9.1544 9.21953 9.0488C9.31314 8.9948 9.41994 8.9324 9.54354 8.858C10.1843 8.468 11.0603 7.8248 11.0603 6.5C11.0603 4.9136 9.72233 3.59 8.00033 3.59C6.27834 3.59 4.94033 4.9136 4.94033 6.5C4.94033 6.67504 5.00987 6.84292 5.13364 6.96669C5.25742 7.09046 5.42529 7.16 5.60033 7.16C5.77538 7.16 5.94325 7.09046 6.06703 6.96669C6.1908 6.84292 6.26033 6.67504 6.26033 6.5Z" fill="#40659E"/>
</svg>
