<svg width="24" height="24" viewBox="0 0 24 24" fill="none" xmlns="http://www.w3.org/2000/svg">
<path d="M10.3708 9.42721H11.3333V11.8926C11.3333 12.0863 11.4833 12.2447 11.6667 12.2447H12.3333C12.5167 12.2447 12.6667 12.0863 12.6667 11.8926V9.42721H13.6292C17.1417 9.42721 20 5.94932 20 1.67899V0.974609H17.7042C15.2042 0.974609 13.0417 2.73997 12 5.29336C10.9583 2.73997 8.79583 0.974609 6.29583 0.974609H4V1.67899C4 5.94932 6.85833 9.42721 10.3708 9.42721ZM17.7042 2.38338H18.6375C18.3583 5.5487 16.2208 8.01845 13.6333 8.01845H12.7C12.975 4.85312 15.1167 2.38338 17.7042 2.38338ZM6.29583 2.38338C8.88333 2.38338 11.0208 4.85312 11.3 8.01845H10.3667C7.77916 8.01845 5.64166 5.5487 5.3625 2.38338H6.29583ZM23.2625 15.661C22.8625 15.2824 22.3416 15.0711 21.7958 15.0711C21.275 15.0711 20.7625 15.2604 20.3542 15.6082L17.7875 17.7786C17.7083 17.8446 17.6125 17.8798 17.5083 17.8798H15.775C15.9667 17.4572 16.0458 16.9685 15.975 16.4578C15.8083 15.2296 14.7417 14.3579 13.5667 14.3579H7.55416C6.68749 14.3579 5.84583 14.6529 5.15416 15.2032L3.55416 16.471H0.333333C0.15 16.471 0 16.6295 0 16.8232V17.5276C0 17.7213 0.15 17.8798 0.333333 17.8798H4L5.95416 16.3302C6.41666 15.9648 6.97916 15.7667 7.55416 15.7667H13.6667C14.2208 15.7667 14.6667 16.2377 14.6667 16.8232C14.6667 17.4088 14.2208 17.8798 13.6667 17.8798H9.99999C9.63332 17.8798 9.33333 18.1968 9.33333 18.5842C9.33333 18.9716 9.63332 19.2886 9.99999 19.2886H17.5083C17.9125 19.2886 18.3042 19.1433 18.6208 18.8792L21.1875 16.7132C21.3625 16.5635 21.5833 16.4843 21.7958 16.4843C22.0041 16.4843 22.2083 16.5591 22.3708 16.7132C22.7916 17.1138 22.7583 17.7918 22.3333 18.1484L18.1333 21.7011C17.8167 21.9696 17.425 22.1105 17.0208 22.1105H0.333333C0.15 22.1105 0 22.269 0 22.4627V23.1671C0 23.3608 0.15 23.5193 0.333333 23.5193H17.0208C17.7292 23.5193 18.4125 23.2639 18.9625 22.7973L23.1666 19.2446C23.675 18.8131 23.9791 18.1704 24 17.4836C24.0208 16.7968 23.75 16.1277 23.2625 15.661Z" fill="white"/>
</svg>
