<svg width="24" height="24" viewBox="0 0 24 24" fill="none" xmlns="http://www.w3.org/2000/svg">
<path d="M22.6261 14.0286L21.0975 13.1461C21.1936 12.385 21.1936 11.6149 21.0975 10.8539L22.6261 9.9714C23.075 9.71227 23.2915 9.17911 23.1439 8.68229C22.6183 6.9128 21.6826 5.32004 20.447 4.01377C20.0891 3.63549 19.518 3.55271 19.0671 3.81305L17.5408 4.69421C16.9302 4.22957 16.2634 3.84401 15.5561 3.54671V1.78355C15.5561 1.26183 15.1974 0.808365 14.6897 0.688225C12.9251 0.270615 11.0748 0.270568 9.30985 0.688225C8.80214 0.808365 8.44341 1.26179 8.44341 1.78355V3.54671C7.73613 3.844 7.06929 4.22956 6.45877 4.69421L4.93242 3.81305C4.48144 3.55271 3.91036 3.63549 3.55256 4.01377C2.31694 5.32004 1.38127 6.91285 0.855611 8.68229C0.708002 9.17911 0.924518 9.71222 1.37339 9.9714L2.90199 10.8539C2.80589 11.6149 2.80589 12.385 2.90199 13.1461L1.37339 14.0286C0.924518 14.2877 0.708002 14.8208 0.855611 15.3177C1.38127 17.0871 2.31694 18.6799 3.55256 19.9862C3.91041 20.3645 4.48149 20.4473 4.93242 20.187L6.45877 19.3058C7.06928 19.7704 7.73612 20.156 8.44341 20.4533V22.2164C8.44341 22.7381 8.8021 23.1916 9.30985 23.3117C11.0745 23.7293 12.9248 23.7294 14.6897 23.3117C15.1974 23.1916 15.5561 22.7382 15.5561 22.2164V20.4533C16.2634 20.156 16.9302 19.7704 17.5408 19.3058L19.0671 20.187C19.518 20.4473 20.0891 20.3645 20.447 19.9862C21.6826 18.6799 22.6183 17.0871 23.1439 15.3177C23.2915 14.8208 23.075 14.2877 22.6261 14.0286ZM19.5568 18.7377L17.3861 17.4842C16.121 18.5657 15.6724 18.8378 14.0561 19.4089V21.9157C12.6995 22.1955 11.3 22.1955 9.94341 21.9157V19.4089C8.36742 18.852 7.91114 18.5935 6.61345 17.4842L4.44272 18.7377C3.51881 17.7022 2.81667 16.4882 2.38355 15.1771L4.55522 13.9237C4.24889 12.2635 4.24875 11.7373 4.55522 10.0763L2.38355 8.82282C2.81667 7.51177 3.51886 6.29771 4.44272 5.26177L6.61345 6.51615C7.89675 5.41768 8.35078 5.15372 9.94341 4.59104V2.08426C11.3 1.80394 12.6995 1.80394 14.0561 2.08426V4.59108C15.6488 5.15382 16.1029 5.41782 17.3861 6.51619L19.5568 5.26182C20.4807 6.29771 21.1829 7.51177 21.616 8.82286L19.4443 10.0763C19.7507 11.7369 19.7508 12.2627 19.4443 13.9238L21.616 15.1772C21.1829 16.4882 20.4807 17.7023 19.5568 18.7377ZM11.9998 7.5C9.51844 7.5 7.49977 9.51868 7.49977 12C7.49977 14.4813 9.51844 16.5 11.9998 16.5C14.4811 16.5 16.4998 14.4813 16.4998 12C16.4998 9.51868 14.4811 7.5 11.9998 7.5ZM11.9998 15C10.3455 15 8.99977 13.6542 8.99977 12C8.99977 10.3458 10.3455 9 11.9998 9C13.654 9 14.9998 10.3458 14.9998 12C14.9998 13.6542 13.654 15 11.9998 15Z" fill="#44546A"/>
</svg>
