<svg width="24" height="24" viewBox="0 0 24 24" fill="none" xmlns="http://www.w3.org/2000/svg">
<path d="M22.9996 3H5.38667L5.03963 0.917672C4.95092 0.385594 4.53796 0 4.05675 0H0.5C0.223875 0 0 0.251859 0 0.5625V0.9375C0 1.24814 0.223875 1.5 0.5 1.5H3.78L6.69363 18.9818C6.26271 19.5147 6 20.2228 6 21C6 22.6568 7.19392 24 8.66667 24C10.1394 24 11.3333 22.6568 11.3333 21C11.3339 20.4733 11.2105 19.9557 10.9757 19.5H17.0243C16.7896 19.9557 16.6662 20.4733 16.6667 21C16.6667 22.6568 17.8606 24 19.3334 24C20.8061 24 22 22.6568 22 21C22 20.1566 21.6903 19.395 21.1922 18.8499C21.0843 18.3699 20.6983 18 20.222 18H7.88667L7.38667 15H21.1942C21.6679 15 22.0766 14.6261 22.1732 14.1045L23.9787 4.35445C24.108 3.65583 23.634 3 22.9996 3ZM10 21C10 21.8271 9.40188 22.5 8.66667 22.5C7.93146 22.5 7.33333 21.8271 7.33333 21C7.33333 20.1729 7.93146 19.5 8.66667 19.5C9.40188 19.5 10 20.1729 10 21ZM19.3333 22.5C18.5981 22.5 18 21.8271 18 21C18 20.1729 18.5981 19.5 19.3333 19.5C20.0685 19.5 20.6667 20.1729 20.6667 21C20.6667 21.8271 20.0685 22.5 19.3333 22.5ZM20.9232 13.5H7.13667L5.63667 4.5H22.5898L20.9232 13.5Z" fill="#9A9A9A"/>
</svg>
