<svg width="24" height="24" viewBox="0 0 24 24" fill="none" xmlns="http://www.w3.org/2000/svg">
<path d="M7.28097 3.219C7.2113 3.14915 7.12854 3.09374 7.03742 3.05593C6.9463 3.01812 6.84862 2.99866 6.74997 2.99866C6.65132 2.99866 6.55364 3.01812 6.46252 3.05593C6.3714 3.09374 6.28864 3.14915 6.21897 3.219L1.71897 7.719C1.57814 7.85983 1.49902 8.05083 1.49902 8.25C1.49902 8.44916 1.57814 8.64017 1.71897 8.781C1.8598 8.92183 2.05081 9.00095 2.24997 9.00095C2.44913 9.00095 2.64014 8.92183 2.78097 8.781L5.99997 5.5605V20.25C5.99997 20.4489 6.07899 20.6397 6.21964 20.7803C6.36029 20.921 6.55106 21 6.74997 21C6.94888 21 7.13965 20.921 7.2803 20.7803C7.42095 20.6397 7.49997 20.4489 7.49997 20.25V5.5605L10.719 8.781C10.8598 8.92183 11.0508 9.00095 11.25 9.00095C11.4491 9.00095 11.6401 8.92183 11.781 8.781C11.9218 8.64017 12.0009 8.44916 12.0009 8.25C12.0009 8.05083 11.9218 7.85983 11.781 7.719L7.28097 3.219ZM16.728 20.79C16.8679 20.9256 17.0551 21.0015 17.25 21.0015C17.4448 21.0015 17.632 20.9256 17.772 20.79L22.272 16.44C22.4152 16.3016 22.4975 16.1119 22.5009 15.9127C22.5043 15.7136 22.4284 15.5212 22.29 15.378C22.1515 15.2348 21.9619 15.1524 21.7627 15.149C21.5635 15.1457 21.3712 15.2216 21.228 15.36L18 18.4815V3.7515C18 3.55259 17.921 3.36182 17.7803 3.22117C17.6396 3.08052 17.4489 3.0015 17.25 3.0015C17.0511 3.0015 16.8603 3.08052 16.7196 3.22117C16.579 3.36182 16.5 3.55259 16.5 3.7515V18.4815L13.272 15.3615C13.2014 15.2921 13.1179 15.2373 13.026 15.2003C12.9342 15.1633 12.836 15.1448 12.737 15.146C12.6381 15.1472 12.5403 15.1679 12.4494 15.207C12.3585 15.2461 12.2762 15.3029 12.2073 15.3739C12.1384 15.445 12.0842 15.529 12.048 15.6211C12.0117 15.7132 11.994 15.8116 11.9959 15.9105C11.9979 16.0095 12.0194 16.1071 12.0592 16.1977C12.099 16.2883 12.1564 16.3702 12.228 16.4385L16.728 20.7885V20.79Z" fill="#708090"/>
</svg>
