<svg width="32" height="32" viewBox="0 0 32 32" fill="none" xmlns="http://www.w3.org/2000/svg">
<path fill-rule="evenodd" clip-rule="evenodd" d="M20.1636 1.73453C19.6253 1.18361 18.9823 0.745852 18.2723 0.446977C17.5624 0.148102 16.7999 -0.00585938 16.0296 -0.00585938C15.2594 -0.00585937 14.4969 0.148102 13.7869 0.446977C13.077 0.745852 12.434 1.18361 11.8956 1.73453L10.6516 3.01053L8.87164 2.98853C8.10114 2.97941 7.3366 3.12445 6.62296 3.41511C5.90933 3.70577 5.26102 4.13619 4.71616 4.68105C4.1713 5.22591 3.74088 5.87422 3.45022 6.58785C3.15956 7.30149 3.01452 8.06603 3.02364 8.83653L3.04364 10.6165L1.77164 11.8605C1.22072 12.3989 0.782962 13.0419 0.484086 13.7518C0.185211 14.4618 0.03125 15.2243 0.03125 15.9945C0.03125 16.7648 0.185211 17.5273 0.484086 18.2372C0.782962 18.9472 1.22072 19.5902 1.77164 20.1285L3.04564 21.3725L3.02364 23.1525C3.01452 23.923 3.15956 24.6876 3.45022 25.4012C3.74088 26.1148 4.1713 26.7631 4.71616 27.308C5.26102 27.8529 5.90933 28.2833 6.62296 28.574C7.3366 28.8646 8.10114 29.0097 8.87164 29.0005L10.6516 28.9805L11.8956 30.2525C12.434 30.8034 13.077 31.2412 13.7869 31.5401C14.4969 31.839 15.2594 31.9929 16.0296 31.9929C16.7999 31.9929 17.5624 31.839 18.2723 31.5401C18.9823 31.2412 19.6253 30.8034 20.1636 30.2525L21.4076 28.9785L23.1876 29.0005C23.9581 29.0097 24.7227 28.8646 25.4363 28.574C26.1499 28.2833 26.7983 27.8529 27.3431 27.308C27.888 26.7631 28.3184 26.1148 28.6091 25.4012C28.8997 24.6876 29.0448 23.923 29.0356 23.1525L29.0156 21.3725L30.2876 20.1285C30.8386 19.5902 31.2763 18.9472 31.5752 18.2372C31.8741 17.5273 32.028 16.7648 32.028 15.9945C32.028 15.2243 31.8741 14.4618 31.5752 13.7518C31.2763 13.0419 30.8386 12.3989 30.2876 11.8605L29.0136 10.6165L29.0356 8.83653C29.0448 8.06603 28.8997 7.30149 28.6091 6.58785C28.3184 5.87422 27.888 5.22591 27.3431 4.68105C26.7983 4.13619 26.1499 3.70577 25.4363 3.41511C24.7227 3.12445 23.9581 2.97941 23.1876 2.98853L21.4076 3.00853L20.1636 1.73653V1.73453ZM20.7376 13.7025C20.9254 13.5148 21.0309 13.2601 21.0309 12.9945C21.0309 12.729 20.9254 12.4743 20.7376 12.2865C20.5499 12.0988 20.2952 11.9933 20.0296 11.9933C19.7641 11.9933 19.5094 12.0988 19.3216 12.2865L14.0296 17.5805L11.7376 15.2865C11.6447 15.1936 11.5343 15.1198 11.4128 15.0695C11.2913 15.0192 11.1611 14.9933 11.0296 14.9933C10.8982 14.9933 10.768 15.0192 10.6465 15.0695C10.525 15.1198 10.4146 15.1936 10.3216 15.2865C10.2287 15.3795 10.1549 15.4899 10.1046 15.6114C10.0543 15.7328 10.0284 15.863 10.0284 15.9945C10.0284 16.126 10.0543 16.2562 10.1046 16.3777C10.1549 16.4992 10.2287 16.6096 10.3216 16.7025L13.3216 19.7025C13.4145 19.7957 13.5249 19.8695 13.6464 19.92C13.7679 19.9704 13.8981 19.9963 14.0296 19.9963C14.1612 19.9963 14.2914 19.9704 14.4129 19.92C14.5344 19.8695 14.6447 19.7957 14.7376 19.7025L20.7376 13.7025Z" fill="#75B685"/>
</svg>
