<svg width="18" height="18" viewBox="0 0 18 18" fill="none" xmlns="http://www.w3.org/2000/svg">
<path d="M3.375 7.3125C3.375 7.16332 3.43426 7.02024 3.53975 6.91475C3.64524 6.80926 3.78832 6.75 3.9375 6.75H9.5625C9.71168 6.75 9.85476 6.80926 9.96025 6.91475C10.0657 7.02024 10.125 7.16332 10.125 7.3125C10.125 7.46168 10.0657 7.60476 9.96025 7.71025C9.85476 7.81574 9.71168 7.875 9.5625 7.875H3.9375C3.78832 7.875 3.64524 7.81574 3.53975 7.71025C3.43426 7.60476 3.375 7.46168 3.375 7.3125ZM3.375 10.6875C3.375 10.5383 3.43426 10.3952 3.53975 10.2898C3.64524 10.1843 3.78832 10.125 3.9375 10.125H9.5625C9.71168 10.125 9.85476 10.1843 9.96025 10.2898C10.0657 10.3952 10.125 10.5383 10.125 10.6875C10.125 10.8367 10.0657 10.9798 9.96025 11.0852C9.85476 11.1907 9.71168 11.25 9.5625 11.25H3.9375C3.78832 11.25 3.64524 11.1907 3.53975 11.0852C3.43426 10.9798 3.375 10.8367 3.375 10.6875ZM3.9375 13.5C3.78832 13.5 3.64524 13.5593 3.53975 13.6648C3.43426 13.7702 3.375 13.9133 3.375 14.0625C3.375 14.2117 3.43426 14.3548 3.53975 14.4602C3.64524 14.5657 3.78832 14.625 3.9375 14.625H9.5625C9.71168 14.625 9.85476 14.5657 9.96025 14.4602C10.0657 14.3548 10.125 14.2117 10.125 14.0625C10.125 13.9133 10.0657 13.7702 9.96025 13.6648C9.85476 13.5593 9.71168 13.5 9.5625 13.5H3.9375Z" fill="#40659E"/>
<path d="M2.25 0C1.65326 0 1.08097 0.237053 0.65901 0.65901C0.237053 1.08097 0 1.65326 0 2.25L0 15.75C0 16.3467 0.237053 16.919 0.65901 17.341C1.08097 17.7629 1.65326 18 2.25 18H15.75C16.3467 18 16.919 17.7629 17.341 17.341C17.7629 16.919 18 16.3467 18 15.75V2.25C18 1.65326 17.7629 1.08097 17.341 0.65901C16.919 0.237053 16.3467 0 15.75 0L2.25 0ZM15.75 1.125C16.0484 1.125 16.3345 1.24353 16.5455 1.4545C16.7565 1.66548 16.875 1.95163 16.875 2.25V3.375H1.125V2.25C1.125 1.95163 1.24353 1.66548 1.4545 1.4545C1.66548 1.24353 1.95163 1.125 2.25 1.125H15.75ZM16.875 4.5V15.75C16.875 16.0484 16.7565 16.3345 16.5455 16.5455C16.3345 16.7565 16.0484 16.875 15.75 16.875H13.5V4.5H16.875ZM12.375 4.5V16.875H2.25C1.95163 16.875 1.66548 16.7565 1.4545 16.5455C1.24353 16.3345 1.125 16.0484 1.125 15.75V4.5H12.375Z" fill="#40659E"/>
</svg>
