<svg width="32" height="32" viewBox="0 0 32 32" fill="none" xmlns="http://www.w3.org/2000/svg">
<path d="M7.52894 24.6951C7.40375 24.9412 7.5018 25.2422 7.74793 25.3674C7.99407 25.4926 8.29509 25.3946 8.42028 25.1484L7.52894 24.6951ZM23.5792 25.1484C23.7044 25.3945 24.0054 25.4926 24.2515 25.3674C24.4976 25.2422 24.5957 24.9412 24.4705 24.695L23.5792 25.1484ZM23.2321 4.52555C23.0369 4.33029 22.7203 4.33029 22.525 4.52555C22.3298 4.72081 22.3298 5.03739 22.525 5.23266L23.2321 4.52555ZM26.7677 9.4753C26.9629 9.67056 27.2795 9.67056 27.4748 9.4753C27.67 9.28003 27.67 8.96345 27.4748 8.76819L26.7677 9.4753ZM27.4743 5.23266C27.6696 5.03739 27.6696 4.72081 27.4743 4.52555C27.2791 4.33029 26.9625 4.33029 26.7672 4.52555L27.4743 5.23266ZM22.5246 8.76819C22.3293 8.96345 22.3293 9.28003 22.5246 9.4753C22.7198 9.67056 23.0364 9.67056 23.2317 9.4753L22.5246 8.76819ZM28.3446 14.0288C28.3012 13.7561 28.045 13.5701 27.7723 13.6134C27.4996 13.6568 27.3136 13.913 27.3569 14.1857L28.3446 14.0288ZM17.8135 4.64226C18.0863 4.68558 18.3425 4.49961 18.3858 4.22689C18.4291 3.95417 18.2431 3.69796 17.9704 3.65464L17.8135 4.64226ZM20.5 15C20.5 17.4853 18.4853 19.5 16 19.5V20.5C19.0376 20.5 21.5 18.0376 21.5 15H20.5ZM16 19.5C13.5147 19.5 11.5 17.4853 11.5 15H10.5C10.5 18.0376 12.9624 20.5 16 20.5V19.5ZM11.5 15C11.5 12.5147 13.5147 10.5 16 10.5V9.5C12.9624 9.5 10.5 11.9624 10.5 15H11.5ZM16 10.5C18.4853 10.5 20.5 12.5147 20.5 15H21.5C21.5 11.9624 19.0376 9.5 16 9.5V10.5ZM8.42028 25.1484C9.13171 23.7497 10.2163 22.5751 11.554 21.7547L11.0312 20.9022C9.5362 21.8191 8.32404 23.1319 7.52894 24.6951L8.42028 25.1484ZM11.554 21.7547C12.8918 20.9343 14.4307 20.5 16 20.5L16 19.5C14.2462 19.5 12.5263 19.9853 11.0312 20.9022L11.554 21.7547ZM16 20.5C17.5693 20.5 19.1076 20.9342 20.4454 21.7547L20.9682 20.9022C19.4731 19.9853 17.7538 19.5 16 19.5L16 20.5ZM20.4454 21.7547C21.7831 22.5751 22.8677 23.7497 23.5792 25.1484L24.4705 24.695C23.6754 23.1318 22.4632 21.8191 20.9682 20.9022L20.4454 21.7547ZM22.525 5.23266L24.6461 7.35375L25.3532 6.64664L23.2321 4.52555L22.525 5.23266ZM24.6461 7.35375L26.7677 9.4753L27.4748 8.76819L25.3532 6.64664L24.6461 7.35375ZM26.7672 4.52555L24.6461 6.64664L25.3532 7.35375L27.4743 5.23266L26.7672 4.52555ZM24.6461 6.64664L22.5246 8.76819L23.2317 9.4753L25.3532 7.35375L24.6461 6.64664ZM27.3569 14.1857C27.7376 16.5821 27.3497 19.0375 26.2488 21.1998L27.14 21.6535C28.3367 19.3029 28.7583 16.6338 28.3446 14.0288L27.3569 14.1857ZM26.2488 21.1998C25.148 23.3622 23.3907 25.1204 21.229 26.2225L21.6832 27.1134C24.0331 25.9154 25.9433 24.0041 27.14 21.6535L26.2488 21.1998ZM21.229 26.2225C19.0673 27.3245 16.6121 27.7138 14.2155 27.3345L14.0592 28.3222C16.6644 28.7345 19.3333 28.3114 21.6832 27.1134L21.229 26.2225ZM14.2155 27.3345C11.8189 26.9552 9.60391 25.8268 7.88816 24.111L7.18105 24.8181C9.04616 26.6832 11.4539 27.9099 14.0592 28.3222L14.2155 27.3345ZM7.88816 24.111C6.17241 22.3953 5.04399 20.1803 4.66468 17.7837L3.67698 17.94C4.0893 20.5452 5.31595 22.953 7.18105 24.8181L7.88816 24.111ZM4.66468 17.7837C4.28537 15.3871 4.67466 12.9319 5.77673 10.7702L4.88583 10.316C3.68782 12.6659 3.26465 15.3348 3.67698 17.94L4.66468 17.7837ZM5.77673 10.7702C6.8788 8.60846 8.63705 6.8512 10.7994 5.75035L10.3457 4.85919C7.99513 6.05587 6.08383 7.96609 4.88583 10.316L5.77673 10.7702ZM10.7994 5.75035C12.9617 4.6495 15.4171 4.2616 17.8135 4.64226L17.9704 3.65464C15.3654 3.24085 12.6963 3.66251 10.3457 4.85919L10.7994 5.75035Z" fill="white"/>
</svg>
