<svg width="24" height="24" viewBox="0 0 24 24" fill="none" xmlns="http://www.w3.org/2000/svg">
<path d="M20.0696 6.43513C20.1273 6.4935 20.1729 6.56266 20.2039 6.63868C20.2349 6.7147 20.2506 6.79608 20.2502 6.87817C20.2497 6.96026 20.2331 7.04145 20.2012 7.11711C20.1694 7.19277 20.1229 7.26142 20.0646 7.31913L8.93955 18.3191C8.82318 18.4341 8.66636 18.4989 8.50277 18.4995C8.33917 18.5002 8.18184 18.4367 8.06455 18.3226L3.43955 13.8226C3.37972 13.7656 3.33178 13.6974 3.29851 13.6217C3.26524 13.5461 3.2473 13.4646 3.24572 13.382C3.24414 13.2994 3.25896 13.2173 3.28932 13.1404C3.31968 13.0636 3.36497 12.9935 3.42258 12.9343C3.48019 12.8751 3.54898 12.8278 3.62495 12.7954C3.70093 12.7629 3.78259 12.7458 3.86522 12.7451C3.94784 12.7444 4.02979 12.7601 4.10632 12.7912C4.18284 12.8224 4.25243 12.8684 4.31105 12.9266L8.49655 16.9996L19.1856 6.43063C19.2439 6.3729 19.3131 6.32724 19.3891 6.29625C19.4651 6.26526 19.5465 6.24955 19.6286 6.25001C19.7107 6.25047 19.7919 6.26711 19.8675 6.29895C19.9432 6.3308 20.0118 6.37725 20.0696 6.43563V6.43513Z" fill="#44546A"/>
</svg>
