<svg width="24" height="24" viewBox="0 0 24 24" fill="none" xmlns="http://www.w3.org/2000/svg">
<path d="M9.6001 8.64014H10.5601V16.3201H9.6001V8.64014Z" fill="#44546A"/>
<path d="M11.52 8.64014H12.48V16.3201H11.52V8.64014Z" fill="#44546A"/>
<path d="M13.4399 8.64014H14.3999V16.3201H13.4399V8.64014Z" fill="#44546A"/>
<path d="M5.76025 5.75977H18.2403V6.71977H5.76025V5.75977Z" fill="#44546A"/>
<path d="M14.4001 5.75984H13.4401V5.27984C13.4401 4.99184 13.2481 4.79984 12.9601 4.79984H11.0401C10.7521 4.79984 10.5601 4.99184 10.5601 5.27984V5.75984H9.6001V5.27984C9.6001 4.46384 10.2241 3.83984 11.0401 3.83984H12.9601C13.7761 3.83984 14.4001 4.46384 14.4001 5.27984V5.75984Z" fill="#44546A"/>
<path d="M14.8802 19.1999H9.12021C8.35221 19.1999 7.68022 18.5759 7.58421 17.8079L6.72021 6.28789L7.68021 6.19189L8.54421 17.7119C8.54421 17.9999 8.83221 18.2399 9.12021 18.2399H14.8802C15.1682 18.2399 15.4082 17.9999 15.4562 17.7119L16.3202 6.19189L17.2802 6.28789L16.4162 17.8079C16.3202 18.5759 15.6482 19.1999 14.8802 19.1999Z" fill="#44546A"/>
</svg>
