<svg width="24" height="24" viewBox="0 0 24 24" fill="none" xmlns="http://www.w3.org/2000/svg">
<path d="M12.1465 3.7656C12.3165 3.42546 12.565 3.1306 12.8713 2.90531C13.1777 2.68002 13.5332 2.53075 13.9086 2.46981C14.2839 2.40887 14.6684 2.438 15.0303 2.5548C15.3922 2.6716 15.7212 2.87273 15.9901 3.1416L20.8585 8.01C21.1274 8.27892 21.3285 8.60788 21.4453 8.96978C21.5621 9.33168 21.5912 9.71615 21.5303 10.0915C21.4693 10.4669 21.3201 10.8224 21.0948 11.1288C20.8695 11.4351 20.5746 11.6836 20.2345 11.8536L16.0849 13.9296C15.6907 14.1266 15.3824 14.4613 15.2185 14.8704L13.4953 19.1784C13.4215 19.3628 13.3031 19.526 13.1506 19.6534C12.9982 19.7807 12.8165 19.8682 12.622 19.9081C12.4274 19.9479 12.2259 19.9388 12.0357 19.8817C11.8455 19.8245 11.6724 19.721 11.5321 19.5804L8.4001 16.4484L4.4485 20.4H3.6001V19.5516L7.5517 15.6L4.4197 12.468C4.27915 12.3277 4.17563 12.1546 4.11844 11.9644C4.06125 11.7742 4.05217 11.5727 4.09202 11.3781C4.13186 11.1836 4.21939 11.0019 4.34674 10.8495C4.47409 10.697 4.63729 10.5786 4.8217 10.5048L9.1297 8.7816C9.53923 8.61795 9.87444 8.30965 10.0717 7.9152L12.1477 3.7656H12.1465ZM15.1417 3.99C15.0072 3.85569 14.8428 3.75523 14.6619 3.69691C14.481 3.63858 14.2889 3.62405 14.1013 3.65452C13.9137 3.68498 13.736 3.75957 13.5829 3.87214C13.4297 3.98471 13.3055 4.13204 13.2205 4.302L11.1445 8.4516C10.8163 9.10903 10.2582 9.62313 9.5761 9.8964L5.2681 11.6196L12.3805 18.732L14.1037 14.424C14.377 13.7419 14.8911 13.1838 15.5485 12.8556L19.6981 10.7796C19.8681 10.6946 20.0154 10.5704 20.128 10.4172C20.2405 10.2641 20.3151 10.0864 20.3456 9.89882C20.376 9.71122 20.3615 9.51907 20.3032 9.33819C20.2449 9.15731 20.1444 8.99286 20.0101 8.8584L15.1417 3.99Z" fill="white"/>
</svg>
