<svg width="24" height="24" viewBox="0 0 24 24" fill="none" xmlns="http://www.w3.org/2000/svg">
<path d="M21.5818 19.9677C20.129 17.4656 17.7575 15.629 14.9715 14.8483C16.2865 14.1804 17.3382 13.0892 17.9569 11.7505C18.5757 10.4117 18.7255 8.90361 18.3822 7.46932C18.0388 6.03503 17.2224 4.75821 16.0645 3.84478C14.9066 2.93135 13.4748 2.43457 12 2.43457C10.5252 2.43457 9.09336 2.93135 7.93547 3.84478C6.77758 4.75821 5.96112 6.03503 5.61779 7.46932C5.27445 8.90361 5.42425 10.4117 6.04303 11.7505C6.66181 13.0892 7.71348 14.1804 9.02843 14.8483C6.24262 15.629 3.87121 17.4655 2.4184 19.9675C2.34369 20.0966 2.32333 20.2501 2.36181 20.3943C2.40028 20.5384 2.49444 20.6614 2.62358 20.7361C2.75271 20.8108 2.90623 20.8312 3.05037 20.7927C3.19451 20.7542 3.31747 20.66 3.39218 20.5309C4.26486 19.0203 5.51973 17.7659 7.03071 16.8938C8.54169 16.0217 10.2556 15.5626 12.0002 15.5626C13.7448 15.5626 15.4587 16.0217 16.9696 16.8939C18.4806 17.766 19.7354 19.0204 20.6081 20.5311C20.6828 20.6602 20.8057 20.7544 20.9499 20.7929C21.094 20.8313 21.2475 20.811 21.3767 20.7363C21.5058 20.6616 21.6 20.5386 21.6384 20.3945C21.6769 20.2503 21.6566 20.0968 21.5818 19.9677ZM6.56253 9.00003C6.56253 7.9246 6.88143 6.87331 7.47891 5.97912C8.07639 5.08493 8.92561 4.38799 9.91919 3.97644C10.9128 3.56489 12.0061 3.45721 13.0608 3.66701C14.1156 3.87682 15.0845 4.39469 15.8449 5.15514C16.6054 5.91559 17.1232 6.88446 17.333 7.93923C17.5429 8.994 17.4352 10.0873 17.0236 11.0809C16.6121 12.0744 15.9151 12.9237 15.0209 13.5211C14.1267 14.1186 13.0755 14.4375 12 14.4375C10.5584 14.4359 9.17632 13.8625 8.15694 12.8431C7.13757 11.8237 6.56417 10.4416 6.56253 9.00003Z" fill="#708090"/>
</svg>
