<svg width="22" height="15" viewBox="0 0 22 15" fill="none" xmlns="http://www.w3.org/2000/svg">
<path d="M14.6364 14.0001V12.2223C14.6364 11.2793 14.2532 10.3749 13.5713 9.70815C12.8893 9.04135 11.9644 8.66675 11 8.66675H4.63636C3.67194 8.66675 2.74702 9.04135 2.06507 9.70815C1.38312 10.3749 1 11.2793 1 12.2223V14.0001" stroke="#FE9F11" stroke-linecap="round" stroke-linejoin="round"/>
<path d="M7.818 8.11111C9.82631 8.11111 11.4544 6.51924 11.4544 4.55556C11.4544 2.59188 9.82631 1 7.818 1C5.8097 1 4.18164 2.59188 4.18164 4.55556C4.18164 6.51924 5.8097 8.11111 7.818 8.11111Z" stroke="#FE9F11" stroke-linecap="round" stroke-linejoin="round"/>
<path d="M16.4546 3.44446L21 7.8889" stroke="#FE9F11" stroke-linecap="round" stroke-linejoin="round"/>
<path d="M21 3.44446L16.4546 7.8889" stroke="#FE9F11" stroke-linecap="round" stroke-linejoin="round"/>
</svg>
