<svg width="24" height="24" viewBox="0 0 24 24" fill="none" xmlns="http://www.w3.org/2000/svg">
<path d="M10.9263 14.8556C11.972 14.2645 12.7925 13.3437 13.2597 12.2371C13.727 11.1305 13.8146 9.90029 13.509 8.73861C13.2034 7.57693 12.5217 6.54915 11.5704 5.81574C10.6191 5.08233 9.45165 4.68457 8.25044 4.68457C7.04923 4.68457 5.88183 5.08233 4.93051 5.81574C3.97919 6.54915 3.2975 7.57693 2.99188 8.73861C2.68626 9.90029 2.77391 11.1305 3.24114 12.2371C3.70837 13.3437 4.52889 14.2645 5.57458 14.8556C3.74107 15.4408 2.14885 16.6088 1.04008 18.182C0.997552 18.2424 0.967335 18.3106 0.951156 18.3827C0.934978 18.4548 0.933155 18.5293 0.945791 18.6021C0.958427 18.6749 0.985275 18.7445 1.0248 18.8069C1.06433 18.8693 1.11576 18.9233 1.17616 18.9658C1.23656 19.0084 1.30474 19.0386 1.37682 19.0547C1.4489 19.0709 1.52346 19.0727 1.59624 19.0601C1.66902 19.0475 1.7386 19.0206 1.80101 18.9811C1.86342 18.9416 1.91743 18.8901 1.95996 18.8297C2.66943 17.8205 3.61132 16.9968 4.70612 16.4281C5.80091 15.8594 7.01646 15.5626 8.25013 15.5625C9.4838 15.5625 10.6994 15.8593 11.7942 16.4278C12.889 16.9964 13.831 17.8201 14.5406 18.8293C14.5831 18.8897 14.6371 18.9411 14.6995 18.9806C14.7619 19.0201 14.8315 19.047 14.9043 19.0596C14.9771 19.0722 15.0516 19.0704 15.1237 19.0542C15.1958 19.038 15.264 19.0078 15.3243 18.9653C15.3847 18.9227 15.4362 18.8687 15.4757 18.8063C15.5152 18.7439 15.542 18.6743 15.5547 18.6015C15.5673 18.5287 15.5655 18.4542 15.5493 18.3821C15.5331 18.31 15.5029 18.2419 15.4603 18.1815C14.3516 16.6086 12.7596 15.4408 10.9263 14.8556ZM3.93789 10.125C3.93789 9.27203 4.19082 8.43825 4.66468 7.72907C5.13854 7.01988 5.81207 6.46713 6.60007 6.14073C7.38808 5.81433 8.25518 5.72893 9.09172 5.89533C9.92826 6.06172 10.6967 6.47245 11.2998 7.07556C11.9029 7.67868 12.3136 8.44709 12.48 9.28364C12.6464 10.1202 12.561 10.9873 12.2346 11.7753C11.9082 12.5633 11.3555 13.2368 10.6463 13.7107C9.9371 14.1845 9.10333 14.4375 8.25039 14.4375C7.10704 14.4362 6.01089 13.9814 5.20242 13.1729C4.39395 12.3645 3.93918 11.2683 3.93789 10.125ZM22.967 18.9653C22.9066 19.0078 22.8384 19.0381 22.7663 19.0543C22.6943 19.0704 22.6197 19.0723 22.5469 19.0596C22.4742 19.047 22.4046 19.0202 22.3422 18.9806C22.2798 18.9411 22.2258 18.8897 22.1832 18.8293C21.4729 17.821 20.5308 16.998 19.4362 16.4295C18.3416 15.861 17.1265 15.5637 15.8931 15.5625C15.7439 15.5625 15.6008 15.5032 15.4953 15.3977C15.3898 15.2922 15.3306 15.1491 15.3306 15C15.3306 14.8508 15.3898 14.7077 15.4953 14.6022C15.6008 14.4967 15.7439 14.4375 15.8931 14.4375C16.5089 14.4368 17.1175 14.3043 17.6778 14.0488C18.2382 13.7933 18.7373 13.4207 19.1416 12.9562C19.5459 12.4916 19.846 11.9459 20.0218 11.3556C20.1975 10.7654 20.2448 10.1443 20.1605 9.53429C20.0761 8.92425 19.8621 8.33935 19.5328 7.81894C19.2035 7.29854 18.7665 6.8547 18.2513 6.51729C17.7361 6.17989 17.1546 5.95674 16.546 5.86286C15.9373 5.76899 15.3156 5.80656 14.7227 5.97306C14.5791 6.01346 14.4253 5.99516 14.2952 5.92218C14.1651 5.8492 14.0693 5.72751 14.0289 5.5839C13.9885 5.44029 14.0068 5.2865 14.0797 5.15638C14.1527 5.02626 14.2744 4.93046 14.418 4.89006C15.6976 4.52901 17.0651 4.64934 18.2619 5.22829C19.4587 5.80724 20.4019 6.80468 20.9131 8.03197C21.4243 9.25927 21.4681 10.6313 21.0361 11.8887C20.6042 13.1461 19.7265 14.2016 18.569 14.8557C20.4022 15.4409 21.9943 16.6087 23.103 18.1816C23.1889 18.3035 23.2228 18.4546 23.1973 18.6016C23.1718 18.7486 23.089 18.8794 22.967 18.9653Z" fill="#708090"/>
</svg>
