<svg width="12" height="14" viewBox="0 0 12 14" fill="none" xmlns="http://www.w3.org/2000/svg">
<path d="M6.00008 1.40475C7.26245 1.40475 8.2858 2.4281 8.2858 3.69047V4.45237C8.2858 5.71474 7.26245 6.73809 6.00008 6.73809C4.73772 6.73809 3.71437 5.71474 3.71437 4.45237V3.69047C3.71437 2.4281 4.73772 1.40475 6.00008 1.40475ZM11.3334 12.0714C11.3334 11.8865 11.3334 11.7016 11.3334 11.5166C11.3334 9.08888 8.52481 7.49999 6.00008 7.49999C3.47535 7.49999 0.666748 9.08888 0.666748 11.5166V12.0714C0.666748 12.4922 1.00786 12.8333 1.42865 12.8333H10.5715C10.9923 12.8333 11.3334 12.4922 11.3334 12.0714Z" stroke="white" stroke-linecap="round" stroke-linejoin="round"/>
</svg>
