<svg width="25" height="25" viewBox="0 0 25 25" fill="none" xmlns="http://www.w3.org/2000/svg">
<path d="M12.195 2.02103C12.4217 1.5675 12.753 1.17435 13.1615 0.873966C13.57 0.573581 14.044 0.374561 14.5444 0.293309C15.0449 0.212056 15.5576 0.250896 16.0401 0.406627C16.5226 0.562359 16.9612 0.830525 17.3198 1.18903L23.811 7.68023C24.1695 8.03879 24.4377 8.4774 24.5934 8.95993C24.7491 9.44246 24.788 9.9551 24.7067 10.4556C24.6255 10.9561 24.4264 11.4301 24.1261 11.8386C23.8257 12.247 23.4325 12.5783 22.979 12.805L17.4462 15.573C16.9206 15.8356 16.5095 16.282 16.291 16.8274L13.9934 22.5714C13.895 22.8173 13.7371 23.0349 13.5338 23.2047C13.3306 23.3745 13.0884 23.4912 12.8289 23.5443C12.5695 23.5975 12.3009 23.5854 12.0473 23.5091C11.7937 23.4328 11.5629 23.2948 11.3758 23.1074L7.1998 18.9314L1.931 24.2002H0.799805V23.069L6.0686 17.8002L1.8926 13.6242C1.7052 13.4371 1.56719 13.2064 1.49093 12.9527C1.41468 12.6991 1.40257 12.4305 1.4557 12.1711C1.50882 11.9116 1.62552 11.6694 1.79533 11.4662C1.96513 11.2629 2.18273 11.105 2.4286 11.0066L8.1726 8.70903C8.71865 8.49083 9.16559 8.07976 9.4286 7.55383L12.1966 2.02103H12.195ZM16.1886 2.32023C16.0093 2.14114 15.7901 2.0072 15.5489 1.92943C15.3077 1.85166 15.0515 1.83229 14.8014 1.87291C14.5513 1.91353 14.3144 2.01298 14.1102 2.16308C13.906 2.31317 13.7404 2.50961 13.627 2.73623L10.859 8.26903C10.4214 9.14559 9.67727 9.83107 8.7678 10.1954L3.0238 12.493L12.507 21.9762L14.8046 16.2322C15.169 15.3228 15.8544 14.5786 16.731 14.141L22.2638 11.373C22.4904 11.2596 22.6869 11.094 22.837 10.8899C22.987 10.6857 23.0865 10.4488 23.1271 10.1986C23.1677 9.94852 23.1484 9.69232 23.0706 9.45114C22.9928 9.20997 22.8589 8.99071 22.6798 8.81143L16.1886 2.32023Z" fill="#708090"/>
</svg>
