<svg width="26" height="26" viewBox="0 0 26 26" fill="none" xmlns="http://www.w3.org/2000/svg">
<path d="M24.0907 8.34422L17.656 1.90955C17.2452 1.49881 16.7426 1.19156 16.1897 1.01314C15.6368 0.83472 15.0495 0.790226 14.476 0.883327C13.9026 0.976428 13.3594 1.20446 12.8914 1.54863C12.4234 1.8928 12.0438 2.34326 11.784 2.86289L8.53733 9.35622C8.42053 9.59035 8.21661 9.76938 7.96933 9.85489L2.41333 11.7736C2.14633 11.8658 1.90715 12.0244 1.71827 12.2345C1.5294 12.4446 1.39701 12.6992 1.33356 12.9745C1.27011 13.2498 1.27766 13.5366 1.35552 13.8082C1.43338 14.0797 1.57899 14.3271 1.77867 14.5269L5.91867 18.6669L0 24.5869V26.0002H1.41333L7.33333 20.0802L11.472 24.2202C11.6718 24.4202 11.9192 24.5661 12.1909 24.6441C12.4626 24.7222 12.7497 24.7298 13.0252 24.6664C13.3007 24.6029 13.5555 24.4704 13.7657 24.2813C13.9759 24.0922 14.1345 23.8528 14.2267 23.5856L16.1467 18.0309C16.2319 17.7838 16.4104 17.58 16.644 17.4629L23.1373 14.2162C23.657 13.9564 24.1074 13.5769 24.4516 13.1088C24.7958 12.6408 25.0238 12.0977 25.1169 11.5242C25.21 10.9508 25.1655 10.3634 24.9871 9.81053C24.8087 9.25764 24.5014 8.75507 24.0907 8.34422Z" fill="#40659E"/>
</svg>
