<svg width="19" height="19" viewBox="0 0 19 19" fill="none" xmlns="http://www.w3.org/2000/svg">
<path d="M18.068 5.75801L13.242 0.932014C12.9339 0.623953 12.5569 0.39352 12.1423 0.259704C11.7276 0.125887 11.2871 0.0925167 10.857 0.162342C10.4269 0.232168 10.0196 0.403191 9.66855 0.661319C9.31752 0.919447 9.03285 1.25729 8.838 1.64701L6.403 6.51701C6.3154 6.69261 6.16246 6.82688 5.977 6.89101L1.81 8.33001C1.60975 8.39921 1.43036 8.51817 1.28871 8.67572C1.14705 8.83327 1.04776 9.02424 1.00017 9.2307C0.952579 9.43716 0.958248 9.65233 1.01664 9.85599C1.07504 10.0597 1.18424 10.2451 1.334 10.395L4.439 13.5L0 17.94V19H1.06L5.5 14.56L8.604 17.665C8.75386 17.815 8.93941 17.9244 9.1432 17.983C9.34698 18.0415 9.56231 18.0472 9.76893 17.9996C9.97554 17.952 10.1667 17.8526 10.3243 17.7108C10.4819 17.569 10.6009 17.3895 10.67 17.189L12.11 13.023C12.1739 12.8377 12.3078 12.6848 12.483 12.597L17.353 10.162C17.7427 9.96716 18.0806 9.68249 18.3387 9.33147C18.5968 8.98044 18.7678 8.5731 18.8377 8.14301C18.9075 7.71292 18.8741 7.2724 18.7403 6.85774C18.6065 6.44308 18.3761 6.06615 18.068 5.75801Z" fill="white"/>
</svg>
