<svg width="32" height="32" viewBox="0 0 32 32" fill="none" xmlns="http://www.w3.org/2000/svg">
<path d="M19.8086 25.9057C18.7927 27.4295 17.5229 28.1914 15.9991 28.1914C14.4753 28.1914 13.2054 27.4295 12.1896 25.9057M23.7469 23.62H8.25125C6.86204 23.62 5.73587 22.4938 5.73587 21.1046C5.73587 20.6487 5.85977 20.2014 6.09433 19.8105C7.58998 17.3177 8.38005 14.4653 8.38005 11.5583V9.90569C8.38005 6.53939 11.109 3.81046 14.4753 3.81046H17.5229C20.8892 3.81046 23.6181 6.53939 23.6181 9.90569V11.5583C23.6181 14.4653 24.4082 17.3177 25.9039 19.8105C26.6186 21.0017 26.2323 22.5468 25.0411 23.2615C24.6502 23.4961 24.2028 23.62 23.7469 23.62V23.62Z" stroke="white" stroke-linecap="round" stroke-linejoin="round"/>
<circle cx="22" cy="7" r="6" fill="#40659E"/>
</svg>
