<svg width="22" height="26" viewBox="0 0 22 26" fill="none" xmlns="http://www.w3.org/2000/svg">
<path d="M14.8091 22.9057C13.7932 24.4295 12.5234 25.1914 10.9996 25.1914C9.47577 25.1914 8.20593 24.4295 7.19006 22.9057M18.7474 20.62H3.25173C1.86253 20.62 0.736361 19.4938 0.736361 18.1046C0.736361 17.6487 0.860262 17.2014 1.09482 16.8105C2.59047 14.3177 3.38053 11.4653 3.38053 8.5583V6.90569C3.38053 3.53939 6.10946 0.810455 9.47577 0.810455H12.5234C15.8897 0.810455 18.6186 3.53939 18.6186 6.90569V8.5583C18.6186 11.4653 19.4087 14.3177 20.9043 16.8105C21.6191 18.0017 21.2328 19.5468 20.0416 20.2615C19.6507 20.4961 19.2033 20.62 18.7474 20.62V20.62Z" stroke="white" stroke-linecap="round" stroke-linejoin="round"/>
</svg>
