<svg width="229" height="103" viewBox="0 0 229 103" fill="none" xmlns="http://www.w3.org/2000/svg">
<path d="M68.5622 57.9331C66.844 53.8438 65.9806 51.7889 63.5521 46.1697C62.349 48.9693 61.327 51.4142 60.4176 53.5899C59.2661 56.3448 58.2949 58.6682 57.3647 60.7337H54.0744C56.4134 55.6693 57.3966 53.3747 59.873 47.5954C60.5055 46.1194 61.2354 44.416 62.1101 42.3812H65.0859L73.1216 60.7337H69.7395C69.298 59.6841 68.9124 58.7664 68.5622 57.9331Z" fill="#0D1B2B"/>
<path d="M205.496 42.4599H203.426L203.424 42.4598L203.424 60.7337H205.496L205.496 42.4729L205.496 42.4599Z" fill="#0D1B2B"/>
<path d="M226.785 60.7337L219.719 44.767H219.693L212.535 60.7337H210.425L218.749 42.3812H220.676L229 60.7337H226.785Z" fill="#0D1B2B"/>
<path d="M0 60.7337V50.1155L10.2905 50.063H12.3355V52.9601H3.15925V57.8366H13.6464V60.7337H0Z" fill="#0D1B2B"/>
<path d="M29.3532 53.7413C31.0334 56.0693 32.7131 58.3967 34.3716 60.7337H30.5963L25.7984 53.8122L20.9743 60.7337H17.2776L23.9369 51.4395L17.5398 42.4599H21.3282C23.9472 46.2508 26.6508 49.997 29.3532 53.7413Z" fill="#0D1B2B"/>
<path fill-rule="evenodd" clip-rule="evenodd" d="M52.5275 46.0648C52.8505 46.8687 53.0109 47.7286 52.9994 48.5948L52.9732 48.6342C52.9966 49.57 52.8037 50.4986 52.4095 51.3477C52.0353 52.1103 51.4983 52.7815 50.8364 53.314C50.1382 53.848 49.347 54.248 48.5031 54.4939C47.5829 54.7571 46.6284 54.8808 45.6715 54.8609H42.0272V60.7337H38.8418V42.3943H46.0517C47.0301 42.3818 48.004 42.5279 48.9357 42.8269C49.7487 43.1067 50.4944 43.5532 51.1248 44.1378C51.7275 44.67 52.2063 45.3278 52.5275 46.0648ZM49.4948 49.917C49.6788 49.5013 49.7655 49.0491 49.7484 48.5948L49.814 48.6604C49.8438 48.1796 49.7555 47.6989 49.5567 47.2601C49.3579 46.8214 49.0546 46.438 48.6735 46.1435C47.8305 45.5556 46.8159 45.265 45.7895 45.3176H42.0404V51.8983H45.7895C46.8327 51.9565 47.8618 51.6353 48.6866 50.9938C49.0344 50.701 49.3108 50.3327 49.4948 49.917Z" fill="#0D1B2B"/>
<path d="M80.3971 42.3943L90.1633 55.0313V42.4599H93.2832V60.7337H90.6614L80.6199 47.7428V60.7337H77.4345V42.3943H80.3971Z" fill="#0D1B2B"/>
<path d="M112.383 51.5356C112.383 51.5254 112.383 51.5152 112.383 51.505V51.5837C112.383 51.5676 112.383 51.5516 112.383 51.5356Z" fill="#0D1B2B"/>
<path fill-rule="evenodd" clip-rule="evenodd" d="M115.044 47.9394C115.507 49.071 115.743 50.2824 115.739 51.505V51.5706C115.745 52.8104 115.509 54.0395 115.044 55.1886C114.59 56.2903 113.906 57.2824 113.038 58.0988C112.15 58.9401 111.103 59.5953 109.958 60.0258C108.704 60.5117 107.369 60.752 106.025 60.7337H99.2084V42.4205H106.025C107.368 42.4057 108.701 42.6413 109.958 43.1153C111.105 43.5423 112.153 44.1979 113.038 45.0423C113.903 45.8564 114.586 46.8436 115.044 47.9394ZM111.924 54.0088C112.232 53.2207 112.388 52.3815 112.383 51.5356C112.384 50.6957 112.229 49.8629 111.924 49.0799C111.635 48.3326 111.193 47.6539 110.626 47.0873C110.06 46.5207 109.381 46.0787 108.634 45.7895C107.798 45.4652 106.908 45.305 106.012 45.3176H102.407V57.7449H105.986C106.881 57.7617 107.771 57.6059 108.608 57.2861C109.362 56.9968 110.046 56.5499 110.613 55.9752C111.177 55.4139 111.623 54.7453 111.924 54.0088Z" fill="#0D1B2B"/>
<path fill-rule="evenodd" clip-rule="evenodd" d="M138.391 47.8607C138.866 49.0168 139.106 50.2554 139.099 51.505L139.164 51.5706C139.17 52.8243 138.93 54.067 138.457 55.228C138.007 56.3563 137.334 57.382 136.477 58.243C135.612 59.117 134.583 59.8119 133.449 60.288C132.207 60.8176 130.866 61.0767 129.516 61.0483C128.191 61.0517 126.88 60.7841 125.662 60.2618C124.541 59.7984 123.524 59.1155 122.671 58.2533C121.818 57.391 121.146 56.3669 120.694 55.2411C120.231 54.0775 119.995 52.836 119.999 51.5837C119.994 50.3355 120.23 49.098 120.694 47.9394C121.145 46.7972 121.823 45.7582 122.687 44.885C123.555 44.0112 124.583 43.3125 125.715 42.8269C128.195 41.845 130.956 41.845 133.436 42.8269C134.56 43.3 135.581 43.9905 136.438 44.8588C137.285 45.7175 137.949 46.7386 138.391 47.8607ZM135.271 54.0219C135.584 53.2201 135.74 52.3656 135.73 51.505H135.691C135.698 50.6446 135.543 49.7905 135.232 48.9881C134.95 48.2212 134.519 47.518 133.963 46.9194C133.407 46.3208 132.738 45.8387 131.994 45.5011C131.2 45.1562 130.342 44.982 129.477 44.9899C128.621 44.9764 127.771 45.1462 126.986 45.488C126.252 45.8145 125.592 46.2873 125.046 46.8776C124.484 47.4755 124.04 48.1736 123.735 48.9357C123.435 49.7406 123.284 50.5935 123.29 51.4526C123.282 52.3118 123.433 53.1651 123.735 53.9695C124.038 54.74 124.483 55.4469 125.046 56.0538C125.601 56.6487 126.269 57.1257 127.012 57.4565C127.799 57.8119 128.653 57.9909 129.516 57.9808C130.348 57.9925 131.172 57.8307 131.937 57.5056C132.702 57.1806 133.391 56.6995 133.96 56.0931C134.527 55.4943 134.973 54.7908 135.271 54.0219Z" fill="#0D1B2B"/>
<path fill-rule="evenodd" clip-rule="evenodd" d="M157.543 45.724C157.868 46.4953 158.028 47.3256 158.015 48.1622L158.068 48.2671C158.092 49.1736 157.899 50.0727 157.504 50.8889C157.129 51.6253 156.597 52.2699 155.944 52.7766C155.26 53.2909 154.487 53.6732 153.663 53.904C152.765 54.1658 151.833 54.2939 150.897 54.2841H146.453V60.7337H144.395V42.4467H151.238C152.188 42.4398 153.134 42.5768 154.043 42.8531C154.83 43.0982 155.564 43.4896 156.206 44.0067C156.772 44.4742 157.229 45.0604 157.543 45.724ZM155.603 49.9057C155.844 49.3844 155.965 48.8154 155.957 48.2409L155.996 48.3064C156.038 47.7391 155.941 47.1702 155.712 46.6492C155.484 46.1282 155.131 45.6711 154.685 45.3176C153.609 44.6071 152.327 44.275 151.041 44.3738H146.401V52.3309H150.936C151.629 52.341 152.319 52.2438 152.981 52.0425C153.563 51.8745 154.107 51.5939 154.581 51.2166C155.021 50.867 155.371 50.4177 155.603 49.9057Z" fill="#0D1B2B"/>
<path d="M163.01 42.3419H176.158L176.21 42.4599V44.3475H165.068V50.5612H175.031V52.462H165.068V58.8591H176.341V60.7337H163.01V42.3419Z" fill="#0D1B2B"/>
<path d="M195.52 51.5332C195.52 51.5282 195.52 51.5231 195.52 51.5181V51.5575C195.52 51.5494 195.52 51.5413 195.52 51.5332Z" fill="#0D1B2B"/>
<path fill-rule="evenodd" clip-rule="evenodd" d="M196.962 47.9263C197.435 49.0641 197.671 50.2861 197.657 51.5181V51.5706C197.669 52.8109 197.433 54.0413 196.962 55.1886C196.508 56.2903 195.824 57.2824 194.956 58.0988C194.068 58.9401 193.021 59.5953 191.875 60.0258C190.622 60.5117 189.287 60.752 187.943 60.7337H181.598V42.4074H187.943C189.285 42.3926 190.619 42.6282 191.875 43.1022C193.022 43.5292 194.07 44.1848 194.956 45.0292C195.821 45.8433 196.504 46.8305 196.962 47.9263ZM194.982 54.3628C195.351 53.4655 195.534 52.503 195.52 51.5332C195.527 50.567 195.345 49.6087 194.982 48.7128C194.642 47.8493 194.129 47.0643 193.475 46.4056C192.794 45.7352 191.982 45.213 191.089 44.8719C190.091 44.4842 189.027 44.2928 187.956 44.3082H183.669V58.728H187.956C189.025 58.741 190.088 58.5542 191.089 58.1775C191.978 57.836 192.79 57.3188 193.475 56.6568C194.129 56.003 194.642 55.2223 194.982 54.3628Z" fill="#0D1B2B"/>
<path d="M0 42.4598H13.5153V45.3176H0V42.4598Z" fill="#0D1B2B"/>
<path d="M29.8222 48.7206L29.8359 48.739H29.8097L29.8222 48.7206Z" fill="#0D1B2B"/>
<path d="M29.8222 48.7206L34.0832 42.4598H30.4258L27.9876 46.2614L29.8222 48.7206Z" fill="#0D1B2B"/>
<path fill-rule="evenodd" clip-rule="evenodd" d="M66.2256 100.874H97.712V102.84H64.2659V69.4173H66.2256V100.874ZM163.82 100.874V69.4173H165.78V102.84H132.334V100.874H163.82ZM163.82 3.0964H132.334V1.13037H165.649V34.5529H163.69V3.0964H163.82ZM66.2256 3.0964V34.5529H64.2659V1.13037H97.5813V3.0964H66.2256Z" fill="url(#paint0_linear)"/>
<defs>
<linearGradient id="paint0_linear" x1="64.2659" y1="1.13037" x2="163.125" y2="105.358" gradientUnits="userSpaceOnUse">
<stop stop-color="#005DB0"/>
<stop offset="1" stop-color="#6BB5E1"/>
</linearGradient>
</defs>
</svg>
