<svg width="24" height="24" viewBox="0 0 24 24" fill="none" xmlns="http://www.w3.org/2000/svg">
<path d="M22.6263 14.0286L21.0977 13.1461C21.1938 12.385 21.1938 11.6149 21.0977 10.8539L22.6263 9.9714C23.0752 9.71227 23.2917 9.17911 23.1441 8.68229C22.6185 6.9128 21.6828 5.32004 20.4472 4.01377C20.0893 3.63549 19.5182 3.55271 19.0673 3.81305L17.541 4.69421C16.9304 4.22957 16.2636 3.84401 15.5563 3.54671V1.78355C15.5563 1.26183 15.1976 0.808365 14.6899 0.688225C12.9253 0.270615 11.075 0.270568 9.31004 0.688225C8.80234 0.808365 8.44361 1.26179 8.44361 1.78355V3.54671C7.73632 3.844 7.06949 4.22956 6.45897 4.69421L4.93262 3.81305C4.48164 3.55271 3.91056 3.63549 3.55276 4.01377C2.31714 5.32004 1.38147 6.91285 0.85581 8.68229C0.7082 9.17911 0.924716 9.71222 1.37359 9.9714L2.90218 10.8539C2.80609 11.6149 2.80609 12.385 2.90218 13.1461L1.37359 14.0286C0.924716 14.2877 0.7082 14.8208 0.85581 15.3177C1.38147 17.0871 2.31714 18.6799 3.55276 19.9862C3.91061 20.3645 4.48168 20.4473 4.93262 20.187L6.45897 19.3058C7.06948 19.7704 7.73632 20.156 8.44361 20.4533V22.2164C8.44361 22.7381 8.80229 23.1916 9.31004 23.3117C11.0747 23.7293 12.9249 23.7294 14.6899 23.3117C15.1976 23.1916 15.5563 22.7382 15.5563 22.2164V20.4533C16.2636 20.156 16.9304 19.7704 17.541 19.3058L19.0673 20.187C19.5182 20.4473 20.0893 20.3645 20.4472 19.9862C21.6828 18.6799 22.6185 17.0871 23.1441 15.3177C23.2917 14.8208 23.0752 14.2877 22.6263 14.0286ZM19.557 18.7377L17.3863 17.4842C16.1212 18.5657 15.6726 18.8378 14.0563 19.4089V21.9157C12.6997 22.1955 11.3002 22.1955 9.94361 21.9157V19.4089C8.36762 18.852 7.91134 18.5935 6.61365 17.4842L4.44292 18.7377C3.51901 17.7022 2.81687 16.4882 2.38375 15.1771L4.55542 13.9237C4.24909 12.2635 4.24895 11.7373 4.55542 10.0763L2.38375 8.82282C2.81687 7.51177 3.51906 6.29771 4.44292 5.26177L6.61365 6.51615C7.89695 5.41768 8.35098 5.15372 9.94361 4.59104V2.08426C11.3002 1.80394 12.6997 1.80394 14.0563 2.08426V4.59108C15.649 5.15382 16.1031 5.41782 17.3863 6.51619L19.557 5.26182C20.4809 6.29771 21.1831 7.51177 21.6162 8.82286L19.4445 10.0763C19.7509 11.7369 19.751 12.2627 19.4445 13.9238L21.6162 15.1772C21.1831 16.4882 20.4809 17.7023 19.557 18.7377ZM12 7.5C9.51864 7.5 7.49997 9.51868 7.49997 12C7.49997 14.4813 9.51864 16.5 12 16.5C14.4813 16.5 16.5 14.4813 16.5 12C16.5 9.51868 14.4813 7.5 12 7.5ZM12 15C10.3457 15 8.99997 13.6542 8.99997 12C8.99997 10.3458 10.3457 9 12 9C13.6542 9 15 10.3458 15 12C15 13.6542 13.6542 15 12 15Z" fill="white"/>
</svg>
