<svg width="24" height="24" viewBox="0 0 24 24" fill="none" xmlns="http://www.w3.org/2000/svg">
<path d="M22.267 16.3634C22.2752 16.3447 22.2843 16.3264 22.2906 16.3073C23.2725 13.963 23.4238 11.3535 22.7194 8.91143C22.0151 6.46934 20.4974 4.34126 18.4179 2.87988C18.3778 2.84416 18.3336 2.81349 18.2861 2.78855C16.1323 1.31658 13.5307 0.646333 10.9338 0.894457C8.33693 1.14258 5.90925 2.29336 4.07322 4.14655C2.23719 5.99974 1.10904 8.43801 0.885079 11.0371C0.661119 13.6361 1.35553 16.2315 2.84747 18.3714C2.85218 18.3802 2.85633 18.3893 2.86158 18.3978C2.8826 18.4319 2.90669 18.4639 2.93355 18.4936C3.80415 19.7118 4.91138 20.7419 6.18909 21.5225C7.4668 22.3032 8.88875 22.8182 10.37 23.0368C11.8512 23.2555 13.3613 23.1733 14.8101 22.7952C16.2589 22.4171 17.6165 21.7508 18.802 20.8362C18.8462 20.8098 18.8871 20.7783 18.924 20.7423C18.9251 20.7413 18.9256 20.7399 18.9267 20.7388C20.3863 19.5805 21.5343 18.0767 22.267 16.3634ZM18.4984 19.3871L17.751 18.6381C17.5588 18.4457 17.3189 18.3078 17.0558 18.2386L14.7089 17.6229C14.6567 17.6093 14.6115 17.5769 14.5818 17.532C14.552 17.487 14.54 17.4327 14.5479 17.3794L14.8087 15.6078C14.8143 15.5705 14.8294 15.5353 14.8526 15.5055C14.8758 15.4757 14.9063 15.4524 14.9411 15.4378L18.2719 14.0534C18.3103 14.0375 18.3525 14.0328 18.3935 14.04C18.4345 14.0472 18.4726 14.0659 18.5033 14.094L20.8727 16.2609C20.2978 17.451 19.4905 18.5139 18.4984 19.3871ZM11.9998 2.15625C13.8954 2.15405 15.7509 2.7025 17.3408 3.73497L17.4524 6.05908C17.4553 6.1152 17.4362 6.17024 17.3994 6.21265L14.9758 9.01265C14.941 9.05298 14.8927 9.07919 14.8399 9.08636L11.3968 9.55263C11.341 9.56021 11.2845 9.54608 11.2389 9.51315L9.08907 7.95532C8.92007 7.83289 8.72782 7.74631 8.52415 7.70087C8.32047 7.65544 8.10965 7.65212 7.90464 7.69111C7.69963 7.73011 7.50476 7.81059 7.33198 7.92763C7.15921 8.04467 7.01218 8.19579 6.89993 8.37171L4.7296 11.7731C4.57412 12.0166 4.4908 12.2992 4.4893 12.5881L4.4671 16.5397C4.46675 16.5772 4.45686 16.6139 4.43838 16.6464C4.41989 16.679 4.39341 16.7063 4.36144 16.7258L3.62633 17.1695C2.70466 15.6788 2.19793 13.9689 2.15852 12.2166C2.11911 10.4644 2.54847 8.73347 3.40218 7.20279C4.2559 5.6721 5.50299 4.39724 7.01451 3.51002C8.52602 2.62281 10.2471 2.15544 11.9998 2.15625ZM4.3924 18.2403L5.03979 17.8495C5.26367 17.7132 5.44909 17.5221 5.57853 17.2942C5.70796 17.0663 5.77713 16.8091 5.77949 16.5471L5.80169 12.5956C5.80195 12.5543 5.8139 12.5139 5.83615 12.4792L8.00636 9.07783C8.02241 9.0527 8.04342 9.03112 8.06811 9.0144C8.09279 8.99768 8.12063 8.98617 8.14992 8.98059C8.17921 8.97501 8.20933 8.97547 8.23843 8.98194C8.26754 8.98841 8.29501 9.00076 8.31918 9.01822L10.4689 10.5759C10.7872 10.8076 11.1829 10.907 11.5729 10.8533L15.016 10.3869C15.3856 10.337 15.7243 10.1537 15.9683 9.87168L18.3917 7.07168C18.6498 6.77452 18.783 6.38907 18.7634 5.99597L18.7061 4.80127C20.0673 6.06716 21.042 7.69291 21.517 9.49008C21.992 11.2873 21.948 13.1823 21.39 14.9554L19.3891 13.1255C19.1737 12.9293 18.9068 12.7984 18.6198 12.7481C18.3327 12.6978 18.0373 12.7302 17.768 12.8415L14.4374 14.2259C14.1936 14.328 13.9802 14.4913 13.8178 14.6998C13.6554 14.9084 13.5495 15.1553 13.5102 15.4167L13.2494 17.1882C13.1941 17.5611 13.2785 17.9413 13.4864 18.2558C13.6942 18.5702 14.0109 18.7969 14.3756 18.8923L16.7223 19.5081C16.76 19.518 16.7944 19.5377 16.8219 19.5653L17.449 20.1936C15.4186 21.547 12.9572 22.0966 10.5439 21.7355C8.13058 21.3745 5.93788 20.1286 4.3924 18.2402V18.2403Z" fill="white"/>
</svg>
