<svg width="24" height="22" viewBox="0 0 24 22" fill="none" xmlns="http://www.w3.org/2000/svg">
<path d="M23.8598 10.0986L21.0001 7.77552V4.16711C21.0001 4.09292 20.9704 4.02177 20.9177 3.96931C20.8649 3.91685 20.7934 3.88738 20.7188 3.88738H19.7812C19.7066 3.88738 19.635 3.91685 19.5823 3.96931C19.5295 4.02177 19.4999 4.09292 19.4999 4.16711V6.56013L12.9455 1.23981C12.6774 1.0248 12.3434 0.907532 11.9989 0.907532C11.6545 0.907532 11.3205 1.0248 11.0524 1.23981L0.138115 10.0986C0.0611342 10.161 0.0121773 10.2512 0.00198265 10.3494C-0.00821203 10.4477 0.0211878 10.5459 0.0837337 10.6226L0.557229 11.2012C0.619717 11.2774 0.709946 11.326 0.808281 11.3364C0.906615 11.3468 1.0051 11.3181 1.08229 11.2567L2.99784 9.70047V21.0292C2.99784 21.227 3.07687 21.4168 3.21754 21.5567C3.35821 21.6966 3.549 21.7751 3.74793 21.7751H9.74867C9.94761 21.7751 10.1384 21.6966 10.2791 21.5567C10.4197 21.4168 10.4988 21.227 10.4988 21.0292V15.0618L13.4991 15.0758V21.0469C13.4991 21.2448 13.5782 21.4345 13.7188 21.5744C13.8595 21.7143 14.0503 21.7929 14.2492 21.7929L20.25 21.7775C20.4489 21.7775 20.6397 21.6989 20.7804 21.559C20.921 21.4191 21.0001 21.2294 21.0001 21.0315V9.70047L22.9156 11.2567C22.9928 11.319 23.0917 11.3483 23.1906 11.3382C23.2895 11.328 23.3803 11.2793 23.443 11.2026L23.9165 10.624C23.9476 10.5859 23.9707 10.542 23.9847 10.4949C23.9987 10.4478 24.0031 10.3984 23.9979 10.3496C23.9926 10.3008 23.9777 10.2535 23.954 10.2104C23.9303 10.1673 23.8983 10.1294 23.8598 10.0986ZM19.4947 20.2893H19.4994L14.9988 20.3033V14.328C14.9982 14.1308 14.9193 13.9417 14.7793 13.8021C14.6393 13.6624 14.4494 13.5833 14.2511 13.5821L9.75055 13.5695C9.65185 13.5692 9.55406 13.5883 9.46278 13.6256C9.3715 13.663 9.28854 13.7178 9.21864 13.7871C9.14874 13.8564 9.09327 13.9388 9.05543 14.0294C9.01759 14.1201 8.99811 14.2173 8.99811 14.3154V20.2893H4.49803V8.48322L11.9989 2.396L19.4999 8.48322L19.4947 20.2893Z" fill="#1B9DEF"/>
</svg>
