<svg width="24" height="25" viewBox="0 0 24 25" fill="none" xmlns="http://www.w3.org/2000/svg">
<g clip-path="url(#clip0)">
<path d="M22.9996 3.98065H5.38667L5.03963 1.89832C4.95092 1.36625 4.53796 0.980652 4.05675 0.980652H0.5C0.223875 0.980652 0 1.23251 0 1.54315V1.91815C0 2.22879 0.223875 2.48065 0.5 2.48065H3.78L6.69363 19.9625C6.26271 20.4954 6 21.2035 6 21.9807C6 23.6375 7.19392 24.9807 8.66667 24.9807C10.1394 24.9807 11.3333 23.6375 11.3333 21.9807C11.3339 21.4539 11.2105 20.9364 10.9757 20.4807H17.0243C16.7896 20.9364 16.6662 21.4539 16.6667 21.9807C16.6667 23.6375 17.8606 24.9807 19.3334 24.9807C20.8061 24.9807 22 23.6375 22 21.9807C22 21.1372 21.6903 20.3757 21.1922 19.8306C21.0843 19.3505 20.6983 18.9807 20.222 18.9807H7.88667L7.38667 15.9807H21.1942C21.6679 15.9807 22.0766 15.6068 22.1732 15.0851L23.9787 5.3351C24.108 4.63648 23.634 3.98065 22.9996 3.98065ZM10 21.9807C10 22.8078 9.40188 23.4807 8.66667 23.4807C7.93146 23.4807 7.33333 22.8078 7.33333 21.9807C7.33333 21.1535 7.93146 20.4807 8.66667 20.4807C9.40188 20.4807 10 21.1535 10 21.9807ZM19.3333 23.4807C18.5981 23.4807 18 22.8078 18 21.9807C18 21.1535 18.5981 20.4807 19.3333 20.4807C20.0685 20.4807 20.6667 21.1535 20.6667 21.9807C20.6667 22.8078 20.0685 23.4807 19.3333 23.4807ZM20.9232 14.4807H7.13667L5.63667 5.48065H22.5898L20.9232 14.4807Z" fill="white"/>
</g>
<defs>
<clipPath id="clip0">
<rect width="24" height="24" fill="white" transform="translate(0 0.980652)"/>
</clipPath>
</defs>
</svg>
