<svg width="20" height="20" viewBox="0 0 20 20" fill="none" xmlns="http://www.w3.org/2000/svg">
<path d="M8.125 1.875C5.71563 1.875 3.75 3.84063 3.75 6.25C3.75 7.75625 4.51875 9.09375 5.68375 9.88313C3.45438 10.8394 1.875 13.0519 1.875 15.625H3.125C3.125 12.8562 5.35625 10.625 8.125 10.625C9.46562 10.625 10.6644 11.1744 11.5625 12.0312L8.61312 14.9806L8.57438 15.1756L8.14437 17.3831L7.94938 18.3006L8.8675 18.1056L11.0738 17.6756L11.2694 17.6369L17.5781 11.3281C18.3031 10.6031 18.3031 9.39687 17.5781 8.67188C17.2282 8.32482 16.7564 8.12849 16.2636 8.12487C15.7708 8.12124 15.2962 8.31063 14.9412 8.6525L12.4613 11.1331C11.9103 10.6054 11.2682 10.1819 10.5662 9.88313C11.1609 9.48168 11.6482 8.94059 11.9853 8.30722C12.3224 7.67385 12.4991 6.9675 12.5 6.25C12.5 3.84063 10.5344 1.875 8.125 1.875ZM8.125 3.125C9.85812 3.125 11.25 4.51688 11.25 6.25C11.25 7.98312 9.85812 9.375 8.125 9.375C6.39188 9.375 5 7.98312 5 6.25C5 4.51688 6.39188 3.125 8.125 3.125ZM16.25 9.375C16.4087 9.375 16.575 9.42625 16.6994 9.55062C16.7584 9.60758 16.8053 9.67584 16.8374 9.75132C16.8694 9.82681 16.886 9.90799 16.886 9.99C16.886 10.072 16.8694 10.1532 16.8374 10.2287C16.8053 10.3042 16.7584 10.3724 16.6994 10.4294L10.6444 16.4844L9.53125 16.7188L9.76562 15.6056L15.8206 9.55062C15.945 9.42625 16.0913 9.375 16.25 9.375Z" fill="#1B9DEF"/>
</svg>
